<svg xmlns="http://www.w3.org/2000/svg" xmlns:xlink="http://www.w3.org/1999/xlink" xmlns:lucid="lucid" width="1215.3" height="620"><g transform="translate(-184.7037037037037 -240)" lucid:page-tab-id="56jS20mD0_xJ"><path d="M920 438.25h420v243.5H920z" stroke="#000" stroke-width="2" fill="#fff"/><path d="M1350 292c16.57 0 30 13.43 30 30v488c0 16.57-13.43 30-30 30H570c-16.57 0-30-13.43-30-30V322c0-16.57 13.43-30 30-30z" stroke="#000" stroke-width="2" fill-opacity="0"/><path d="M579.04 283.6v-.8c0-12.8 8.32-22.8 18.56-22.8 7.36 0 13.76 5.6 16.64 13.6 1.6-1.6 3.52-2 5.44-2 5.12 0 8.96 4.8 9.28 11.2 7.36.8 12.8 9.6 12.8 16.4v1.6c0 7.6-6.4 15.2-14.4 15.2h-43.2c-8 0-14.4-7.6-14.4-15.2v-1.6c0-5.6 3.84-13.6 9.28-15.6z" fill="#146eb4"/><path d="M588.64 286.4h2.88l2.88 16.8 2.88-16.8h2.88L596 307.6h-3.52l-3.84-21.2zM602.08 286.4h5.12c3.52 0 4.8 2.4 4.8 6.4 0 3.6-1.92 6-5.12 6h-2.24v8.8h-2.56v-21.2zm2.56 10h1.92c1.6 0 2.88-1.2 2.88-3.6 0-2.4-.96-4-3.2-4h-1.6v7.6zM624.8 300v.4c0 4-1.28 7.6-5.44 7.6s-5.44-3.2-5.44-10.8c0-7.6 1.28-11.2 5.76-11.2 4.8 0 5.12 4.4 5.12 6.8v.4h-2.88v-.4c0-2-.32-4.4-2.56-4.4-1.92 0-2.88 1.6-2.88 8.4 0 6.8.96 8.8 2.88 8.8 2.56 0 2.56-3.2 2.56-5.2v-.4h2.88z" fill="#fff"/><path d="M560 360h280v400H560z" fill="#248814" fill-opacity=".13"/><path d="M560 360h56v56h-56v-56z" stroke="#fff" stroke-opacity="0" fill="#248814"/><path d="M603.38 382.18c-.15-.17-.34-.25-.56-.25h-5.15v-5.58c-.03-2.54-.96-4.7-2.84-6.4-1.9-1.84-4.15-2.75-6.77-2.75-2.65 0-4.9.83-6.8 2.62-1.9 1.7-2.87 3.87-2.9 6.4v5.66h-5.15c-.24 0-.43.1-.58.25-.16.17-.22.34-.22.6V408c0 .43.34.8.8.8h29.6c.46 0 .8-.37.8-.8v-25.28c0-.2-.06-.38-.22-.54zm-23.46-5.9c.03-2.13.8-3.88 2.37-5.3 1.6-1.5 3.52-2.2 5.73-2.2 2.22 0 4.12.75 5.7 2.25 1.54 1.4 2.32 3.2 2.32 5.32v5.58H579.9zm22.1 30.94h-28.03v-23.7h28z" stroke="#fff" stroke-opacity="0" fill="#fff"/><path d="M587.2 397.3v6.25h1.6v-6.23c2.13-.4 3.62-2.2 3.63-4.35 0-2.43-1.97-4.4-4.4-4.43-2.2-.03-4.06 1.5-4.44 3.68-.42 2.4 1.2 4.68 3.6 5.1zm.82-7.15c.78 0 1.44.27 2 .82.54.56.82 1.22.8 2 .03 1.55-1.2 2.8-2.74 2.82h-.06c-1.56.1-2.92-1.06-3.04-2.62-.12-1.56 1.05-2.93 2.6-3.03.16-.02.28-.02.44 0z" stroke="#fff" stroke-opacity="0" fill="#fff"/><use xlink:href="#a" transform="matrix(1,0,0,1,631,380) translate(0 10.666666666666668)"/><use xlink:href="#b" transform="matrix(1,0,0,1,631,380) translate(39.92592592592593 10.666666666666668)"/><path d="M1330 352c16.57 0 30 13.43 30 30v348c0 16.57-13.43 30-30 30H870c-16.57 0-30-13.43-30-30V382c0-16.57 13.43-30 30-30z" stroke="#000" stroke-width="2" fill-opacity="0"/><path d="M866.88 332h6.08v22h-6.08v-22z" fill="#146eb4"/><path d="M860.48 342.4h37.76v23.2h-37.76v-23.2zM866.88 332c.64-6.8 6.08-12 12.48-12 6.72 0 12.16 5.2 12.8 12h-6.08s-.32-6.4-6.72-6.4c-6.4 0-6.4 6.4-6.4 6.4h-6.08z" fill="#146eb4"/><path d="M886.08 332h6.08v22h-6.08v-22z" fill="#146eb4"/><use xlink:href="#c" transform="matrix(1,0,0,1,840,730) translate(216.83333333333331 14.666666666666668)"/><use xlink:href="#d" transform="matrix(1,0,0,1,840,730) translate(261.94444444444446 14.666666666666668)"/><path d="M840 590c0-16.57 13.43-30 30-30h460c16.57 0 30 13.43 30 30v140c0 16.57-13.43 30-30 30H870c-16.57 0-30-13.43-30-30z" fill-opacity="0"/><path d="M855.04 564.1l3.17-1.7 4.72-1.56 4.93-.76L870 560h15.33m15.34 0h30.66m15.34 0h30.66m15.34 0h30.66m15.34 0h30.66m15.34 0h30.66m15.34 0h30.66m15.34 0h30.66m15.34 0h30.66m15.34 0h30.66m15.34 0H1330l5 .42 4.82 1.22 4.54 2 .6.42m10.95 10.98l1.7 3.17 1.56 4.72.76 4.93.08 2.15v15.56m0 15.55v31.12m0 15.56v31.1m0 15.56V730l-.42 5-1.22 4.82-2 4.54-.42.6m-10.98 10.95l-3.17 1.7-4.72 1.56-4.93.76-2.15.08h-15.33m-15.34 0h-30.66m-15.34 0h-30.66m-15.34 0h-30.66m-15.34 0h-30.66m-15.34 0h-30.66m-15.34 0h-30.66m-15.34 0h-30.66m-15.34 0h-30.66m-15.34 0h-30.66m-15.34 0H870l-5-.42-4.82-1.22-4.54-2-.6-.42m-10.95-10.98l-1.7-3.17-1.56-4.72-.76-4.93L840 730v-15.56m0-15.55v-31.12m0-15.56v-31.1m0-15.56V590l.42-5 1.22-4.82 2-4.54.42-.6" stroke="#f7981f" stroke-width="3" fill="none"/><path d="M840 390c0-16.57 13.43-30 30-30h460c16.57 0 30 13.43 30 30v140c0 16.57-13.43 30-30 30H870c-16.57 0-30-13.43-30-30z" fill-opacity="0"/><path d="M855.04 364.1l3.17-1.7 4.72-1.56 4.93-.76L870 360h15.33m15.34 0h30.66m15.34 0h30.66m15.34 0h30.66m15.34 0h30.66m15.34 0h30.66m15.34 0h30.66m15.34 0h30.66m15.34 0h30.66m15.34 0h30.66m15.34 0H1330l5 .42 4.82 1.22 4.54 2 .6.42m10.95 10.98l1.7 3.17 1.56 4.72.76 4.93.08 2.15v15.56m0 15.55v31.12m0 15.56v31.1m0 15.56V530l-.42 5-1.22 4.82-2 4.54-.42.6m-10.98 10.95l-3.17 1.7-4.72 1.56-4.93.76-2.15.08h-15.33m-15.34 0h-30.66m-15.34 0h-30.66m-15.34 0h-30.66m-15.34 0h-30.66m-15.34 0h-30.66m-15.34 0h-30.66m-15.34 0h-30.66m-15.34 0h-30.66m-15.34 0h-30.66m-15.34 0H870l-5-.42-4.82-1.22-4.54-2-.6-.42m-10.95-10.98l-1.7-3.17-1.56-4.72-.76-4.93L840 530v-15.56m0-15.55v-31.12m0-15.56v-31.1m0-15.56V390l.42-5 1.22-4.82 2-4.54.42-.6" stroke="#f7981f" stroke-width="3" fill="none"/><path d="M973.76 503.58h52.48c13.76 0 13.76 0 13.76 13.14v50.13c0 13.14 0 13.14-13.76 13.14h-52.48C960 580 960 580 960 566.84v-50.13c0-13.14 0-13.14 13.76-13.14z" fill="#9d5025"/><path d="M973.76 500h52.48c13.76 0 13.76 0 13.76 13.14v50.13c0 13.15 0 13.15-13.76 13.15h-52.48c-13.76 0-13.76 0-13.76-13.15v-50.13C960 500 960 500 973.76 500z" fill="#f58536"/><use xlink:href="#e" transform="matrix(1,0,0,1,960,580) translate(0.018518518518519045 12.666666666666668)"/><use xlink:href="#f" transform="matrix(1,0,0,1,960,580) translate(29.611111111111114 12.666666666666668)"/><path d="M924.27 385.34l-4.27 2.3v64.72l4.27 2.3 16.88-33.35-16.88-35.96zM937.3 397.02l6.3-9.56 28.27 13.46-6.6 1.12-27.96-5.02zM932.42 443.65l6.94 10.23 32.5-15.03-6.26-1.05-33.18 5.85z" fill="#9d5025"/><path d="M934.26 452.15l-9.98 2.5v-69.3l9.98 2.42v64.38z" fill="#f58536"/><path d="M929 382.8l5.26-2.8 9.88 44.48-9.88 35.52-5.25-2.8v-74.4zM965.24 437.73l6.63 1.1 6.07-18.12-6.07-19.78-6.63 1.14v35.67z" fill="#9d5025"/><path d="M944.46 456.88l-10.2 3.12v-80l10.2 3.12v73.76z" fill="#f58536"/><path d="M978.83 437.44l-44.57 8.9v13.65l44.57-13.5v-9.06zM978.9 402.34l-44.64-9.1V380l44.65 13.56v8.78z" fill="#f58536"/><path d="M971.88 391.43l7.16 2.12v52.94l-7.16 2.1v-57.17z" fill="#f58536"/><path d="M1000 413l-19.2.97-6.76-.5 19.4-16.73 6.55 16.26z" fill="#6b3a19"/><path d="M974.04 413.47l19.38-1.17v-15.56l-19.38 3.36v13.37z" fill="#9d5025"/><path d="M955.8 412.15l19.65-21.2 9.98 20.5-20.36 1.38-9.27-.68z" fill="#6b3a19"/><path d="M955.8 412.17l19.64-1.78v-19.45l-19.64 4.92v16.3zM974.04 426.8l25.95.48-6.57 16.25-19.4-3.37V426.8z" fill="#9d5025"/><path d="M955.8 428.1l29.63.73-9.98 20.5-19.65-4.93v-16.3z" fill="#9d5025"/><path d="M955.8 428.1l19.65 1.8 9.98-1.07-20.36-1.4-9.27.67zM1000 427.27l-19.2-.96-6.76.5 19.4 1.18 6.55-.7z" fill="#fbbf93"/><path d="M993.43 412.3l6.56.7v-14.17l-6.57-2.1v15.56zM985.42 411.45l-9.98-1.07v-19.43l9.98 3.22v17.28zM993.43 427.97l6.56-.7v14.16l-6.57 2.1v-15.56zM985.42 428.83l-9.98 1.07v19.4l9.98-3.18v-17.3z" fill="#f58536"/><use xlink:href="#g" transform="matrix(1,0,0,1,920,460) translate(1.8888888888888857 10.666666666666668)"/><use xlink:href="#h" transform="matrix(1,0,0,1,920,460) translate(50.74074074074074 10.666666666666668)"/><use xlink:href="#i" transform="matrix(1,0,0,1,920,460) translate(18.944444444444443 26.666666666666668)"/><path d="M1090 500h80v80h-80v-80z" stroke="#fff" stroke-opacity="0" stroke-width="2" fill="#d86613"/><path d="M1129.76 568.74c-.2 0-.4-.06-.53-.18l-24.28-13.97c-.4-.24-.58-.6-.58-1v-28.35c0-.4.2-.74.58-.97l22.33-12.9c.44-.33 1.12-.16 1.46.3.15.23.2.46.2.7v12.3c0 .34-.2.7-.54.92l-11.2 6.38v14.9l12.6 7.25 11-6.4c.35-.22.74-.22 1.08 0l10.56 6.1c.38.18.58.53.58 1 0 .4-.2.74-.58.9l-22.14 12.83c-.15.12-.34.18-.54.18zm-23.2-15.88l23.8 13.75 20.42-11.84-8.5-4.9-11.35 6.57c-.4.17-.78.17-1.17 0l-14.15-8.17c-.38-.23-.58-.57-.58-.98V531.4c0-.4.2-.74.6-.97l11.13-6.38v-9.78L1106.5 526z" stroke="#fff" stroke-opacity="0" stroke-width="2" fill="#fff"/><path d="M1154.48 552.27c-.23 0-.4-.04-.57-.17l-10.57-6.1c-.37-.2-.56-.53-.56-.98v-12.9l-11.17-6.43c-.37-.2-.57-.58-.57-1v-12.28c0-.4.2-.77.57-.94.32-.2.7-.2 1.06 0l22.4 12.86c.38.2.57.57.57.98v25.76c0 .45-.2.78-.56.98-.2.12-.37.2-.6.2zm-9.55-7.95l8.54 4.92v-23.22l-20.27-11.7v9.7l11.2 6.5c.36.2.58.54.56 1z" stroke="#fff" stroke-opacity="0" stroke-width="2" fill="#fff"/><use xlink:href="#g" transform="matrix(1,0,0,1,1060,589) translate(7.851851851851848 13.166666666666668)"/><use xlink:href="#j" transform="matrix(1,0,0,1,1060,589) translate(56.7037037037037 13.166666666666668)"/><use xlink:href="#k" transform="matrix(1,0,0,1,1060,589) translate(87.77777777777777 13.166666666666668)"/><path d="M1200 513.6h120V575h-120v-61.4z" fill="#9d5025"/><path d="M1200 508h120v61.4h-120V508z" fill="#f58536"/><path d="M1225.92 511.67h5.65v54.08h-5.65v-54.08zM1236.34 511.67h5.65v54.08h-5.66v-54.08zM1246.75 511.67h5.65v54.08h-5.65v-54.08zM1205.1 511.67h5.64v54.08h-5.65v-54.08zM1215.5 511.67h5.66v54.08h-5.66v-54.08zM1257.17 511.67h5.65v54.08h-5.65v-54.08zM1267.58 511.67h5.66v54.08h-5.66v-54.08zM1278 511.67h5.65v54.08H1278v-54.08zM1288.4 511.67h5.66v54.08h-5.66v-54.08zM1298.82 511.67h5.65v54.08h-5.65v-54.08zM1309.24 511.67h5.65v54.08h-5.66v-54.08z" fill="#fbbf93"/><path d="M1206.56 513.13h4.2v52.62h-4.2v-52.62zM1216.98 513.13h4.2v52.62h-4.2v-52.62zM1227.4 513.13h4.18v52.62h-4.18v-52.62zM1237.8 513.13h4.2v52.62h-4.2v-52.62zM1248.22 513.13h4.18v52.62h-4.18v-52.62zM1258.63 513.13h4.2v52.62h-4.2v-52.62zM1269.05 513.13h4.2v52.62h-4.2v-52.62zM1279.46 513.13h4.2v52.62h-4.2v-52.62zM1289.88 513.13h4.2v52.62h-4.2v-52.62zM1300.3 513.13h4.18v52.62h-4.18v-52.62zM1310.7 513.13h4.2v52.62h-4.2v-52.62z" fill="#fff"/><use xlink:href="#g" transform="matrix(1,0,0,1,1200,575) translate(6.351851851851848 12.666666666666668)"/><use xlink:href="#j" transform="matrix(1,0,0,1,1200,575) translate(55.2037037037037 12.666666666666668)"/><use xlink:href="#l" transform="matrix(1,0,0,1,1200,575) translate(86.27777777777777 12.666666666666668)"/><path d="M742.5 500.38c0 15.9-14 28.8-31.25 28.8S680 516.3 680 500.4s14-28.82 31.25-28.82 31.25 12.9 31.25 28.82z" fill="#9d5025"/><path d="M742.5 498.02c0 15.9-14 28.8-31.25 28.8S680 513.93 680 498.03s14-28.82 31.25-28.82 31.25 12.9 31.25 28.82z" fill="#f58536"/><path d="M719.7 484.63h3.3v26.75h-3.3v-26.75zM728.98 491.4l8.62 6.48-8.63 6.74v-13.2z" fill="#fff"/><path d="M698.47 496.5l1.9 1.4-2.1 1.63h32.15v-3.03h-31.95zM698.27 486.16H723v-3.04h-24.53l1.88 1.4-2.08 1.64zM700.35 511.28l-2.08 1.62H723v-3.03h-24.53l1.88 1.4zM691.4 492.72l6.9 5.18-6.9 5.4v-10.58zM691.4 479.35l6.9 5.18-6.9 5.4v-10.58zM691.4 506.1l6.9 5.18-6.9 5.4V506.1z" fill="#fff"/><use xlink:href="#m" transform="matrix(1,0,0,1,680,529.2) translate(3.296296296296294 10.666666666666668)"/><use xlink:href="#n" transform="matrix(1,0,0,1,680,529.2) translate(34.37037037037037 10.666666666666668)"/><use xlink:href="#o" transform="matrix(1,0,0,1,680,529.2) translate(6.703703703703702 26.666666666666668)"/><path d="M680 500.38c0 15.9-14 28.8-31.25 28.8s-31.25-12.9-31.25-28.8 14-28.82 31.25-28.82S680 484.46 680 500.38z" fill="#9d5025"/><path d="M680 498.02c0 15.9-14 28.8-31.25 28.8s-31.25-12.9-31.25-28.8 14-28.82 31.25-28.82S680 482.1 680 498.02z" fill="#f58536"/><path d="M657.2 484.63h3.3v26.75h-3.3v-26.75zM666.48 491.4l8.62 6.48-8.63 6.74v-13.2z" fill="#fff"/><path d="M635.97 496.5l1.9 1.4-2.1 1.63h32.15v-3.03h-31.95zM635.77 486.16h24.73v-3.04h-24.53l1.88 1.4-2.08 1.64zM637.85 511.28l-2.08 1.62h24.73v-3.03h-24.53l1.88 1.4zM628.9 492.72l6.9 5.18-6.9 5.4v-10.58zM628.9 479.35l6.9 5.18-6.9 5.4v-10.58zM628.9 506.1l6.9 5.18-6.9 5.4V506.1z" fill="#fff"/><use xlink:href="#m" transform="matrix(1,0,0,1,617.5,529.2) translate(3.296296296296294 10.666666666666668)"/><use xlink:href="#n" transform="matrix(1,0,0,1,617.5,529.2) translate(34.37037037037037 10.666666666666668)"/><use xlink:href="#o" transform="matrix(1,0,0,1,617.5,529.2) translate(6.703703703703702 26.666666666666668)"/><path d="M600 488.4c0-16.57 13.43-30 30-30h20c16.57 0 30 13.43 30 30V530c0 16.57-13.43 30-30 30h-20c-16.57 0-30-13.43-30-30z" fill-opacity="0"/><path d="M615.04 462.5l3.17-1.7 4.72-1.56 4.93-.76 2.15-.08h20l5 .42 4.82 1.22 4.54 2 .6.42m10.95 10.98l1.7 3.17 1.56 4.72.76 4.93.08 2.15v13.87m0 13.86V530l-.42 5-1.22 4.82-2 4.54-.42.6m-10.98 10.95l-3.17 1.7-4.72 1.56-4.93.76-2.15.08h-20l-5-.42-4.82-1.22-4.54-2-.6-.42m-10.95-10.98l-1.7-3.17-1.56-4.72-.76-4.93L600 530v-13.87m0-13.86V488.4l.42-5 1.22-4.82 2-4.54.42-.6" stroke="#f7981f" stroke-width="3" fill="none"/><path d="M680 488.4c0-16.57 13.43-30 30-30h20c16.57 0 30 13.43 30 30V530c0 16.57-13.43 30-30 30h-20c-16.57 0-30-13.43-30-30z" fill-opacity="0"/><path d="M695.04 462.5l3.17-1.7 4.72-1.56 4.93-.76 2.15-.08h20l5 .42 4.82 1.22 4.54 2 .6.42m10.95 10.98l1.7 3.17 1.56 4.72.76 4.93.08 2.15v13.87m0 13.86V530l-.42 5-1.22 4.82-2 4.54-.42.6m-10.98 10.95l-3.17 1.7-4.72 1.56-4.93.76-2.15.08h-20l-5-.42-4.82-1.22-4.54-2-.6-.42m-10.95-10.98l-1.7-3.17-1.56-4.72-.76-4.93L680 530v-13.87m0-13.86V488.4l.42-5 1.22-4.82 2-4.54.42-.6" stroke="#f7981f" stroke-width="3" fill="none"/><path d="M760 583.75c-22.08 0-40 17.92-40 40s17.92 40 40 40 40-17.92 40-40-17.92-40-40-40zm0 76.8c-20.32 0-36.8-16.48-36.8-36.8 0-20.32 16.48-36.8 36.8-36.8 20.32 0 36.8 16.48 36.8 36.8 0 20.32-16.48 36.8-36.8 36.8z" stroke="#fff" stroke-opacity="0" stroke-width="3" fill="#693cc5"/><path d="M745.6 633.35h-16c-.9 0-1.6-.7-1.6-1.6v-16c0-.9.7-1.6 1.6-1.6h16c.9 0 1.6.7 1.6 1.6v16c0 .9-.7 1.6-1.6 1.6zm-14.4-3.2H744v-12.8h-12.8zM782.4 612.55h-9.6c-.88 0-1.6-.72-1.6-1.6v-9.6c0-.88.72-1.6 1.6-1.6h9.6c.88 0 1.6.72 1.6 1.6v9.6c0 .88-.72 1.6-1.6 1.6zm-8-3.2h6.4v-6.4h-6.4zM782.4 630.15h-9.6c-.88 0-1.6-.72-1.6-1.6v-9.6c0-.88.72-1.6 1.6-1.6h9.6c.88 0 1.6.72 1.6 1.6v9.6c0 .88-.72 1.6-1.6 1.6zm-8-3.2h6.4v-6.4h-6.4zM782.4 647.75h-9.6c-.88 0-1.6-.72-1.6-1.6v-9.6c0-.88.72-1.6 1.6-1.6h9.6c.88 0 1.6.72 1.6 1.6v9.6c0 .88-.72 1.6-1.6 1.6zm-8-3.2h6.4v-6.4h-6.4zM769.13 624.88l-5.38 5.38-2.27-2.25 2.65-2.65H750.4v-3.2h13.73l-2.65-2.66 2.27-2.26 5.38 5.38c.63.62.63 1.62.02 2.26h-.02zM768.25 606.97l-1.98 7.35-3.06-.84 1.02-3.8-14.2 7.48-1.48-2.82 13.86-7.3-3.45-.9.83-3.2 7.36 2c.86.2 1.37 1.1 1.13 1.95 0 0 0 .04-.02.07zM767.14 642.5l-7.35 2.05-.86-3.2 3.45-.94-13.87-7.3 1.48-2.82 14.2 7.5-1-3.76 3.1-.83 1.97 7.34c.24.84-.28 1.73-1.13 1.95z" stroke="#fff" stroke-opacity="0" stroke-width="3" fill="#693cc5"/><use xlink:href="#p" transform="matrix(1,0,0,1,690,672.75) translate(0.8333333333333286 13.166666666666668)"/><use xlink:href="#q" transform="matrix(1,0,0,1,690,672.75) translate(53.31481481481482 13.166666666666668)"/><use xlink:href="#r" transform="matrix(1,0,0,1,690,672.75) translate(86.64814814814815 13.166666666666668)"/><path d="M420 583.75h80v80h-80v-80z" stroke="#fff" stroke-opacity="0" fill="#693cc5"/><path d="M469.2 648.46l-1.9-1c1.1-2 1.8-3.8 2.44-6.02l2.05.6c-.7 2.36-1.45 4.27-2.6 6.42zm2-19.52c-.38-6.28-2.16-11.5-5.62-16.72l1.77-1.15c3.7 5.52 5.58 11.1 5.98 17.72zm-14.07-25.75c-1.63-1.22-3.1-2.12-4.93-3.03l.97-1.9c1.95.95 3.5 1.9 5.25 3.2zM465.86 631.64c-3.53-3.5-7.2-5.82-11.9-7.47l.66-2.02c5 1.76 8.92 4.2 12.7 7.95zM474.66 644.38c-.4-1.07-.85-2.05-1.34-3.04l1.9-.95c.57 1.1 1 2.04 1.43 3.2z" stroke="#fff" stroke-opacity="0" fill="#fff"/><path d="M468.6 648.98l-.67-2.02c2.7-.9 4.83-2.06 7.07-3.8l1.3 1.68c-2.43 1.9-4.76 3.15-7.7 4.14zM434.7 623.22l-.5-2.07c2.5-.6 4.66-.9 7.23-.95l.05 2.13c-2.4.05-4.44.32-6.78.9zM452.2 616.43l-1.8-1.16c1.65-2.68 3.38-4.74 5.73-6.83l1.4 1.62c-2.2 1.95-3.8 3.87-5.34 6.37zM468.05 603.78l-.72-2c1.7-.64 3.17-1.06 4.94-1.4l.4 2.12c-1.66.32-3.04.7-4.62 1.28zM446.93 646.68c-1.83-4.25-2.67-8.16-2.74-12.8.03-1.78.23-3.3.65-5.03l.24-1.15 2.12.4-.23 1.2c-.4 1.57-.6 2.95-.63 4.6.05 4.33.83 8.02 2.54 12.02z" stroke="#fff" stroke-opacity="0" fill="#fff"/><path d="M460 650.42c-14.72 0-26.67-11.97-26.67-26.65 0-.6 0-1.07.06-1.66.68-11.36 8.04-20.65 18.97-23.9 7.2-2.15 14.14-1.4 20.64 2.28 12.86 7.2 17.45 23.45 10.25 36.32-1.8 3.26-3.95 5.77-6.93 8.06-4.9 3.74-10.13 5.56-16.32 5.56zm0-51.22c-2.5 0-4.64.32-7 1.07-10.07 3.04-16.84 11.54-17.48 22 0 .54-.05 1.02-.05 1.5 0 13.5 10.98 24.5 24.53 24.5 2.83 0 5.23-.36 7.9-1.32 2.7-.9 4.84-2.03 7.08-3.8 6.24-4.8 9.55-11.53 9.55-19.38 0-13.57-11-24.57-24.53-24.57z" stroke="#fff" stroke-opacity="0" fill="#fff"/><path d="M462.6 611.4c-2.62 0-4.73-2.1-4.73-4.72 0-2.6 2.1-4.72 4.72-4.72 2.6 0 4.72 2.1 4.72 4.72 0 2.62-2.1 4.73-4.72 4.73zm0-7.3c-1.44 0-2.6 1.17-2.6 2.6 0 1.43 1.16 2.58 2.6 2.58 1.42 0 2.58-1.15 2.58-2.6 0-1.4-1.16-2.58-2.6-2.58zM448.04 626.3c-2.6 0-4.72-2.13-4.72-4.74 0-2.6 2.1-4.72 4.72-4.72 2.6 0 4.73 2.1 4.73 4.72 0 2.6-2.12 4.72-4.73 4.73zm0-7.33c-1.42 0-2.6 1.17-2.6 2.6 0 1.42 1.18 2.58 2.6 2.58 1.43 0 2.6-1.16 2.6-2.6 0-1.44-1.17-2.6-2.6-2.6zM471.5 639.96c-2.6 0-4.73-2.1-4.74-4.7 0-2.62 2.1-4.74 4.72-4.75 2.6 0 4.72 2.12 4.73 4.73v.02c0 2.6-2.1 4.7-4.7 4.7zm0-7.3c-1.44 0-2.6 1.16-2.6 2.6 0 1.42 1.16 2.58 2.6 2.58 1.42 0 2.58-1.16 2.58-2.6 0-1.42-1.16-2.58-2.58-2.58z" stroke="#fff" stroke-opacity="0" fill="#fff"/><use xlink:href="#s" transform="matrix(1,0,0,1,390,672.75) translate(10.833333333333329 13.166666666666668)"/><use xlink:href="#t" transform="matrix(1,0,0,1,390,672.75) translate(63.38888888888888 13.166666666666668)"/><path d="M501 623.75h200.5" stroke="#000" stroke-width="2" fill="none"/><path d="M501.03 624.75H500v-2h1.03z"/><path d="M716.76 623.75l-14.26 4.64v-9.3z" stroke="#000" stroke-width="2"/><path d="M220 583.75h80v80h-80v-80z" stroke="#fff" stroke-opacity="0" fill="#693cc5"/><path d="M249.1 629.56c1.43.5 2.7.73 4.2.78.94.08 1.78-.16 2.56-.72.62-.58.92-1.3.88-2.13.08-.88-.2-1.66-.83-2.3-.83-.55-1.7-.76-2.7-.7-1.22.03-2.24.1-3.42.23v-1.5l.4-6.6h8.04v1.78H252l-.3 4.48c.75-.14 1.4-.2 2.15-.2 1.4-.1 2.64.32 3.7 1.24.97.94 1.43 2.12 1.35 3.46.05 1.38-.5 2.6-1.55 3.5-1.22.95-2.57 1.4-4.12 1.33-1.53 0-2.8-.26-4.2-.88zM266.54 623.15h.4c1.3-.1 2.48.28 3.5 1.14.9.84 1.34 1.93 1.27 3.18.05 1.37-.5 2.56-1.57 3.43-1.25.95-2.6 1.37-4.17 1.3-1.47 0-2.73-.3-4.08-.88v-1.76c1.38.5 2.62.73 4.08.78.97.07 1.8-.18 2.58-.74.64-.56.95-1.3.9-2.13 0-1.78-1.12-2.67-3.36-2.67-.75 0-1.4.03-2.14.1v-1.44l4.63-5.04h-6.46v-1.8h8.97v1.74z" stroke="#fff" stroke-opacity="0" fill="#fff"/><path d="M260 644.02c-.2 0-.38-.04-.55-.16-3.62-2.13-7.03-3.44-11.17-4.26-2.26-.4-9.6-2.14-9.6-7.47 0-2.4.95-4.02 2.14-6.04 1.83-2.73 2.77-5.5 2.9-8.77 0-3.16-.8-5.8-2.56-8.45-.25-.4-.2-.87.1-1.26l1.7-2.13c.33-.4.9-.53 1.36-.25 2.3 1.34 4.52 1.94 7.2 1.97 2.94.04 5.46-.75 7.85-2.48.38-.28.9-.28 1.23 0 2.43 1.73 4.95 2.52 7.9 2.48 2.63-.03 4.9-.67 7.2-1.97.46-.28 1.02-.16 1.36.24l1.7 2.12c.3.35.35.87.1 1.26-1.76 2.6-2.53 5.3-2.57 8.45 0 3.8 1.53 6.4 2.9 8.76 1.18 2 2.12 3.63 2.12 6.03 0 5.33-7.33 7.07-9.6 7.47-4.13.82-7.54 2.1-11.16 4.26-.17.12-.34.16-.55.16zM243.4 608.3c1.66 2.83 2.43 5.64 2.43 8.9 0 4.4-1.74 7.43-3.2 9.84-1.06 1.9-1.78 3.16-1.78 4.98 0 3.8 6.52 5.17 7.8 5.4 4.22.83 7.63 2.14 11.34 4.27 3.7-2.14 7.17-3.45 11.34-4.28 1.33-.23 7.85-1.6 7.85-5.4 0-1.82-.73-3.08-1.83-4.98-1.4-2.4-3.2-5.45-3.2-9.83.04-3.26.8-6.07 2.5-8.9l-.67-.84c-2.4 1.23-4.73 1.82-7.46 1.82-3.17.04-5.85-.7-8.54-2.45-2.64 1.74-5.37 2.5-8.52 2.45-2.73 0-5.04-.6-7.47-1.82z" stroke="#fff" stroke-opacity="0" fill="#fff"/><path d="M260.02 650.42c-.27 0-.48-.06-.7-.22-3.78-2.7-7.45-4.37-11.98-5.33-8.8-1.6-14.02-6.45-14.02-12.84.1-3.25.96-6.02 2.83-8.74 1.17-2 2.13-3.7 2.13-6.04-.1-3.25-1.44-5.97-3.9-8.15-.47-.3-.58-1-.2-1.48.05 0 .05-.06.05-.06 0-.1 6.3-7.62 7.73-9.54.16-.32.48-.48.8-.48.37 0 .63.1.9.38 2.03 2.4 4.64 3.73 7.83 3.9 2.98 0 5.32-1.35 7.56-4.28.43-.48 1.17-.58 1.65-.16l.17.16c2.24 3 4.6 4.27 7.57 4.27 3.2-.15 5.8-1.5 7.83-3.88.27-.27.54-.38.9-.38.33 0 .65.16.8.48 1.45 1.92 7.68 9.44 7.74 9.54.17.22.27.48.22.8 0 .32-.16.54-.37.75-2.45 2.2-3.8 4.9-3.9 8.16 0 2.35 1.02 4.05 2.14 6.03 1.85 2.7 2.7 5.48 2.8 8.73 0 6.4-5.2 11.24-14 12.84-4.53.96-8.2 2.56-12 5.33-.15.1-.37.22-.58.22zm-23.4-42.27c2.56 2.56 3.84 5.54 3.9 9.1 0 2.95-1.23 5.08-2.45 7.16-1.28 2.3-2.5 4.38-2.5 7.68 0 7.78 9.32 10.08 12.14 10.6 4.65.97 8.43 2.57 12.32 5.23 3.84-2.65 7.62-4.25 12.26-5.2 2.82-.54 12.15-2.84 12.15-10.62 0-3.3-1.23-5.33-2.5-7.67-1.23-2.13-2.46-4.26-2.46-7.14.06-3.57 1.33-6.55 3.9-9.1-1.45-1.72-4.64-5.6-6.35-7.8-2.4 2.35-5.22 3.58-8.53 3.7-3.47 0-6.4-1.45-8.53-4.12-2.2 2.67-5.12 4.1-8.58 4.1-3.32-.1-6.14-1.33-8.54-3.67-1.54 2.18-4.8 6.07-6.23 7.78z" stroke="#fff" stroke-opacity="0" fill="#fff"/><use xlink:href="#s" transform="matrix(1,0,0,1,190,672.75) translate(16.70370370370371 13.166666666666668)"/><use xlink:href="#u" transform="matrix(1,0,0,1,190,672.75) translate(69.25925925925927 13.166666666666668)"/><use xlink:href="#v" transform="matrix(1,0,0,1,190,672.75) translate(108.48148148148148 13.166666666666668)"/><path d="M301 623.75h100.5" stroke="#000" stroke-width="2" fill="none"/><path d="M301.03 624.75H300v-2h1.03z"/><path d="M416.76 623.75l-14.26 4.64v-9.3z" stroke="#000" stroke-width="2"/><path d="M895.87 546.18c0 15.9-12.5 28.8-27.93 28.8-15.42 0-27.94-12.9-27.94-28.8s12.52-28.82 27.94-28.82c15.42 0 27.93 12.9 27.93 28.82z" fill="#9d5025"/><path d="M840 543.8h55.87v2.38H840v-2.37z" fill="#9d5025"/><path d="M895.87 543.82c0 15.9-12.5 28.8-27.93 28.8-15.42 0-27.94-12.9-27.94-28.8S852.52 515 867.94 515c15.42 0 27.93 12.9 27.93 28.82z" fill="#f58536"/><path d="M848.88 531.5v2.13h2.55v22.73h-2.55v2.13h4.92v-27h-4.92zM886.98 534.45h-30.96v17.82h3.04v3.6h13.15v-3.6H877v3.6h5.73v-3.6H887v-17.82z" fill="#fff"/><path d="M859.36 537.07h23.8v12.42h-23.8v-12.43z" fill="#d9a741"/><path d="M861.9 539.03h8.26v8.33h-8.26v-8.33zM872.7 539.03h8.25v8.33h-8.25v-8.33z" fill="#fff"/><g><use xlink:href="#w" transform="matrix(1,0,0,1,840,575) translate(16.90740740740741 12.666666666666668)"/></g><path d="M895.45 555h5.05" stroke="#000" stroke-width="2" fill="none"/><path d="M895.48 556h-1.3l.54-2h.76z"/><path d="M915.76 555l-14.26 4.64v-9.28z" stroke="#000" stroke-width="2"/><path d="M801 623.75h18.5v-70.52h1" stroke="#000" stroke-width="2" fill="none"/><path d="M801.03 624.75h-1.07l.04-1-.06-1h1.1z"/><path d="M835.76 553.23l-14.26 4.63v-9.27z" stroke="#000" stroke-width="2"/><defs><path fill="#248814" d="M30-248c87 1 191-15 191 75 0 78-77 80-158 76V0H30v-248zm33 125c57 0 124 11 124-50 0-59-68-47-124-48v98" id="x"/><path fill="#248814" d="M84 4C-5 8 30-112 23-190h32v120c0 31 7 50 39 49 72-2 45-101 50-169h31l1 190h-30c-1-10 1-25-2-33-11 22-28 36-60 37" id="y"/><path fill="#248814" d="M115-194c53 0 69 39 70 98 0 66-23 100-70 100C84 3 66-7 56-30L54 0H23l1-261h32v101c10-23 28-34 59-34zm-8 174c40 0 45-34 45-75 0-40-5-75-45-74-42 0-51 32-51 76 0 43 10 73 51 73" id="z"/><path fill="#248814" d="M24 0v-261h32V0H24" id="A"/><path fill="#248814" d="M24-231v-30h32v30H24zM24 0v-190h32V0H24" id="B"/><path fill="#248814" d="M96-169c-40 0-48 33-48 73s9 75 48 75c24 0 41-14 43-38l32 2c-6 37-31 61-74 61-59 0-76-41-82-99-10-93 101-131 147-64 4 7 5 14 7 22l-32 3c-4-21-16-35-41-35" id="C"/><g id="a"><use transform="matrix(0.03703703703703704,0,0,0.03703703703703704,0,0)" xlink:href="#x"/><use transform="matrix(0.03703703703703704,0,0,0.03703703703703704,8.88888888888889,0)" xlink:href="#y"/><use transform="matrix(0.03703703703703704,0,0,0.03703703703703704,16.296296296296298,0)" xlink:href="#z"/><use transform="matrix(0.03703703703703704,0,0,0.03703703703703704,23.703703703703706,0)" xlink:href="#A"/><use transform="matrix(0.03703703703703704,0,0,0.03703703703703704,26.629629629629633,0)" xlink:href="#B"/><use transform="matrix(0.03703703703703704,0,0,0.03703703703703704,29.55555555555556,0)" xlink:href="#C"/></g><path fill="#248814" d="M185-189c-5-48-123-54-124 2 14 75 158 14 163 119 3 78-121 87-175 55-17-10-28-26-33-46l33-7c5 56 141 63 141-1 0-78-155-14-162-118-5-82 145-84 179-34 5 7 8 16 11 25" id="D"/><path fill="#248814" d="M117-194c89-4 53 116 60 194h-32v-121c0-31-8-49-39-48C34-167 62-67 57 0H25l-1-190h30c1 10-1 24 2 32 11-22 29-35 61-36" id="E"/><path fill="#248814" d="M100-194c63 0 86 42 84 106H49c0 40 14 67 53 68 26 1 43-12 49-29l28 8c-11 28-37 45-77 45C44 4 14-33 15-96c1-61 26-98 85-98zm52 81c6-60-76-77-97-28-3 7-6 17-6 28h103" id="F"/><path fill="#248814" d="M59-47c-2 24 18 29 38 22v24C64 9 27 4 27-40v-127H5v-23h24l9-43h21v43h35v23H59v120" id="G"/><g id="b"><use transform="matrix(0.03703703703703704,0,0,0.03703703703703704,0,0)" xlink:href="#D"/><use transform="matrix(0.03703703703703704,0,0,0.03703703703703704,8.88888888888889,0)" xlink:href="#y"/><use transform="matrix(0.03703703703703704,0,0,0.03703703703703704,16.296296296296298,0)" xlink:href="#z"/><use transform="matrix(0.03703703703703704,0,0,0.03703703703703704,23.703703703703706,0)" xlink:href="#E"/><use transform="matrix(0.03703703703703704,0,0,0.03703703703703704,31.111111111111114,0)" xlink:href="#F"/><use transform="matrix(0.03703703703703704,0,0,0.03703703703703704,38.51851851851851,0)" xlink:href="#G"/></g><path d="M30-248c87 1 191-15 191 75 0 78-77 80-158 76V0H30v-248zm33 125c57 0 124 11 124-50 0-59-68-47-124-48v98" id="H"/><path d="M114-163C36-179 61-72 57 0H25l-1-190h30c1 12-1 29 2 39 6-27 23-49 58-41v29" id="I"/><path d="M24-231v-30h32v30H24zM24 0v-190h32V0H24" id="J"/><path d="M108 0H70L1-190h34L89-25l56-165h34" id="K"/><path d="M141-36C126-15 110 5 73 4 37 3 15-17 15-53c-1-64 63-63 125-63 3-35-9-54-41-54-24 1-41 7-42 31l-33-3c5-37 33-52 76-52 45 0 72 20 72 64v82c-1 20 7 32 28 27v20c-31 9-61-2-59-35zM48-53c0 20 12 33 32 33 41-3 63-29 60-74-43 2-92-5-92 41" id="L"/><path d="M59-47c-2 24 18 29 38 22v24C64 9 27 4 27-40v-127H5v-23h24l9-43h21v43h35v23H59v120" id="M"/><path d="M100-194c63 0 86 42 84 106H49c0 40 14 67 53 68 26 1 43-12 49-29l28 8c-11 28-37 45-77 45C44 4 14-33 15-96c1-61 26-98 85-98zm52 81c6-60-76-77-97-28-3 7-6 17-6 28h103" id="N"/><g id="c"><use transform="matrix(0.03703703703703704,0,0,0.03703703703703704,0,0)" xlink:href="#H"/><use transform="matrix(0.03703703703703704,0,0,0.03703703703703704,8.88888888888889,0)" xlink:href="#I"/><use transform="matrix(0.03703703703703704,0,0,0.03703703703703704,13.296296296296298,0)" xlink:href="#J"/><use transform="matrix(0.03703703703703704,0,0,0.03703703703703704,16.222222222222225,0)" xlink:href="#K"/><use transform="matrix(0.03703703703703704,0,0,0.03703703703703704,22.888888888888893,0)" xlink:href="#L"/><use transform="matrix(0.03703703703703704,0,0,0.03703703703703704,30.2962962962963,0)" xlink:href="#M"/><use transform="matrix(0.03703703703703704,0,0,0.03703703703703704,34.00000000000001,0)" xlink:href="#N"/></g><path d="M185-189c-5-48-123-54-124 2 14 75 158 14 163 119 3 78-121 87-175 55-17-10-28-26-33-46l33-7c5 56 141 63 141-1 0-78-155-14-162-118-5-82 145-84 179-34 5 7 8 16 11 25" id="O"/><path d="M84 4C-5 8 30-112 23-190h32v120c0 31 7 50 39 49 72-2 45-101 50-169h31l1 190h-30c-1-10 1-25-2-33-11 22-28 36-60 37" id="P"/><path d="M115-194c53 0 69 39 70 98 0 66-23 100-70 100C84 3 66-7 56-30L54 0H23l1-261h32v101c10-23 28-34 59-34zm-8 174c40 0 45-34 45-75 0-40-5-75-45-74-42 0-51 32-51 76 0 43 10 73 51 73" id="Q"/><path d="M117-194c89-4 53 116 60 194h-32v-121c0-31-8-49-39-48C34-167 62-67 57 0H25l-1-190h30c1 10-1 24 2 32 11-22 29-35 61-36" id="R"/><g id="d"><use transform="matrix(0.03703703703703704,0,0,0.03703703703703704,0,0)" xlink:href="#O"/><use transform="matrix(0.03703703703703704,0,0,0.03703703703703704,8.88888888888889,0)" xlink:href="#P"/><use transform="matrix(0.03703703703703704,0,0,0.03703703703703704,16.296296296296298,0)" xlink:href="#Q"/><use transform="matrix(0.03703703703703704,0,0,0.03703703703703704,23.703703703703706,0)" xlink:href="#R"/><use transform="matrix(0.03703703703703704,0,0,0.03703703703703704,31.111111111111114,0)" xlink:href="#N"/><use transform="matrix(0.03703703703703704,0,0,0.03703703703703704,38.51851851851851,0)" xlink:href="#M"/></g><path d="M30 0v-248h187v28H63v79h144v27H63v87h162V0H30" id="S"/><path d="M212-179c-10-28-35-45-73-45-59 0-87 40-87 99 0 60 29 101 89 101 43 0 62-24 78-52l27 14C228-24 195 4 139 4 59 4 22-46 18-125c-6-104 99-153 187-111 19 9 31 26 39 46" id="T"/><path d="M101-251c82-7 93 87 43 132L82-64C71-53 59-42 53-27h129V0H18c2-99 128-94 128-182 0-28-16-43-45-43s-46 15-49 41l-32-3c6-41 34-60 81-64" id="U"/><g id="e"><use transform="matrix(0.03703703703703704,0,0,0.03703703703703704,0,0)" xlink:href="#S"/><use transform="matrix(0.03703703703703704,0,0,0.03703703703703704,8.88888888888889,0)" xlink:href="#T"/><use transform="matrix(0.03703703703703704,0,0,0.03703703703703704,18.48148148148148,0)" xlink:href="#U"/></g><path d="M33 0v-248h34V0H33" id="V"/><path d="M135-143c-3-34-86-38-87 0 15 53 115 12 119 90S17 21 10-45l28-5c4 36 97 45 98 0-10-56-113-15-118-90-4-57 82-63 122-42 12 7 21 19 24 35" id="W"/><path d="M96-169c-40 0-48 33-48 73s9 75 48 75c24 0 41-14 43-38l32 2c-6 37-31 61-74 61-59 0-76-41-82-99-10-93 101-131 147-64 4 7 5 14 7 22l-32 3c-4-21-16-35-41-35" id="X"/><g id="f"><use transform="matrix(0.03703703703703704,0,0,0.03703703703703704,0,0)" xlink:href="#V"/><use transform="matrix(0.03703703703703704,0,0,0.03703703703703704,3.703703703703704,0)" xlink:href="#R"/><use transform="matrix(0.03703703703703704,0,0,0.03703703703703704,11.111111111111112,0)" xlink:href="#W"/><use transform="matrix(0.03703703703703704,0,0,0.03703703703703704,17.77777777777778,0)" xlink:href="#M"/><use transform="matrix(0.03703703703703704,0,0,0.03703703703703704,21.48148148148148,0)" xlink:href="#L"/><use transform="matrix(0.03703703703703704,0,0,0.03703703703703704,28.88888888888889,0)" xlink:href="#R"/><use transform="matrix(0.03703703703703704,0,0,0.03703703703703704,36.2962962962963,0)" xlink:href="#X"/><use transform="matrix(0.03703703703703704,0,0,0.03703703703703704,42.96296296296296,0)" xlink:href="#N"/></g><path d="M153-248C145-148 188 4 80 4 36 3 13-21 6-62l32-5c4 25 16 42 43 43 27 0 39-20 39-49v-147H72v-28h81" id="Y"/><path d="M143 0L79-87 56-68V0H24v-261h32v163l83-92h37l-77 82L181 0h-38" id="Z"/><g id="g"><use transform="matrix(0.03703703703703704,0,0,0.03703703703703704,0,0)" xlink:href="#Y"/><use transform="matrix(0.03703703703703704,0,0,0.03703703703703704,6.666666666666668,0)" xlink:href="#N"/><use transform="matrix(0.03703703703703704,0,0,0.03703703703703704,14.074074074074076,0)" xlink:href="#R"/><use transform="matrix(0.03703703703703704,0,0,0.03703703703703704,21.481481481481485,0)" xlink:href="#Z"/><use transform="matrix(0.03703703703703704,0,0,0.03703703703703704,28.148148148148152,0)" xlink:href="#J"/><use transform="matrix(0.03703703703703704,0,0,0.03703703703703704,31.07407407407408,0)" xlink:href="#R"/><use transform="matrix(0.03703703703703704,0,0,0.03703703703703704,38.48148148148149,0)" xlink:href="#W"/></g><g id="h"><use transform="matrix(0.03703703703703704,0,0,0.03703703703703704,0,0)" xlink:href="#S"/><use transform="matrix(0.03703703703703704,0,0,0.03703703703703704,8.88888888888889,0)" xlink:href="#T"/><use transform="matrix(0.03703703703703704,0,0,0.03703703703703704,18.48148148148148,0)" xlink:href="#O"/></g><path d="M24 0v-261h32V0H24" id="aa"/><g id="i"><use transform="matrix(0.03703703703703704,0,0,0.03703703703703704,0,0)" xlink:href="#T"/><use transform="matrix(0.03703703703703704,0,0,0.03703703703703704,9.592592592592593,0)" xlink:href="#aa"/><use transform="matrix(0.03703703703703704,0,0,0.03703703703703704,12.518518518518517,0)" xlink:href="#P"/><use transform="matrix(0.03703703703703704,0,0,0.03703703703703704,19.925925925925927,0)" xlink:href="#W"/><use transform="matrix(0.03703703703703704,0,0,0.03703703703703704,26.592592592592595,0)" xlink:href="#M"/><use transform="matrix(0.03703703703703704,0,0,0.03703703703703704,30.296296296296298,0)" xlink:href="#N"/><use transform="matrix(0.03703703703703704,0,0,0.03703703703703704,37.70370370370371,0)" xlink:href="#I"/></g><g id="j"><use transform="matrix(0.03703703703703704,0,0,0.03703703703703704,0,0)" xlink:href="#S"/><use transform="matrix(0.03703703703703704,0,0,0.03703703703703704,8.88888888888889,0)" xlink:href="#T"/><use transform="matrix(0.03703703703703704,0,0,0.03703703703703704,18.48148148148148,0)" xlink:href="#O"/></g><g id="k"><use transform="matrix(0.03703703703703704,0,0,0.03703703703703704,0,0)" xlink:href="#O"/><use transform="matrix(0.03703703703703704,0,0,0.03703703703703704,8.88888888888889,0)" xlink:href="#N"/><use transform="matrix(0.03703703703703704,0,0,0.03703703703703704,16.296296296296298,0)" xlink:href="#I"/><use transform="matrix(0.03703703703703704,0,0,0.03703703703703704,20.703703703703706,0)" xlink:href="#K"/><use transform="matrix(0.03703703703703704,0,0,0.03703703703703704,27.370370370370374,0)" xlink:href="#J"/><use transform="matrix(0.03703703703703704,0,0,0.03703703703703704,30.2962962962963,0)" xlink:href="#X"/><use transform="matrix(0.03703703703703704,0,0,0.03703703703703704,36.96296296296297,0)" xlink:href="#N"/></g><path d="M127-220V0H93v-220H8v-28h204v28h-85" id="ab"/><g id="l"><use transform="matrix(0.03703703703703704,0,0,0.03703703703703704,0,0)" xlink:href="#ab"/><use transform="matrix(0.03703703703703704,0,0,0.03703703703703704,6.629629629629631,0)" xlink:href="#L"/><use transform="matrix(0.03703703703703704,0,0,0.03703703703703704,14.037037037037038,0)" xlink:href="#W"/><use transform="matrix(0.03703703703703704,0,0,0.03703703703703704,20.703703703703706,0)" xlink:href="#Z"/></g><path d="M137 0h-34L2-248h35l83 218 83-218h36" id="ac"/><g id="m"><use transform="matrix(0.03703703703703704,0,0,0.03703703703703704,0,0)" xlink:href="#ac"/><use transform="matrix(0.03703703703703704,0,0,0.03703703703703704,8.88888888888889,0)" xlink:href="#H"/><use transform="matrix(0.03703703703703704,0,0,0.03703703703703704,17.77777777777778,0)" xlink:href="#T"/></g><path d="M190 0L58-211 59 0H30v-248h39L202-35l-2-213h31V0h-41" id="ad"/><path d="M205 0l-28-72H64L36 0H1l101-248h38L239 0h-34zm-38-99l-47-123c-12 45-31 82-46 123h93" id="ae"/><g id="n"><use transform="matrix(0.03703703703703704,0,0,0.03703703703703704,0,0)" xlink:href="#ad"/><use transform="matrix(0.03703703703703704,0,0,0.03703703703703704,9.592592592592593,0)" xlink:href="#ae"/><use transform="matrix(0.03703703703703704,0,0,0.03703703703703704,17.48148148148148,0)" xlink:href="#ab"/></g><path d="M177-190C167-65 218 103 67 71c-23-6-38-20-44-43l32-5c15 47 100 32 89-28v-30C133-14 115 1 83 1 29 1 15-40 15-95c0-56 16-97 71-98 29-1 48 16 59 35 1-10 0-23 2-32h30zM94-22c36 0 50-32 50-73 0-42-14-75-50-75-39 0-46 34-46 75s6 73 46 73" id="af"/><path d="M206 0h-36l-40-164L89 0H53L-1-190h32L70-26l43-164h34l41 164 42-164h31" id="ag"/><path d="M179-190L93 31C79 59 56 82 12 73V49c39 6 53-20 64-50L1-190h34L92-34l54-156h33" id="ah"/><g id="o"><use transform="matrix(0.03703703703703704,0,0,0.03703703703703704,0,0)" xlink:href="#af"/><use transform="matrix(0.03703703703703704,0,0,0.03703703703703704,7.407407407407408,0)" xlink:href="#L"/><use transform="matrix(0.03703703703703704,0,0,0.03703703703703704,14.814814814814817,0)" xlink:href="#M"/><use transform="matrix(0.03703703703703704,0,0,0.03703703703703704,18.51851851851852,0)" xlink:href="#N"/><use transform="matrix(0.03703703703703704,0,0,0.03703703703703704,25.92592592592593,0)" xlink:href="#ag"/><use transform="matrix(0.03703703703703704,0,0,0.03703703703703704,35.51851851851852,0)" xlink:href="#L"/><use transform="matrix(0.03703703703703704,0,0,0.03703703703703704,42.925925925925924,0)" xlink:href="#ah"/></g><path d="M100-194c62-1 85 37 85 99 1 63-27 99-86 99S16-35 15-95c0-66 28-99 85-99zM99-20c44 1 53-31 53-75 0-43-8-75-51-75s-53 32-53 75 10 74 51 75" id="ai"/><g id="p"><use transform="matrix(0.03703703703703704,0,0,0.03703703703703704,0,0)" xlink:href="#ad"/><use transform="matrix(0.03703703703703704,0,0,0.03703703703703704,9.592592592592593,0)" xlink:href="#N"/><use transform="matrix(0.03703703703703704,0,0,0.03703703703703704,17,0)" xlink:href="#M"/><use transform="matrix(0.03703703703703704,0,0,0.03703703703703704,20.703703703703702,0)" xlink:href="#ag"/><use transform="matrix(0.03703703703703704,0,0,0.03703703703703704,30.296296296296298,0)" xlink:href="#ai"/><use transform="matrix(0.03703703703703704,0,0,0.03703703703703704,37.70370370370371,0)" xlink:href="#I"/><use transform="matrix(0.03703703703703704,0,0,0.03703703703703704,42.111111111111114,0)" xlink:href="#Z"/></g><path d="M30 0v-248h33v221h125V0H30" id="aj"/><path d="M85-194c31 0 48 13 60 33l-1-100h32l1 261h-30c-2-10 0-23-3-31C134-8 116 4 85 4 32 4 16-35 15-94c0-66 23-100 70-100zm9 24c-40 0-46 34-46 75 0 40 6 74 45 74 42 0 51-32 51-76 0-42-9-74-50-73" id="ak"/><g id="q"><use transform="matrix(0.03703703703703704,0,0,0.03703703703703704,0,0)" xlink:href="#aj"/><use transform="matrix(0.03703703703703704,0,0,0.03703703703703704,7.407407407407408,0)" xlink:href="#ai"/><use transform="matrix(0.03703703703703704,0,0,0.03703703703703704,14.814814814814817,0)" xlink:href="#L"/><use transform="matrix(0.03703703703703704,0,0,0.03703703703703704,22.222222222222225,0)" xlink:href="#ak"/></g><path d="M160-131c35 5 61 23 61 61C221 17 115-2 30 0v-248c76 3 177-17 177 60 0 33-19 50-47 57zm-97-11c50-1 110 9 110-42 0-47-63-36-110-37v79zm0 115c55-2 124 14 124-45 0-56-70-42-124-44v89" id="al"/><g id="r"><use transform="matrix(0.03703703703703704,0,0,0.03703703703703704,0,0)" xlink:href="#al"/><use transform="matrix(0.03703703703703704,0,0,0.03703703703703704,8.88888888888889,0)" xlink:href="#L"/><use transform="matrix(0.03703703703703704,0,0,0.03703703703703704,16.296296296296298,0)" xlink:href="#aa"/><use transform="matrix(0.03703703703703704,0,0,0.03703703703703704,19.222222222222225,0)" xlink:href="#L"/><use transform="matrix(0.03703703703703704,0,0,0.03703703703703704,26.629629629629633,0)" xlink:href="#R"/><use transform="matrix(0.03703703703703704,0,0,0.03703703703703704,34.03703703703704,0)" xlink:href="#X"/><use transform="matrix(0.03703703703703704,0,0,0.03703703703703704,40.70370370370371,0)" xlink:href="#N"/><use transform="matrix(0.03703703703703704,0,0,0.03703703703703704,48.111111111111114,0)" xlink:href="#I"/></g><path d="M210-169c-67 3-38 105-44 169h-31v-121c0-29-5-50-35-48C34-165 62-65 56 0H25l-1-190h30c1 10-1 24 2 32 10-44 99-50 107 0 11-21 27-35 58-36 85-2 47 119 55 194h-31v-121c0-29-5-49-35-48" id="am"/><path d="M9 0v-24l116-142H16v-24h144v24L44-24h123V0H9" id="an"/><g id="s"><use transform="matrix(0.03703703703703704,0,0,0.03703703703703704,0,0)" xlink:href="#ae"/><use transform="matrix(0.03703703703703704,0,0,0.03703703703703704,8.88888888888889,0)" xlink:href="#am"/><use transform="matrix(0.03703703703703704,0,0,0.03703703703703704,19.962962962962965,0)" xlink:href="#L"/><use transform="matrix(0.03703703703703704,0,0,0.03703703703703704,27.370370370370374,0)" xlink:href="#an"/><use transform="matrix(0.03703703703703704,0,0,0.03703703703703704,34.03703703703704,0)" xlink:href="#ai"/><use transform="matrix(0.03703703703703704,0,0,0.03703703703703704,41.44444444444444,0)" xlink:href="#R"/></g><path d="M63-220v92h138v28H63V0H30v-248h175v28H63" id="ao"/><g id="t"><use transform="matrix(0.03703703703703704,0,0,0.03703703703703704,0,0)" xlink:href="#T"/><use transform="matrix(0.03703703703703704,0,0,0.03703703703703704,9.592592592592593,0)" xlink:href="#aa"/><use transform="matrix(0.03703703703703704,0,0,0.03703703703703704,12.518518518518517,0)" xlink:href="#ai"/><use transform="matrix(0.03703703703703704,0,0,0.03703703703703704,19.925925925925927,0)" xlink:href="#P"/><use transform="matrix(0.03703703703703704,0,0,0.03703703703703704,27.333333333333336,0)" xlink:href="#ak"/><use transform="matrix(0.03703703703703704,0,0,0.03703703703703704,34.74074074074075,0)" xlink:href="#ao"/><use transform="matrix(0.03703703703703704,0,0,0.03703703703703704,42.85185185185187,0)" xlink:href="#I"/><use transform="matrix(0.03703703703703704,0,0,0.03703703703703704,47.25925925925927,0)" xlink:href="#ai"/><use transform="matrix(0.03703703703703704,0,0,0.03703703703703704,54.66666666666667,0)" xlink:href="#R"/><use transform="matrix(0.03703703703703704,0,0,0.03703703703703704,62.074074074074076,0)" xlink:href="#M"/></g><path d="M233-177c-1 41-23 64-60 70L243 0h-38l-65-103H63V0H30v-248c88 3 205-21 203 71zM63-129c60-2 137 13 137-47 0-61-80-42-137-45v92" id="ap"/><g id="u"><use transform="matrix(0.03703703703703704,0,0,0.03703703703703704,0,0)" xlink:href="#ap"/><use transform="matrix(0.03703703703703704,0,0,0.03703703703703704,9.592592592592593,0)" xlink:href="#ai"/><use transform="matrix(0.03703703703703704,0,0,0.03703703703703704,17,0)" xlink:href="#P"/><use transform="matrix(0.03703703703703704,0,0,0.03703703703703704,24.407407407407405,0)" xlink:href="#M"/><use transform="matrix(0.03703703703703704,0,0,0.03703703703703704,28.111111111111114,0)" xlink:href="#N"/></g><path d="M54-142c48-35 137-8 131 61C196 18 31 33 14-55l32-4c7 23 22 37 52 37 35-1 51-22 54-58 4-55-73-65-99-34H22l8-134h141v27H59" id="aq"/><path d="M126-127c33 6 58 20 58 59 0 88-139 92-164 29-3-8-5-16-6-25l32-3c6 27 21 44 54 44 32 0 52-15 52-46 0-38-36-46-79-43v-28c39 1 72-4 72-42 0-27-17-43-46-43-28 0-47 15-49 41l-32-3c6-42 35-63 81-64 48-1 79 21 79 65 0 36-21 52-52 59" id="ar"/><g id="v"><use transform="matrix(0.03703703703703704,0,0,0.03703703703703704,0,0)" xlink:href="#aq"/><use transform="matrix(0.03703703703703704,0,0,0.03703703703703704,7.407407407407408,0)" xlink:href="#ar"/></g><g id="w"><use transform="matrix(0.03703703703703704,0,0,0.03703703703703704,0,0)" xlink:href="#S"/><use transform="matrix(0.03703703703703704,0,0,0.03703703703703704,8.88888888888889,0)" xlink:href="#ad"/><use transform="matrix(0.03703703703703704,0,0,0.03703703703703704,18.48148148148148,0)" xlink:href="#V"/></g></defs></g></svg>