<svg xmlns="http://www.w3.org/2000/svg" xmlns:xlink="http://www.w3.org/1999/xlink" xmlns:lucid="lucid" width="1523" height="1123"><g transform="translate(-18.5 81.5)" lucid:page-tab-id="0_0"><path d="M0-1258.84h1870.87v2581.68H0z" fill="#fff"/><path d="M380 810.22a6 6 0 0 1 6-6h848a6 6 0 0 1 6 6v213.1a6 6 0 0 1-6 6H386a6 6 0 0 1-6-6zM320 286a6 6 0 0 1 6-6h1108a6 6 0 0 1 6 6v208a6 6 0 0 1-6 6H326a6 6 0 0 1-6-6z" stroke="#5e5e5e" stroke-width="3" fill="#fff"/><use xlink:href="#a" transform="matrix(1,0,0,1,325,285) translate(0 17.77777777777778)"/><path d="M340 494.6v1.82c0 3.32-3.64 6.74-8.08 6.74h-23.84c-4.44 0-8.08-3.42-8.08-6.74v-1.82z" fill="#9d5125"/><path d="M315.4 476.83c4.12 0 7.6 2.27 9.32 6.03 2.36-1.62 5.6-1.02 7.2 1.37.6.84.88 1.7.92 2.73 4.04.35 7.16 4.26 7.16 7.37v.68c0 3.34-3.64 6.73-8.08 6.73h-23.84c-4.44 0-8.08-3.4-8.08-6.73v-.67c0-2.6 2.16-6.12 5.16-7v-.3c.04-5.64 4.6-10.22 10.24-10.2z" fill="#f58535"/><path d="M310.02 488.77l-2.67 9.4h1.56l.6-2.28h2.77l.56 2.27h1.57l-2.45-9.4zm-.24 5.9l1.14-4.65 1.07 4.64zM321.13 496.1h-.02l-1.26-7.33h-1.58l-1.24 7.3H317l-1.23-7.3h-1.52l1.8 9.4h1.75l1.2-7.07h.03l1.2 7.07h1.74l1.87-9.4h-1.48l-1.23 7.34zM328.67 493.04l-1.02-.37c-1-.36-1.4-.8-1.4-1.6-.1-.65.37-1.25 1.03-1.34h.23c.65-.1 1.24.36 1.32 1 .02.13.02.23 0 .35v.2h1.5v-.2c0-.98-.25-2.48-2.65-2.48-1.77 0-2.93.94-2.93 2.66 0 1.35.57 2.05 1.96 2.57l1.03.37c.82.1 1.4.82 1.35 1.65.02.74-.56 1.36-1.3 1.38h-.13c-1.03 0-1.53-.58-1.53-1.72v-.23h-1.5v.22c0 1.3.53 2.85 2.84 2.85 1.9 0 3.1-.83 3.1-2.83.03-1.3-.56-2-1.9-2.48z" fill="#fff"/><path d="M20 226a6 6 0 0 1 6-6h1508a6 6 0 0 1 6 6v808a6 6 0 0 1-6 6H26a6 6 0 0 1-6-6z" fill-opacity="0"/><path d="M36.45 220h8.96m5.98 0h8.96m5.97 0h8.97m5.97 0h8.96m5.97 0h8.96m5.98 0h8.96m5.98 0H135m5.97 0h8.96m5.97 0h8.95m5.98 0h8.96m5.96 0h8.96m5.97 0h8.95m5.97 0h8.96m5.97 0h8.96m5.98 0h8.96m5.97 0h8.97m5.97 0h8.96m5.97 0h8.96m5.97 0h8.96m5.97 0h8.96m5.96 0h8.96m5.98 0h8.95m5.98 0h8.95m5.98 0h8.96m5.97 0h8.95m5.97 0h8.96m5.97 0h8.96m5.98 0h8.96m5.97 0h8.97m5.97 0h8.96m5.97 0h8.96m5.97 0h8.96m5.97 0h8.96m5.96 0h8.96m5.98 0h8.95m5.98 0h8.95m5.98 0h8.95m6 0h8.95m5.97 0h8.96m5.97 0h8.96m5.98 0h8.96m5.97 0h8.97m5.97 0h8.96m5.97 0h8.96m5.97 0h8.96m5.97 0h8.96m5.96 0h8.96m5.97 0h8.95m5.98 0h8.95m5.97 0H777m6 0h8.95m5.97 0h8.96m5.97 0h8.96m5.98 0h8.96m5.97 0h8.97m5.97 0h8.96m5.97 0h8.96m5.97 0h8.96m5.97 0h8.96m5.96 0h8.96m5.97 0h8.95m5.97 0h8.96m5.97 0h8.96m6 0h8.94m5.98 0h8.95m5.98 0h8.95m5.98 0h8.96m5.97 0h8.97m5.97 0h8.96m5.97 0h8.96m5.97 0h8.96m5.97 0h8.96m5.96 0h8.96m5.97 0h8.95m5.97 0h8.96m5.97 0h8.96m5.98 0h8.96m5.97 0h8.97m5.98 0h8.95m5.98 0h8.95m5.98 0h8.96m5.98 0h8.96m5.97 0h8.96m5.97 0h8.96m5.97 0h8.96m5.96 0h8.96m5.97 0h8.95m5.97 0h8.96m5.97 0h8.96m5.98 0h8.96m5.97 0h8.97m5.97 0h8.96m5.98 0h8.95m5.98 0h8.96m5.98 0h8.95m5.97 0h8.96m5.97 0h8.96m5.97 0h8.96m5.96 0h8.96m5.97 0h8.95m5.97 0h4.48a6 6 0 0 1 6 6v4.5m0 5.97v8.98m0 6v8.97m0 5.98v8.98m0 5.98v8.98m0 6v8.96m0 6v8.97m0 5.98v8.98m0 5.98v9m0 5.98v8.98m0 5.98v8.98m0 5.98v8.98m0 6v8.96m0 6V425m0 6v8.97m0 6v8.96m0 6v8.97m0 5.98v8.98m0 5.98v8.98m0 6v8.96m0 6v8.97m0 5.98v8.98m0 6v8.97m0 6v8.97m0 5.98v8.98m0 6v8.96m0 6v8.97m0 5.98v9m0 5.97v8.98m0 6v8.96m0 6v8.98m0 5.98v8.98m0 6v8.96m0 6v8.97m0 5.98v8.98m0 6v8.96m0 5.98v8.98m0 5.98v8.98m0 5.98v8.98m0 6v8.96m0 6V829m0 6v8.97m0 6v8.96m0 6v8.97m0 5.98v8.98m0 5.98v8.98m0 6v8.96m0 6v8.97m0 5.98v8.98m0 6v8.97m0 6v8.97m0 5.98v8.98m0 6v8.96m0 6v8.97m0 5.98v4.5a6 6 0 0 1-6 6h-4.48m-5.97 0h-8.96m-5.98 0h-8.96m-5.97 0h-8.97m-5.97 0h-8.96m-5.97 0h-8.96m-5.97 0h-8.96m-5.98 0H1425m-5.97 0h-8.95m-5.98 0h-8.95m-5.98 0h-8.96m-5.96 0h-8.96m-5.97 0h-8.95m-5.97 0h-8.96m-5.97 0h-8.96m-5.98 0h-8.96m-5.97 0h-8.97m-5.97 0h-8.96m-5.97 0h-8.96m-5.97 0h-8.96m-5.97 0h-8.96m-5.97 0h-8.95m-5.98 0h-8.95m-5.98 0h-8.95m-5.98 0h-8.96m-5.97 0h-8.95m-5.97 0h-8.96m-5.97 0h-8.96m-5.98 0h-8.96m-5.97 0h-8.97m-5.97 0h-8.96m-5.97 0h-8.96m-5.97 0h-8.96m-5.97 0h-8.96m-5.96 0h-8.96m-5.98 0h-8.95m-5.98 0h-8.95m-5.98 0h-8.95m-6 0h-8.95m-5.97 0h-8.96m-5.97 0h-8.96m-5.98 0h-8.96m-5.97 0h-8.97m-5.97 0h-8.96m-5.97 0h-8.96m-5.97 0h-8.96m-5.97 0h-8.96m-5.96 0h-8.96m-5.97 0h-8.95m-5.98 0h-8.95m-5.97 0H783m-6 0h-8.95m-5.97 0h-8.96m-5.97 0h-8.96m-5.98 0h-8.96m-5.97 0h-8.97m-5.97 0h-8.96m-5.97 0h-8.96m-5.97 0h-8.96m-5.97 0h-8.96m-5.96 0h-8.96m-5.97 0h-8.95m-5.97 0h-8.96m-5.97 0h-8.96m-6 0h-8.94m-5.98 0h-8.95m-5.98 0h-8.95m-5.98 0h-8.96m-5.97 0h-8.97m-5.97 0h-8.96m-5.97 0h-8.96m-5.97 0h-8.96m-5.97 0h-8.96m-5.96 0h-8.96m-5.97 0h-8.95m-5.97 0h-8.96m-5.97 0h-8.96m-5.98 0h-8.96m-5.98 0h-8.95m-5.98 0H350m-5.98 0h-8.95m-5.98 0h-8.97m-5.97 0h-8.96m-5.97 0h-8.96m-5.97 0h-8.96m-5.97 0h-8.96m-5.96 0h-8.96m-5.97 0h-8.95m-5.97 0h-8.96m-5.97 0h-8.96m-5.98 0h-8.96m-5.97 0h-8.97m-5.98 0h-8.95m-5.97 0h-8.96m-5.98 0h-8.96m-5.98 0h-8.95m-5.97 0h-8.96m-5.97 0h-8.96m-5.97 0H66.3m-5.96 0h-8.96m-5.97 0h-8.95m-5.97 0H26a6 6 0 0 1-6-6v-4.5m0-5.97v-8.98m0-6v-8.96m0-6v-8.98m0-5.98v-8.98m0-6v-8.96m0-6v-8.97m0-5.98v-8.98m0-6v-8.96m0-5.98v-8.98m0-5.98v-8.98m0-5.98v-8.98m0-6v-8.96m0-6V835m0-6v-8.97m0-6v-8.96m0-6v-8.97m0-5.98v-8.98m0-5.98v-8.98m0-6v-8.96m0-6v-8.97m0-5.98v-8.98m0-6v-8.97m0-6v-8.97m0-5.98v-8.98m0-6v-8.96m0-6v-8.97m0-5.98v-9m0-5.97v-8.98m0-6v-8.96m0-6v-8.98m0-5.98v-8.98m0-6v-8.96m0-6v-8.97m0-5.98v-8.98m0-6v-8.96m0-5.98v-8.98m0-5.98v-8.98m0-5.98v-8.98m0-6v-8.96m0-6V431m0-6v-8.97m0-6v-8.96m0-6v-8.97m0-5.98v-8.98m0-5.98v-8.98m0-6v-8.97m0-5.97v-8.98m0-5.98v-8.98m0-6v-8.97m0-6v-8.97m0-5.98v-8.98m0-5.98v-8.98m0-6v-8.97m0-5.98V226a6 6 0 0 1 6-6h4.48" stroke="#5e5e5e" stroke-width="3" fill="none"/><use xlink:href="#b" transform="matrix(1,0,0,1,25,225) translate(0 17.77777777777778)"/><use xlink:href="#c" transform="matrix(1,0,0,1,25,225) translate(51.666666666666664 17.77777777777778)"/><use xlink:href="#d" transform="matrix(1,0,0,1,25,225) translate(107.59259259259258 17.77777777777778)"/><path d="M60 326a6 6 0 0 1 6-6h148a6 6 0 0 1 6 6v108a6 6 0 0 1-6 6H66a6 6 0 0 1-6-6z" stroke="#5e5e5e" stroke-width="3" fill="#fff"/><use xlink:href="#e" transform="matrix(1,0,0,1,65,325) translate(31.172839506172835 59.45746527777778)"/><path d="M80 437.76v1.83c0 3.3-3.64 6.73-8.08 6.73H48.08c-4.44 0-8.08-3.43-8.08-6.74v-1.84z" fill="#9d5125"/><path d="M55.4 420c4.12 0 7.6 2.26 9.32 6.02 2.36-1.6 5.6-1.02 7.2 1.37.6.84.88 1.7.92 2.73 4.04.35 7.16 4.26 7.16 7.37v.67c0 3.34-3.64 6.72-8.08 6.72H48.08c-4.44 0-8.08-3.4-8.08-6.73v-.67c0-2.6 2.16-6.12 5.16-7v-.3c.04-5.64 4.6-10.22 10.24-10.2z" fill="#f58535"/><path d="M50.02 431.94l-2.67 9.4h1.56l.6-2.28h2.77l.56 2.28h1.57l-2.45-9.4zm-.24 5.9l1.14-4.65L52 437.8zM61.13 439.28h-.02l-1.26-7.34h-1.58l-1.24 7.3H57l-1.23-7.3h-1.52l1.8 9.4h1.75l1.2-7.08h.03l1.2 7.08h1.74l1.87-9.4h-1.48l-1.23 7.34zM68.67 436.2l-1.02-.36c-1-.36-1.4-.8-1.4-1.6-.1-.65.37-1.26 1.03-1.34h.22c.65-.1 1.24.36 1.33 1v.55h1.5v-.2c0-.98-.26-2.48-2.66-2.48-1.77 0-2.92.94-2.92 2.66 0 1.34.56 2.04 1.95 2.57l1.03.36c.82.12 1.4.83 1.35 1.66.02.74-.56 1.35-1.3 1.37h-.13c-1.03 0-1.53-.58-1.53-1.72v-.25h-1.5v.23c0 1.3.53 2.85 2.84 2.85 1.9 0 3.1-.8 3.1-2.8.03-1.3-.56-2.02-1.9-2.5z" fill="#fff"/><path d="M560-74a6 6 0 0 1 6-6h448a6 6 0 0 1 6 6V34a6 6 0 0 1-6 6H566a6 6 0 0 1-6-6z" stroke="#5e5e5e" stroke-width="3" fill="#fff"/><use xlink:href="#f" transform="matrix(1,0,0,1,565,-75) translate(33.271604938271594 59.45746527777778)"/><use xlink:href="#g" transform="matrix(1,0,0,1,565,-75) translate(77.6543209876543 59.45746527777778)"/><use xlink:href="#h" transform="matrix(1,0,0,1,565,-75) translate(165.12345679012344 59.45746527777778)"/><use xlink:href="#i" transform="matrix(1,0,0,1,565,-75) translate(256.358024691358 59.45746527777778)"/><use xlink:href="#j" transform="matrix(1,0,0,1,565,-75) translate(294.5679012345679 59.45746527777778)"/><use xlink:href="#k" transform="matrix(1,0,0,1,565,-75) translate(338.95061728395063 59.45746527777778)"/><path d="M580 44.1v1.82c0 3.32-3.64 6.74-8.08 6.74h-23.84c-4.44 0-8.08-3.42-8.08-6.74V44.1z" fill="#9d5125"/><path d="M555.4 26.33c4.12 0 7.6 2.27 9.32 6.03 2.36-1.62 5.6-1.02 7.2 1.37.6.84.88 1.7.92 2.74 4.04.34 7.16 4.25 7.16 7.36v.68c0 3.34-3.64 6.73-8.08 6.73h-23.84c-4.44 0-8.08-3.4-8.08-6.72v-.67c0-2.6 2.16-6.12 5.16-7v-.3c.04-5.64 4.6-10.22 10.24-10.2z" fill="#f58535"/><path d="M550.02 38.27l-2.67 9.4h1.56l.6-2.28h2.77l.56 2.27h1.57l-2.45-9.4zm-.24 5.9l1.14-4.65 1.08 4.64zM561.13 45.6h-.02l-1.26-7.33h-1.58l-1.24 7.3H557l-1.23-7.3h-1.52l1.82 9.4h1.73l1.2-7.07h.03l1.2 7.07h1.74l1.87-9.4h-1.48l-1.23 7.34zM568.67 42.54l-1.02-.37c-1-.36-1.4-.8-1.4-1.6-.1-.65.37-1.25 1.03-1.34h.23c.65-.1 1.24.36 1.33 1v.54h1.5v-.2c0-.98-.26-2.48-2.67-2.48-1.75 0-2.9.95-2.9 2.66 0 1.35.55 2.05 1.94 2.57l1.03.37c.82.1 1.4.82 1.35 1.65.02.74-.56 1.36-1.3 1.38h-.13c-1.03 0-1.53-.58-1.53-1.72v-.23h-1.5V45c0 1.3.53 2.85 2.84 2.85 1.9 0 3.1-.83 3.1-2.83.03-1.3-.56-2-1.9-2.48z" fill="#fff"/><path d="M360 786a6 6 0 0 1 6-6h848a6 6 0 0 1 6 6v208a6 6 0 0 1-6 6H366a6 6 0 0 1-6-6z" stroke="#5e5e5e" stroke-width="3" fill="#fff"/><use xlink:href="#l" transform="matrix(1,0,0,1,365,785) translate(0 208.30052977777777)"/><use xlink:href="#m" transform="matrix(1,0,0,1,365,785) translate(24.691358024691358 208.30052977777777)"/><path d="M380 994.6v1.82c0 3.32-3.64 6.74-8.08 6.74h-23.84c-4.44 0-8.08-3.42-8.08-6.74v-1.82z" fill="#9d5125"/><path d="M355.4 976.83c4.12 0 7.6 2.27 9.32 6.03 2.36-1.62 5.6-1.02 7.2 1.37.6.84.88 1.7.92 2.74 4.04.34 7.16 4.25 7.16 7.36v.67c0 3.34-3.64 6.73-8.08 6.73h-23.84c-4.44 0-8.08-3.4-8.08-6.73v-.67c0-2.6 2.16-6.12 5.16-7v-.3c.04-5.64 4.6-10.22 10.24-10.2z" fill="#f58535"/><path d="M350.02 988.78l-2.67 9.4h1.56l.6-2.3h2.77l.56 2.3h1.57l-2.45-9.4zm-.24 5.9l1.14-4.65 1.07 4.63zM361.13 996.1h-.02l-1.26-7.32h-1.58l-1.24 7.3H357l-1.23-7.3h-1.52l1.8 9.4h1.75l1.2-7.08h.03l1.2 7.07h1.74l1.87-9.4h-1.48l-1.23 7.34zM368.67 993.04l-1.02-.37c-1-.36-1.4-.8-1.4-1.6-.1-.65.37-1.25 1.03-1.34h.23c.65-.1 1.24.36 1.32 1 .02.13.02.23 0 .36v.18h1.5v-.2c0-.98-.25-2.48-2.65-2.48-1.77 0-2.93.94-2.93 2.66 0 1.35.57 2.05 1.96 2.57l1.03.37c.82.1 1.4.82 1.35 1.65.02.74-.56 1.36-1.3 1.38h-.13c-1.03 0-1.53-.58-1.53-1.72v-.23h-1.5v.22c0 1.3.53 2.85 2.84 2.85 1.9 0 3.1-.83 3.1-2.83.03-1.3-.56-2-1.9-2.48z" fill="#fff"/><path d="M340 746a6 6 0 0 1 6-6h848a6 6 0 0 1 6 6v208a6 6 0 0 1-6 6H346a6 6 0 0 1-6-6z" stroke="#5e5e5e" stroke-width="3" fill="#fff"/><use xlink:href="#l" transform="matrix(1,0,0,1,345,745) translate(0 208.30052977777777)"/><use xlink:href="#n" transform="matrix(1,0,0,1,345,745) translate(24.691358024691358 208.30052977777777)"/><path d="M360 954.6v1.82c0 3.32-3.64 6.74-8.08 6.74h-23.84c-4.44 0-8.08-3.42-8.08-6.74v-1.82z" fill="#9d5125"/><path d="M335.4 936.83c4.12 0 7.6 2.27 9.32 6.03 2.36-1.62 5.6-1.02 7.2 1.37.6.84.88 1.7.92 2.74 4.04.34 7.16 4.25 7.16 7.36v.67c0 3.34-3.64 6.73-8.08 6.73h-23.84c-4.44 0-8.08-3.4-8.08-6.73v-.67c0-2.6 2.16-6.12 5.16-7v-.3c.04-5.64 4.6-10.22 10.24-10.2z" fill="#f58535"/><path d="M330.02 948.78l-2.67 9.4h1.56l.6-2.3h2.77l.56 2.3h1.57l-2.45-9.4zm-.24 5.9l1.14-4.65 1.07 4.63zM341.13 956.1h-.02l-1.26-7.32h-1.58l-1.24 7.3H337l-1.23-7.3h-1.52l1.8 9.4h1.75l1.2-7.08h.03l1.2 7.07h1.74l1.87-9.4h-1.48l-1.23 7.34zM348.67 953.04l-1.02-.37c-1-.36-1.4-.8-1.4-1.6-.1-.65.37-1.25 1.03-1.34h.23c.65-.1 1.24.36 1.32 1 .02.13.02.23 0 .36v.18h1.5v-.2c0-.98-.25-2.48-2.65-2.48-1.77 0-2.93.94-2.93 2.66 0 1.35.57 2.05 1.96 2.57l1.03.37c.82.1 1.4.82 1.35 1.65.02.74-.56 1.36-1.3 1.38h-.13c-1.03 0-1.53-.58-1.53-1.72v-.23h-1.5v.22c0 1.3.53 2.85 2.84 2.85 1.9 0 3.1-.83 3.1-2.83.03-1.3-.56-2-1.9-2.48z" fill="#fff"/><path d="M320 706a6 6 0 0 1 6-6h848a6 6 0 0 1 6 6v208a6 6 0 0 1-6 6H326a6 6 0 0 1-6-6z" stroke="#5e5e5e" stroke-width="3" fill="#fff"/><use xlink:href="#l" transform="matrix(1,0,0,1,325,705) translate(0 208.30052977777777)"/><use xlink:href="#o" transform="matrix(1,0,0,1,325,705) translate(24.691358024691358 208.30052977777777)"/><path d="M340 914.6v1.82c0 3.32-3.64 6.74-8.08 6.74h-23.84c-4.44 0-8.08-3.42-8.08-6.74v-1.82z" fill="#9d5125"/><path d="M315.4 896.83c4.12 0 7.6 2.27 9.32 6.03 2.36-1.62 5.6-1.02 7.2 1.37.6.84.88 1.7.92 2.74 4.04.34 7.16 4.25 7.16 7.36v.67c0 3.34-3.64 6.73-8.08 6.73h-23.84c-4.44 0-8.08-3.4-8.08-6.73v-.67c0-2.6 2.16-6.12 5.16-7v-.3c.04-5.64 4.6-10.22 10.24-10.2z" fill="#f58535"/><path d="M310.02 908.78l-2.67 9.4h1.56l.6-2.3h2.77l.56 2.3h1.57l-2.45-9.4zm-.24 5.9l1.14-4.65 1.07 4.63zM321.13 916.1h-.02l-1.26-7.32h-1.58l-1.24 7.3H317l-1.23-7.3h-1.52l1.8 9.4h1.75l1.2-7.08h.03l1.2 7.07h1.74l1.87-9.4h-1.48l-1.23 7.34zM328.67 913.04l-1.02-.37c-1-.36-1.4-.8-1.4-1.6-.1-.65.37-1.25 1.03-1.34h.23c.65-.1 1.24.36 1.32 1 .02.13.02.23 0 .36v.18h1.5v-.2c0-.98-.25-2.48-2.65-2.48-1.77 0-2.93.94-2.93 2.66 0 1.35.57 2.05 1.96 2.57l1.03.37c.82.1 1.4.82 1.35 1.65.02.74-.56 1.36-1.3 1.38h-.13c-1.03 0-1.53-.58-1.53-1.72v-.23h-1.5v.22c0 1.3.53 2.85 2.84 2.85 1.9 0 3.1-.83 3.1-2.83.03-1.3-.56-2-1.9-2.48z" fill="#fff"/><path d="M688.1 200h-1.96v-38h1.95zm0-102h-1.96V42.5h1.95z" stroke="#5e5e5e" stroke-width=".05" fill="#5e5e5e"/><path d="M688.1 42.53h-1.96V41.5h1.95z" fill="#5e5e5e"/><path stroke="#5e5e5e" stroke-width=".05" fill="#5e5e5e"/><path d="M687.1 215.26L682.5 201h9.27z" fill="#5e5e5e"/><path d="M687.1 218.42l-5.97-18.4h11.96zm-3.28-16.45l3.3 10.14 3.28-10.13z" stroke="#5e5e5e" stroke-width=".05" fill="#5e5e5e"/><use xlink:href="#p" transform="matrix(1,0,0,1,654.0740740740739,98) translate(2.424753086419752 14.222222222222223)"/><use xlink:href="#q" transform="matrix(1,0,0,1,654.0740740740739,98) translate(3.017345679012344 35.55555555555556)"/><use xlink:href="#r" transform="matrix(1,0,0,1,654.0740740740739,98) translate(0.005000000000002558 56.88888888888889)"/><path d="M896.98 217.5H895v-66.17H897zm0-108.83H895V60H897z" stroke="#5e5e5e" stroke-width=".05" fill="#5e5e5e"/><path d="M896.98 218.5H895v-1.03H897z" fill="#5e5e5e"/><path stroke="#5e5e5e" stroke-width=".05" fill="#5e5e5e"/><path d="M900.63 59h-9.26L896 44.74z" fill="#5e5e5e"/><path d="M901.98 59.98h-11.96l5.98-18.4zm-9.27-1.95h6.6L896 47.9z" stroke="#5e5e5e" stroke-width=".05" fill="#5e5e5e"/><use xlink:href="#s" transform="matrix(1,0,0,1,852.6666666666665,108.66666666666666) translate(0.005000000000002558 14.222222222222223)"/><use xlink:href="#t" transform="matrix(1,0,0,1,852.6666666666665,108.66666666666666) translate(25.116111111111124 35.55555555555556)"/><path d="M567.25 349.54c0 3.78 13 6.84 29 6.84s29-3.06 29-6.84v-2.7c0 3.72-13 6.78-29 6.78s-29-3-29-6.78z" fill="#8c3123"/><path d="M625.25 352.24v1.35a11.45 11.45 0 0 1-.3 2.65l-9.4 39.2c0 2.5-8.63 4.55-19.3 4.55s-19.3-2.04-19.3-4.56l-9.4-39.2a11.45 11.45 0 0 1-.3-2.65v-1.36l9.7 40.56c0 2.52 8.63 4.5 19.3 4.5s19.3-1.98 19.3-4.5l9.7-40.56z" fill="#8c3123"/><path d="M596.25 340c16 0 29 3.06 29 6.84 0 3.72-13 6.78-29 6.78s-29-3-29-6.78c0-3.78 13-6.84 29-6.84z" fill="#e05243"/><path d="M596.25 358.3c14.9 0 27.2-2.58 28.83-6.06h.08a.07.07 0 0 1 .07.08l-9.67 40.48c0 2.52-8.64 4.5-19.3 4.5-10.68 0-19.32-1.98-19.32-4.5-3.2-13.5-6.33-27.06-9.7-40.56h.18c1.63 3.48 13.92 6.06 28.83 6.06z" fill="#e05243"/><use xlink:href="#u" transform="matrix(1,0,0,1,567.25,400) translate(-2.574074074074069 14.222222222222221)"/><use xlink:href="#v" transform="matrix(1,0,0,1,567.25,400) translate(10.240740740740744 35.55555555555556)"/><path d="M427.6 349.43h21.3v11.8h-21.3zm23.5 0h21.3v11.8h-21.3zm-23.5 15.65h21.3v11.8h-21.3zm23.5 0h21.3v11.8h-21.3zm-23.5 15.64h21.3v11.8h-21.3zm23.5 0h21.3v11.8h-21.3z" fill="#9d5025"/><path d="M427.6 347.65h21.3v11.8h-21.3zm23.5 0h21.3v11.8h-21.3zm-23.5 15.65h21.3v11.8h-21.3zm23.5 0h21.3v11.8h-21.3zm-23.5 15.64h21.3v11.8h-21.3zm23.5 0h21.3v11.8h-21.3z" fill="#f58536"/><path d="M428.9 348.6h1.15v9.9h-1.14zm2.94 0h1.14v9.9h-1.14zm2.9 0h1.15v9.9h-1.15zm2.95 0h1.13v9.9h-1.14zm2.9 0h1.14v9.9h-1.14zm2.92 0h1.14v9.9h-1.14zm2.92 0h1.14v9.9h-1.14zm5.98 0h1.14v9.9h-1.14zm2.92 0h1.14v9.9h-1.14zm2.92 0h1.14v9.9h-1.14zm2.92 0h1.14v9.9h-1.14zm2.92 0h1.14v9.9h-1.14zm2.92 0h1.14v9.9h-1.14zm2.92 0h1.14v9.9h-1.14zm-41.03 15.65h1.15v9.9h-1.14zm2.94 0h1.14v9.9h-1.14zm2.9 0h1.15v9.9h-1.15zm2.95 0h1.13v9.9h-1.14zm2.9 0h1.14v9.9h-1.14zm2.92 0h1.14v9.9h-1.14zm2.92 0h1.14v9.9h-1.14zm5.98 0h1.14v9.9h-1.14zm2.92 0h1.14v9.9h-1.14zm2.92 0h1.14v9.9h-1.14zm2.92 0h1.14v9.9h-1.14zm2.92 0h1.14v9.9h-1.14zm2.92 0h1.14v9.9h-1.14zm2.92 0h1.14v9.9h-1.14zM428.9 379.9h1.15v9.88h-1.14zm2.94 0h1.14v9.88h-1.14zm2.9 0h1.15v9.88h-1.15zm2.95 0h1.13v9.88h-1.14zm2.9 0h1.14v9.88h-1.14zm2.92 0h1.14v9.88h-1.14zm2.92 0h1.14v9.88h-1.14zm5.98 0h1.14v9.88h-1.14zm2.92 0h1.14v9.88h-1.14zm2.92 0h1.14v9.88h-1.14zm2.92 0h1.14v9.88h-1.14zm2.92 0h1.14v9.88h-1.14zm2.92 0h1.14v9.88h-1.14zm2.92 0h1.14v9.88h-1.14z" fill="#fff"/><path d="M420 340h60v63.16h-60zm4.8 4.8v50.56h50.4V344.8z" fill="#9d5025"/><path d="M420 340h60v60.17h-60zm4.8 4.8v50.56h50.4V344.8z" fill="#f58536"/><use xlink:href="#w" transform="matrix(1,0,0,1,420,403.1578947368421) translate(11.283950617283953 14.222222222222221)"/><use xlink:href="#x" transform="matrix(1,0,0,1,420,403.1578947368421) translate(12.246913580246918 35.55555555555556)"/><path d="M415.48 835l-5.26 2.6v-72.05l5.26 2.53z" fill="#f58536"/><path d="M410.22 765.55l-4.77 2.38v67.3l4.77 2.37zM415.48 762.9l5.85-2.9v83.16l-5.85-2.9zM432.7 779.03v-3.1l30.52 5.82-7.35 1.16zM432.7 823.96v2.87l30.52-5.66-6.98-1.1zM455.84 794.14l7.4-.5v16.15l-7.4-.5z" fill="#9d5025"/><path d="M421.33 773.77l11.37 2.15v50.92l-11.37 2.1z" fill="#f58536"/><path d="M421.33 828.95l24-4.47v2.46l18.28 4.28-42.27 11.93zM464.07 772.12l-18.75 4.38v1.84l-24-4.57V760zM463.23 793.65l2.4-.15v1.3l5.57.4v13.07l-5.56.37v1.3l-2.42-.15z" fill="#f58536"/><path d="M494.54 794.3l-21.36 1-7.54-.5 21.6-1.22z" fill="#6b3a19"/><path d="M487.23 777.4v16.18l-21.6 1.23v-1.3l12.7-.8v-13.87z" fill="#9d5025"/><path d="M445.32 793.42l21.88-1.84 11.12 1.12-22.67 1.43z" fill="#6b3a19"/><path d="M445.32 793.44l21.88-1.86v-20.2l-21.88 5.12zM465.64 808.64l21.6 1.23v16.2l-8.93-1.47v-13.84l-12.66-.8zM445.32 810l21.88 1.87v20.2l-21.88-5.13z" fill="#9d5025"/><path d="M445.32 810l21.88 1.87 11.12-1.12-22.67-1.45zM494.54 809.14l-21.36-1-7.54.5 21.6 1.23z" fill="#fbbf93"/><path d="M487.23 793.57l7.3.72v-14.72l-7.3-2.18zM478.3 792.7l-11.1-1.12v-20.2l11.12 3.35zM487.23 809.86l7.3-.72v14.72l-7.3 2.18zM478.3 810.76l-11.1 1.1v20.2l11.12-3.33z" fill="#f58536"/><use xlink:href="#y" transform="matrix(1,0,0,1,405.4511278195489,843.1578947368421) translate(26.75308641975309 14.222222222222221)"/><path d="M380.98 722.1l.06.8.18.78.3.73.42.68.5.6.6.5.68.42.73.3.76.2.84.05h58l1.05.1 1.06.24 1 .4.94.58.83.7.7.85.6.93.4 1 .26 1.08.08 1.05v33.03h-1.96v-32.96l-.06-.83-.18-.76-.3-.73-.42-.67-.5-.6-.6-.5-.68-.43-.73-.3-.76-.18-.84-.07h-58l-1.05-.08-1.06-.26-1-.4-.94-.6-.83-.7-.7-.83-.6-.93-.4-1.02-.26-1.06-.08-1.05V621.85h1.96zm20.52-339.55h-15.46l-.83.07-.75.18-.73.3-.67.42-.6.5-.5.6-.43.68-.3.73-.18.76-.06.82v170.23h-1.96v-170.3l.1-1.06.24-1.08.42-1 .58-.94.7-.84.84-.7.93-.58 1-.42 1.08-.25 1.06-.1h15.54z" stroke="#5e5e5e" stroke-width=".05" fill="#5e5e5e"/><path d="M450.98 768.4l-1.96-.55v-.75h1.96z" fill="#5e5e5e"/><path stroke="#5e5e5e" stroke-width=".05" fill="#5e5e5e"/><path d="M416.76 381.58l-14.26 4.63v-9.26z" fill="#5e5e5e"/><path d="M419.92 381.58l-18.4 5.98V375.6zm-16.45 3.3l10.14-3.3-10.13-3.3z" stroke="#5e5e5e" stroke-width=".05" fill="#5e5e5e"/><use xlink:href="#z" transform="matrix(1,0,0,1,349.4074074074074,557.8534330258731) translate(11.85685185185185 14.222222222222223)"/><use xlink:href="#A" transform="matrix(1,0,0,1,349.4074074074074,557.8534330258731) translate(0.523518518518518 35.55555555555556)"/><use xlink:href="#B" transform="matrix(1,0,0,1,349.4074074074074,557.8534330258731) translate(0.004999999999999005 56.88888888888889)"/><path d="M567.25 832.65l5.66 2.77 10.04-33.78-10.03-33.92-5.65 2.78v62.15z" fill="#9d5025"/><path d="M583.9 770.27l-10.98-2.5v67.65l10.97-2.5v-62.65z" fill="#f58536"/><path d="M579.73 764.38l8.33-4.13 10.38 41.4-10.38 41.24-8.33-4.15v-74.37z" fill="#9d5025"/><path d="M605.1 837.37l-17.04 5.36v-82.48l17.05 5.36v71.77z" fill="#f58536"/><path d="M643.83 774.75h6.8v51.44l-6.8-.37v-51.08z" fill="#9d5025"/><path d="M617.37 775.5l7.66-3.9 25.08 3.15.75 6.6-6.86.94-26.63-6.8z" fill="#6b3a19"/><path d="M617.6 827.65l7.62 3.88 25.84-9.73-6.86-.94-26.6 6.8z" fill="#fbbf93"/><path d="M619.52 816.73l13.65 1.8v-33.9l-13.65 1.8v30.3z" fill="#9d5025"/><path d="M598.44 848l13.33 6.58 11.44-53.1-11.43-52.9-13.33 6.57V848z" fill="#9d5025"/><path d="M611.8 748.58v106l44.54-21.94v-62.12zm38.84 73.35l-25.53 7.53V773.7l25.54 7.53z" fill="#f58536"/><path d="M633.17 784.62v34l14.2-17-14.2-17z" fill="#f58536"/><use xlink:href="#C" transform="matrix(1,0,0,1,567.25,854.5773524720893) translate(12.925925925925931 14.222222222222221)"/><path d="M579 391.42h-61.22a6 6 0 0 0-6 6v198a6 6 0 0 0 6 6h66.47a6 6 0 0 1 6 6V741.5M578.97 391.42H580" stroke="#5e5e5e" stroke-width="2" fill="none"/><path d="M590.25 756.76l-4.64-14.26h9.28z" stroke="#5e5e5e" stroke-width="2" fill="#5e5e5e"/><use xlink:href="#D" transform="matrix(1,0,0,1,500.7809055024966,605.4150692673563) translate(0 14.222222222222223)"/><use xlink:href="#E" transform="matrix(1,0,0,1,500.7809055024966,605.4150692673563) translate(0 35.55555555555556)"/><use xlink:href="#F" transform="matrix(1,0,0,1,500.7809055024966,605.4150692673563) translate(0 56.88888888888889)"/><path d="M762.3 800h61.54v40H762.3z" fill="#876929"/><path d="M762.3 800h61.54v37.27H762.3z" fill="#d9a741"/><path d="M779.38 805.02h6.55v28.1h-6.55zM789.8 805.02h6.54v28.1h-6.55zM800.2 805.02h6.55v28.1h-6.56zM769.9 812.97v12.2l5.6-6.1-5.6-6.1zM810.6 812.97v12.2l5.63-6.1-5.62-6.1z" fill="#fff"/><path d="M875.8 773.24l-6.7-7.3-9.42 24.04 9.43 24.06 6.7-7.3v-33.5z" fill="#2e73b8"/><path d="M857.4 820l11.7-5.94v-48.12L857.4 760l-13.9 30 13.9 30z" fill="#5294cf"/><path d="M840.7 820h16.7v-60h-16.7l-10.04 30 10.03 30z" fill="#2e73b8"/><path d="M829 814.06l11.68 5.94v-60l-11.7 5.94-5.17 24.06 5.2 24.06z" fill="#205b99"/><path d="M822.3 806.72l6.7 7.32v-48.1l-6.7 7.3v33.48z" fill="#19486f"/><path d="M862.3 766.54h61.54v10.5H862.3zM862.3 754.44h61.54V764H862.3zM923.83 749.36v1.87H862.3v-1.87l35.44-10.2 26.1 10.2z" fill="#876929"/><path d="M862.3 738.07h61.54v11.3H862.3zM862.3 752.7h61.53v9.42H862.3zM862.3 765.75h61.53v9.42H862.3z" fill="#d9a741"/><path d="M864.3 754.7h57.53v5.43H864.3zM864.3 767.74h57.53v5.44H864.3z" fill="#fff"/><path d="M842.3 809.2c0 3.66 12.54 6.62 28 6.62s28-2.96 28-6.6v-2.62c0 3.6-12.54 6.55-28 6.55s-28-2.9-28-6.55z" fill="#8c3123"/><path d="M898.3 811.82v1.3a11.05 11.05 0 0 1-.3 2.57l-9.05 37.83c0 2.43-8.35 4.4-18.65 4.4-10.3 0-18.65-1.97-18.65-4.4l-9.05-37.84a11.05 11.05 0 0 1-.3-2.58v-1.3l9.35 39.16c0 2.43 8.35 4.34 18.65 4.34 10.3 0 18.65-1.9 18.65-4.34l9.35-39.16z" fill="#8c3123"/><path d="M870.3 800c15.46 0 28 2.95 28 6.6 0 3.6-12.54 6.55-28 6.55s-28-2.9-28-6.55 12.54-6.6 28-6.6z" fill="#e05243"/><path d="M870.3 817.67c14.4 0 26.26-2.5 27.83-5.85h.1a.07.07 0 0 1 .05.08l-9.33 39.08c0 2.43-8.35 4.34-18.65 4.34-10.3 0-18.65-1.9-18.65-4.34-3.08-13.03-6.1-26.13-9.35-39.16h.17c1.56 3.36 13.44 5.85 27.83 5.85z" fill="#e05243"/><path d="M838.15 752.72h-40.72v5.08h-4.85v2.7l.6 2.4h-6.7v2.7l1.36 2.4h-8.87v2.7l18.46 16.85h40.72v-34.83z" fill="#8c3123"/><path d="M797.43 752.72v5.1h-4.85l1.36 5.1h-7.46l2.84 5.1h-10.35l18.46 16.86H838.15v-32.16h-40.72z" fill="#e05243"/><path d="M836.3 778.65v-24.1h-37.04v3.26h31.7l5.33 20.85z" fill="#f2b0a9"/><path d="M829.63 759.55H794.8l.9 3.37h29.61l9.54 16.97-5.2-20.35z" fill="#fff"/><path d="M824.33 764.65H789.4l1.87 3.38h28.42l13.37 12.2-8.74-15.58z" fill="#fff"/><path d="M784.6 735.77a2.35 2.35 0 0 1 2.36-2.35h6.44a2.35 2.35 0 0 1 2.35 2.35v6.46a2.35 2.35 0 0 1-2.35 2.35h-6.44a2.35 2.35 0 0 1-2.35-2.35zm23.32 0a2.35 2.35 0 0 1 2.35-2.35h6.43a2.35 2.35 0 0 1 2.35 2.35v6.46a2.35 2.35 0 0 1-2.35 2.35h-6.43a2.35 2.35 0 0 1-2.35-2.35zm23.3 0a2.35 2.35 0 0 1 2.36-2.35H840a2.35 2.35 0 0 1 2.36 2.35v6.46a2.35 2.35 0 0 1-2.35 2.35h-6.42a2.35 2.35 0 0 1-2.35-2.35z" fill="#8c3123"/><path d="M784.67 732.18a1.25 1.25 0 0 1 1.25-1.25h8.67a1.25 1.25 0 0 1 1.24 1.25v8.37a1.25 1.25 0 0 1-1.25 1.25h-8.68a1.25 1.25 0 0 1-1.25-1.25zm1.27-3.94a.7.7 0 0 1 .68-.7.7.7 0 0 1 .7.7v2.72h-1.38zm3.54 0a.7.7 0 0 1 .68-.7.7.7 0 0 1 .7.7v2.72h-1.38zm3.54 0a.7.7 0 0 1 .68-.7.7.7 0 0 1 .7.7v2.72H793zm-7.08 13.53h1.37v2.04a.7.7 0 0 1-.68.7.7.7 0 0 1-.68-.7zm3.54 0h1.37v2.04a.7.7 0 0 1-.7.7.7.7 0 0 1-.67-.7zm3.54 0h1.37v2.04a.7.7 0 0 1-.7.7.7.7 0 0 1-.68-.7zm-11.57-8.93a.68.68 0 0 1 .67-.68h2.58v1.36h-2.58a.68.68 0 0 1-.67-.68zm0 3.53a.7.7 0 0 1 .68-.7h2.57v1.4h-2.57a.7.7 0 0 1-.68-.7zm0 3.52a.7.7 0 0 1 .68-.7h2.57v1.38h-2.57a.7.7 0 0 1-.68-.7zm14.35-7.74h2.58a.68.68 0 0 1 .68.68.68.68 0 0 1-.68.68h-2.58zm0 3.52h2.57a.7.7 0 0 1 .7.7.7.7 0 0 1-.7.68h-2.57zm0 3.53h2.57a.7.7 0 0 1 .7.7.7.7 0 0 1-.7.68h-2.57zm12.13-7.02a1.25 1.25 0 0 1 1.25-1.25h8.67a1.25 1.25 0 0 1 1.25 1.25v8.37a1.25 1.25 0 0 1-1.25 1.25h-8.67a1.25 1.25 0 0 1-1.25-1.25zm1.27-3.94a.7.7 0 0 1 .68-.7.7.7 0 0 1 .7.7v2.72h-1.38zm3.54 0a.7.7 0 0 1 .68-.7.7.7 0 0 1 .7.7v2.72h-1.38zm3.54 0a.7.7 0 0 1 .68-.7.7.7 0 0 1 .7.7v2.72h-1.38zm-7.08 13.53h1.37v2.04a.7.7 0 0 1-.7.7.7.7 0 0 1-.67-.7zm3.54 0h1.37v2.04a.7.7 0 0 1-.68.7.7.7 0 0 1-.68-.7zm3.54 0h1.37v2.04a.7.7 0 0 1-.7.7.7.7 0 0 1-.67-.7zm-11.57-8.93a.68.68 0 0 1 .68-.68h2.58v1.36h-2.58a.68.68 0 0 1-.67-.68zm0 3.53a.7.7 0 0 1 .7-.7h2.56v1.4h-2.57a.7.7 0 0 1-.7-.7zm0 3.52a.7.7 0 0 1 .7-.7h2.56v1.38h-2.57a.7.7 0 0 1-.7-.7zm14.36-7.74h2.58a.68.68 0 0 1 .68.68.68.68 0 0 1-.68.68h-2.58zm0 3.52h2.57a.7.7 0 0 1 .7.7.7.7 0 0 1-.7.68h-2.57zm0 3.53h2.57a.7.7 0 0 1 .7.7.7.7 0 0 1-.7.68h-2.57zm12.18-7.02a1.25 1.25 0 0 1 1.25-1.25h8.65a1.25 1.25 0 0 1 1.25 1.25v8.37a1.25 1.25 0 0 1-1.25 1.25h-8.66a1.25 1.25 0 0 1-1.26-1.25zm1.26-3.94a.7.7 0 0 1 .7-.7.7.7 0 0 1 .68.7v2.72h-1.38zm3.54 0a.7.7 0 0 1 .7-.7.7.7 0 0 1 .68.7v2.72h-1.38zm3.54 0a.7.7 0 0 1 .7-.7.7.7 0 0 1 .68.7v2.72h-1.38zm-7.08 13.53h1.38v2.04a.7.7 0 0 1-.7.7.7.7 0 0 1-.68-.7zm3.54 0h1.38v2.04a.7.7 0 0 1-.7.7.7.7 0 0 1-.68-.7zm3.54 0h1.38v2.04a.7.7 0 0 1-.7.7.7.7 0 0 1-.68-.7zM828 732.84a.68.68 0 0 1 .7-.68h2.57v1.36h-2.58a.68.68 0 0 1-.7-.68zm0 3.53a.7.7 0 0 1 .7-.7h2.57v1.4h-2.57a.7.7 0 0 1-.7-.7zm0 3.52a.7.7 0 0 1 .7-.7h2.57v1.38h-2.57a.7.7 0 0 1-.7-.7zm14.37-7.74h2.58a.68.68 0 0 1 .68.68.68.68 0 0 1-.68.68h-2.58zm0 3.52h2.57a.7.7 0 0 1 .7.7.7.7 0 0 1-.7.68h-2.57zm0 3.53h2.57a.7.7 0 0 1 .7.7.7.7 0 0 1-.7.68h-2.57z" fill="#e05243"/><path d="M787.93 734.07h4.5v4.52h-4.5zm23.3 0h4.5v4.52h-4.5zm23.3 0h4.52v4.52h-4.5z" fill="#fff"/><path d="M729.05 846a6 6 0 0 1 6-6h228a6 6 0 0 1 6 6v51.33a6 6 0 0 1-6 6h-228a6 6 0 0 1-6-6z" stroke="#000" stroke-opacity="0" stroke-width="3" fill="#fff" fill-opacity="0"/><use xlink:href="#G" transform="matrix(1,0,0,1,734.0488721804511,845) translate(59.765432098765444 30.67534722222222)"/><use xlink:href="#H" transform="matrix(1,0,0,1,734.0488721804511,845) translate(105.14814814814815 30.67534722222222)"/><path d="M1111.42 371.57c0 21.2-17.18 38.42-38.34 38.42-21.16 0-38.33-17.22-38.33-38.43 0-21.2 17.17-38.42 38.33-38.42 21.16 0 38.34 17.2 38.34 38.42z" fill="#9d5025"/><path d="M1034.75 368.42h76.67v3.15h-76.67z" fill="#9d5025"/><path d="M1111.42 368.42c0 21.2-17.18 38.42-38.34 38.42-21.16 0-38.33-17.2-38.33-38.42 0-21.2 17.17-38.42 38.33-38.42 21.16 0 38.34 17.2 38.34 38.42z" fill="#f58536"/><path d="M1098.02 387.3l-3-7.85-6.64 2.55-9.48-24.95-2.65-6.88-1.25-3.27-1.93-5.1h-12.61v8.37h6.83l2.4 6.22-19.84 35.35h9.58l14.1-25.2 10.03 26.27 2.4-.92 5.4-2.04 6.65-2.55z" fill="#fff"/><use xlink:href="#I" transform="matrix(1,0,0,1,1034.75,410) translate(-5.376543209876537 14.222222222222221)"/><use xlink:href="#J" transform="matrix(1,0,0,1,1034.75,410) translate(16.820987654320994 35.55555555555556)"/><path d="M1017.25 380.98h-21.2l-.84.06-.75.18-.73.3-.67.42-.6.5-.5.6-.43.68-.3.73-.18.76-.06.84V823l-.1 1.06-.24 1.06-.42 1-.58.95-.7.83-.84.7-.93.58-1 .42-1.08.26-1.06.08h-88.22V828h88.14l.83-.07.75-.2.73-.3.67-.4.6-.5.5-.6.43-.68.3-.73.18-.77.06-.82V385.96l.1-1.05.24-1.06.42-1 .58-.94.7-.83.84-.7.93-.6 1-.4 1.08-.26 1.06-.08h21.3z" stroke="#5e5e5e" stroke-width=".05" fill="#5e5e5e"/><path d="M895.85 829.94h-1.26l.45-1.95h.8zm-1.88 0l.43-1.95" fill="#5e5e5e"/><path stroke="#5e5e5e" stroke-width=".05" fill="#5e5e5e"/><path d="M1032.52 380l-14.27 4.63v-9.26z" fill="#5e5e5e"/><path d="M1035.67 380l-18.4 5.98v-11.96zm-16.44 3.3l10.13-3.3-10.13-3.3z" stroke="#5e5e5e" stroke-width=".05" fill="#5e5e5e"/><path d="M1128.53 808.5l-34.26-4.56-34.27 4.57 34.27 22 34.26-22z" fill="#b7ca9d"/><path d="M1066.86 808l5.78 1.56 13.6-18.98-13.6-18.97-5.78 2.02V808z" fill="#4b612c"/><path d="M1093.15 806.36l-20.5 3.27V771.6l20.5 4.2v30.56z" fill="#759c3e"/><path d="M1084 812.74l-7.98-2.17v-46.93L1084 760l23.68 27.74-23.7 25z" fill="#4b612c"/><path d="M1111.38 806.93l-27.37 5.86V760l27.38 9.7v37.23z" fill="#759c3e"/><path d="M1094.25 819.58L1060 808.52v6.42l34.25 15.57V819.6z" fill="#4b612c"/><path d="M1128.52 814.92l-34.27 15.6v-10.94l34.27-11.06v6.4z" fill="#759c3e"/><path d="M1118.9 797.9h-8.32l-23.67 1.46 7.37 16.18 24.63-17.64z" fill="#b7ca9d"/><path d="M1086.9 813.52l7.36 2V800.1l-7.35-.74v14.16z" fill="#4b612c"/><path d="M1118.9 797.9l-24.65 2.2v15.44l24.65-6.76V797.9z" fill="#759c3e"/><g><use xlink:href="#K" transform="matrix(1,0,0,1,1060,830.5128205128204) translate(-13.499999999999986 14.222222222222221)"/></g><path d="M400 1031.43v1.83c0 3.3-3.64 6.74-8.08 6.74h-23.84c-4.44 0-8.08-3.43-8.08-6.74v-1.83z" fill="#9d5125"/><path d="M375.4 1013.67c4.12 0 7.6 2.26 9.32 6.02 2.36-1.63 5.6-1.03 7.2 1.36.6.85.88 1.72.92 2.74 4.04.35 7.16 4.26 7.16 7.37v.67c0 3.33-3.64 6.72-8.08 6.72h-23.84c-4.44 0-8.08-3.4-8.08-6.72v-.67c0-2.6 2.16-6.13 5.16-7v-.3c.04-5.65 4.6-10.23 10.24-10.2z" fill="#f58535"/><path d="M370.02 1025.6l-2.67 9.4h1.56l.6-2.28h2.77l.56 2.3h1.57l-2.45-9.4zm-.24 5.9l1.14-4.64 1.07 4.63zM381.13 1032.95h-.02l-1.26-7.34h-1.58l-1.24 7.3H377l-1.23-7.3h-1.52l1.8 9.4h1.75l1.2-7.07h.03l1.2 7.08h1.74l1.87-9.4h-1.48l-1.23 7.35zM388.67 1029.88l-1.02-.37c-1-.35-1.4-.78-1.4-1.6-.1-.64.37-1.25 1.03-1.34h.23c.65-.1 1.24.36 1.32 1 .02.13.02.23 0 .36v.2h1.5v-.2c0-1-.25-2.5-2.65-2.5-1.77 0-2.93.96-2.93 2.67 0 1.34.57 2.04 1.96 2.57l1.03.36c.82.12 1.4.83 1.35 1.65.02.75-.56 1.36-1.3 1.38h-.13c-1.03 0-1.53-.58-1.53-1.72v-.24h-1.5v.23c0 1.3.53 2.85 2.84 2.85 1.9 0 3.1-.83 3.1-2.83.03-1.28-.56-2-1.9-2.47z" fill="#fff"/><path d="M405.45 1004a6 6 0 0 1 6-6h128.7a6 6 0 0 1 6 6v22a6 6 0 0 1-6 6h-128.7a6 6 0 0 1-6-6z" fill="none"/><g><use xlink:href="#L" transform="matrix(1,0,0,1,410.4511278195489,1002.9868102073364) translate(0 16.5)"/></g><defs><path fill="#333" d="M240 0l2-218c-23 76-54 145-80 218h-23L58-218 59 0H30v-248h44l77 211c21-75 51-140 76-211h43V0h-30" id="M"/><path fill="#333" d="M141-36C126-15 110 5 73 4 37 3 15-17 15-53c-1-64 63-63 125-63 3-35-9-54-41-54-24 1-41 7-42 31l-33-3c5-37 33-52 76-52 45 0 72 20 72 64v82c-1 20 7 32 28 27v20c-31 9-61-2-59-35zM48-53c0 20 12 33 32 33 41-3 63-29 60-74-43 2-92-5-92 41" id="N"/><path fill="#333" d="M117-194c89-4 53 116 60 194h-32v-121c0-31-8-49-39-48C34-167 62-67 57 0H25l-1-190h30c1 10-1 24 2 32 11-22 29-35 61-36" id="O"/><path fill="#333" d="M177-190C167-65 218 103 67 71c-23-6-38-20-44-43l32-5c15 47 100 32 89-28v-30C133-14 115 1 83 1 29 1 15-40 15-95c0-56 16-97 71-98 29-1 48 16 59 35 1-10 0-23 2-32h30zM94-22c36 0 50-32 50-73 0-42-14-75-50-75-39 0-46 34-46 75s6 73 46 73" id="P"/><path fill="#333" d="M100-194c63 0 86 42 84 106H49c0 40 14 67 53 68 26 1 43-12 49-29l28 8c-11 28-37 45-77 45C44 4 14-33 15-96c1-61 26-98 85-98zm52 81c6-60-76-77-97-28-3 7-6 17-6 28h103" id="Q"/><path fill="#333" d="M210-169c-67 3-38 105-44 169h-31v-121c0-29-5-50-35-48C34-165 62-65 56 0H25l-1-190h30c1 10-1 24 2 32 10-44 99-50 107 0 11-21 27-35 58-36 85-2 47 119 55 194h-31v-121c0-29-5-49-35-48" id="R"/><path fill="#333" d="M59-47c-2 24 18 29 38 22v24C64 9 27 4 27-40v-127H5v-23h24l9-43h21v43h35v23H59v120" id="S"/><g id="a"><use transform="matrix(0.06172839506172839,0,0,0.06172839506172839,0,0)" xlink:href="#M"/><use transform="matrix(0.06172839506172839,0,0,0.06172839506172839,18.456790123456788,0)" xlink:href="#N"/><use transform="matrix(0.06172839506172839,0,0,0.06172839506172839,30.80246913580247,0)" xlink:href="#O"/><use transform="matrix(0.06172839506172839,0,0,0.06172839506172839,43.148148148148145,0)" xlink:href="#N"/><use transform="matrix(0.06172839506172839,0,0,0.06172839506172839,55.49382716049382,0)" xlink:href="#P"/><use transform="matrix(0.06172839506172839,0,0,0.06172839506172839,67.8395061728395,0)" xlink:href="#Q"/><use transform="matrix(0.06172839506172839,0,0,0.06172839506172839,80.18518518518519,0)" xlink:href="#R"/><use transform="matrix(0.06172839506172839,0,0,0.06172839506172839,98.64197530864197,0)" xlink:href="#Q"/><use transform="matrix(0.06172839506172839,0,0,0.06172839506172839,110.98765432098766,0)" xlink:href="#O"/><use transform="matrix(0.06172839506172839,0,0,0.06172839506172839,123.33333333333334,0)" xlink:href="#S"/></g><path fill="#333" d="M127-220V0H93v-220H8v-28h204v28h-85" id="T"/><path fill="#333" d="M30-248c118-7 216 8 213 122C240-48 200 0 122 0H30v-248zM63-27c89 8 146-16 146-99s-60-101-146-95v194" id="U"/><path fill="#333" d="M233-177c-1 41-23 64-60 70L243 0h-38l-65-103H63V0H30v-248c88 3 205-21 203 71zM63-129c60-2 137 13 137-47 0-61-80-42-137-45v92" id="V"/><g id="b"><use transform="matrix(0.06172839506172839,0,0,0.06172839506172839,0,0)" xlink:href="#T"/><use transform="matrix(0.06172839506172839,0,0,0.06172839506172839,13.518518518518517,0)" xlink:href="#U"/><use transform="matrix(0.06172839506172839,0,0,0.06172839506172839,29.50617283950617,0)" xlink:href="#V"/></g><path fill="#333" d="M205 0l-28-72H64L36 0H1l101-248h38L239 0h-34zm-38-99l-47-123c-12 45-31 82-46 123h93" id="W"/><path fill="#333" d="M266 0h-40l-56-210L115 0H75L2-248h35L96-30l15-64 43-154h32l59 218 59-218h35" id="X"/><path fill="#333" d="M185-189c-5-48-123-54-124 2 14 75 158 14 163 119 3 78-121 87-175 55-17-10-28-26-33-46l33-7c5 56 141 63 141-1 0-78-155-14-162-118-5-82 145-84 179-34 5 7 8 16 11 25" id="Y"/><g id="c"><use transform="matrix(0.06172839506172839,0,0,0.06172839506172839,0,0)" xlink:href="#W"/><use transform="matrix(0.06172839506172839,0,0,0.06172839506172839,14.012345679012345,0)" xlink:href="#X"/><use transform="matrix(0.06172839506172839,0,0,0.06172839506172839,34.938271604938265,0)" xlink:href="#Y"/></g><path fill="#333" d="M96-169c-40 0-48 33-48 73s9 75 48 75c24 0 41-14 43-38l32 2c-6 37-31 61-74 61-59 0-76-41-82-99-10-93 101-131 147-64 4 7 5 14 7 22l-32 3c-4-21-16-35-41-35" id="Z"/><path fill="#333" d="M100-194c62-1 85 37 85 99 1 63-27 99-86 99S16-35 15-95c0-66 28-99 85-99zM99-20c44 1 53-31 53-75 0-43-8-75-51-75s-53 32-53 75 10 74 51 75" id="aa"/><path fill="#333" d="M84 4C-5 8 30-112 23-190h32v120c0 31 7 50 39 49 72-2 45-101 50-169h31l1 190h-30c-1-10 1-25-2-33-11 22-28 36-60 37" id="ab"/><path fill="#333" d="M135-143c-3-34-86-38-87 0 15 53 115 12 119 90S17 21 10-45l28-5c4 36 97 45 98 0-10-56-113-15-118-90-4-57 82-63 122-42 12 7 21 19 24 35" id="ac"/><g id="d"><use transform="matrix(0.06172839506172839,0,0,0.06172839506172839,0,0)" xlink:href="#N"/><use transform="matrix(0.06172839506172839,0,0,0.06172839506172839,12.345679012345679,0)" xlink:href="#Z"/><use transform="matrix(0.06172839506172839,0,0,0.06172839506172839,23.45679012345679,0)" xlink:href="#Z"/><use transform="matrix(0.06172839506172839,0,0,0.06172839506172839,34.5679012345679,0)" xlink:href="#aa"/><use transform="matrix(0.06172839506172839,0,0,0.06172839506172839,46.913580246913575,0)" xlink:href="#ab"/><use transform="matrix(0.06172839506172839,0,0,0.06172839506172839,59.25925925925925,0)" xlink:href="#O"/><use transform="matrix(0.06172839506172839,0,0,0.06172839506172839,71.60493827160494,0)" xlink:href="#S"/><use transform="matrix(0.06172839506172839,0,0,0.06172839506172839,77.77777777777777,0)" xlink:href="#ac"/></g><path fill="#333" d="M85-194c31 0 48 13 60 33l-1-100h32l1 261h-30c-2-10 0-23-3-31C134-8 116 4 85 4 32 4 16-35 15-94c0-66 23-100 70-100zm9 24c-40 0-46 34-46 75 0 40 6 74 45 74 42 0 51-32 51-76 0-42-9-74-50-73" id="ad"/><path fill="#333" d="M115-194c53 0 69 39 70 98 0 66-23 100-70 100C84 3 66-7 56-30L54 0H23l1-261h32v101c10-23 28-34 59-34zm-8 174c40 0 45-34 45-75 0-40-5-75-45-74-42 0-51 32-51 76 0 43 10 73 51 73" id="ae"/><path fill="#333" d="M141 0L90-78 38 0H4l68-98-65-92h35l48 74 47-74h35l-64 92 68 98h-35" id="af"/><g id="e"><use transform="matrix(0.06172839506172839,0,0,0.06172839506172839,0,0)" xlink:href="#Y"/><use transform="matrix(0.06172839506172839,0,0,0.06172839506172839,14.814814814814813,0)" xlink:href="#N"/><use transform="matrix(0.06172839506172839,0,0,0.06172839506172839,27.160493827160494,0)" xlink:href="#O"/><use transform="matrix(0.06172839506172839,0,0,0.06172839506172839,39.50617283950617,0)" xlink:href="#ad"/><use transform="matrix(0.06172839506172839,0,0,0.06172839506172839,51.85185185185185,0)" xlink:href="#ae"/><use transform="matrix(0.06172839506172839,0,0,0.06172839506172839,64.19753086419753,0)" xlink:href="#aa"/><use transform="matrix(0.06172839506172839,0,0,0.06172839506172839,76.54320987654322,0)" xlink:href="#af"/></g><path fill="#333" d="M106-169C34-169 62-67 57 0H25v-261h32l-1 103c12-21 28-36 61-36 89 0 53 116 60 194h-32v-121c2-32-8-49-39-48" id="ag"/><g id="f"><use transform="matrix(0.06172839506172839,0,0,0.06172839506172839,0,0)" xlink:href="#T"/><use transform="matrix(0.06172839506172839,0,0,0.06172839506172839,13.518518518518517,0)" xlink:href="#ag"/><use transform="matrix(0.06172839506172839,0,0,0.06172839506172839,25.864197530864196,0)" xlink:href="#Q"/></g><path fill="#333" d="M190 0L58-211 59 0H30v-248h39L202-35l-2-213h31V0h-41" id="ah"/><path fill="#333" d="M24-231v-30h32v30H24zM24 0v-190h32V0H24" id="ai"/><path fill="#333" d="M24 0v-261h32V0H24" id="aj"/><g id="g"><use transform="matrix(0.06172839506172839,0,0,0.06172839506172839,0,0)" xlink:href="#ah"/><use transform="matrix(0.06172839506172839,0,0,0.06172839506172839,15.987654320987653,0)" xlink:href="#N"/><use transform="matrix(0.06172839506172839,0,0,0.06172839506172839,28.333333333333332,0)" xlink:href="#S"/><use transform="matrix(0.06172839506172839,0,0,0.06172839506172839,34.50617283950617,0)" xlink:href="#ai"/><use transform="matrix(0.06172839506172839,0,0,0.06172839506172839,39.382716049382715,0)" xlink:href="#aa"/><use transform="matrix(0.06172839506172839,0,0,0.06172839506172839,51.72839506172839,0)" xlink:href="#O"/><use transform="matrix(0.06172839506172839,0,0,0.06172839506172839,64.07407407407408,0)" xlink:href="#N"/><use transform="matrix(0.06172839506172839,0,0,0.06172839506172839,76.41975308641976,0)" xlink:href="#aj"/></g><path fill="#333" d="M114-163C36-179 61-72 57 0H25l-1-190h30c1 12-1 29 2 39 6-27 23-49 58-41v29" id="ak"/><path fill="#333" d="M108 0H70L1-190h34L89-25l56-165h34" id="al"/><g id="h"><use transform="matrix(0.06172839506172839,0,0,0.06172839506172839,0,0)" xlink:href="#W"/><use transform="matrix(0.06172839506172839,0,0,0.06172839506172839,14.814814814814813,0)" xlink:href="#ak"/><use transform="matrix(0.06172839506172839,0,0,0.06172839506172839,22.160493827160494,0)" xlink:href="#Z"/><use transform="matrix(0.06172839506172839,0,0,0.06172839506172839,33.27160493827161,0)" xlink:href="#ag"/><use transform="matrix(0.06172839506172839,0,0,0.06172839506172839,45.617283950617285,0)" xlink:href="#ai"/><use transform="matrix(0.06172839506172839,0,0,0.06172839506172839,50.49382716049383,0)" xlink:href="#al"/><use transform="matrix(0.06172839506172839,0,0,0.06172839506172839,61.60493827160494,0)" xlink:href="#Q"/><use transform="matrix(0.06172839506172839,0,0,0.06172839506172839,73.95061728395062,0)" xlink:href="#ac"/></g><g id="i"><use transform="matrix(0.06172839506172839,0,0,0.06172839506172839,0,0)" xlink:href="#aa"/><use transform="matrix(0.06172839506172839,0,0,0.06172839506172839,12.345679012345679,0)" xlink:href="#ak"/><use transform="matrix(0.06172839506172839,0,0,0.06172839506172839,19.691358024691358,0)" xlink:href="#P"/></g><g id="j"><use transform="matrix(0.06172839506172839,0,0,0.06172839506172839,0,0)" xlink:href="#ak"/><use transform="matrix(0.06172839506172839,0,0,0.06172839506172839,7.345679012345679,0)" xlink:href="#aa"/><use transform="matrix(0.06172839506172839,0,0,0.06172839506172839,19.691358024691358,0)" xlink:href="#aa"/><use transform="matrix(0.06172839506172839,0,0,0.06172839506172839,32.03703703703704,0)" xlink:href="#S"/></g><g id="k"><use transform="matrix(0.06172839506172839,0,0,0.06172839506172839,0,0)" xlink:href="#N"/><use transform="matrix(0.06172839506172839,0,0,0.06172839506172839,12.345679012345679,0)" xlink:href="#Z"/><use transform="matrix(0.06172839506172839,0,0,0.06172839506172839,23.45679012345679,0)" xlink:href="#Z"/><use transform="matrix(0.06172839506172839,0,0,0.06172839506172839,34.5679012345679,0)" xlink:href="#aa"/><use transform="matrix(0.06172839506172839,0,0,0.06172839506172839,46.913580246913575,0)" xlink:href="#ab"/><use transform="matrix(0.06172839506172839,0,0,0.06172839506172839,59.25925925925925,0)" xlink:href="#O"/><use transform="matrix(0.06172839506172839,0,0,0.06172839506172839,71.60493827160494,0)" xlink:href="#S"/></g><path fill="#333" d="M33 0v-248h34V0H33" id="am"/><g id="m"><use transform="matrix(0.06172839506172839,0,0,0.06172839506172839,0,0)" xlink:href="#am"/><use transform="matrix(0.06172839506172839,0,0,0.06172839506172839,6.172839506172839,0)" xlink:href="#O"/><use transform="matrix(0.06172839506172839,0,0,0.06172839506172839,18.51851851851852,0)" xlink:href="#S"/><use transform="matrix(0.06172839506172839,0,0,0.06172839506172839,24.691358024691358,0)" xlink:href="#Q"/><use transform="matrix(0.06172839506172839,0,0,0.06172839506172839,37.03703703703704,0)" xlink:href="#P"/><use transform="matrix(0.06172839506172839,0,0,0.06172839506172839,49.382716049382715,0)" xlink:href="#ak"/><use transform="matrix(0.06172839506172839,0,0,0.06172839506172839,56.72839506172839,0)" xlink:href="#N"/><use transform="matrix(0.06172839506172839,0,0,0.06172839506172839,69.07407407407408,0)" xlink:href="#S"/><use transform="matrix(0.06172839506172839,0,0,0.06172839506172839,75.24691358024691,0)" xlink:href="#ai"/><use transform="matrix(0.06172839506172839,0,0,0.06172839506172839,80.12345679012346,0)" xlink:href="#aa"/><use transform="matrix(0.06172839506172839,0,0,0.06172839506172839,92.46913580246914,0)" xlink:href="#O"/></g><g id="n"><use transform="matrix(0.06172839506172839,0,0,0.06172839506172839,0,0)" xlink:href="#Y"/><use transform="matrix(0.06172839506172839,0,0,0.06172839506172839,14.814814814814813,0)" xlink:href="#S"/><use transform="matrix(0.06172839506172839,0,0,0.06172839506172839,20.98765432098765,0)" xlink:href="#N"/><use transform="matrix(0.06172839506172839,0,0,0.06172839506172839,33.33333333333333,0)" xlink:href="#P"/><use transform="matrix(0.06172839506172839,0,0,0.06172839506172839,45.679012345679006,0)" xlink:href="#ai"/><use transform="matrix(0.06172839506172839,0,0,0.06172839506172839,50.55555555555555,0)" xlink:href="#O"/><use transform="matrix(0.06172839506172839,0,0,0.06172839506172839,62.90123456790123,0)" xlink:href="#P"/></g><path fill="#333" d="M30-248c87 1 191-15 191 75 0 78-77 80-158 76V0H30v-248zm33 125c57 0 124 11 124-50 0-59-68-47-124-48v98" id="an"/><g id="o"><use transform="matrix(0.06172839506172839,0,0,0.06172839506172839,0,0)" xlink:href="#an"/><use transform="matrix(0.06172839506172839,0,0,0.06172839506172839,14.814814814814813,0)" xlink:href="#ak"/><use transform="matrix(0.06172839506172839,0,0,0.06172839506172839,22.160493827160494,0)" xlink:href="#aa"/><use transform="matrix(0.06172839506172839,0,0,0.06172839506172839,34.50617283950617,0)" xlink:href="#ad"/><use transform="matrix(0.06172839506172839,0,0,0.06172839506172839,46.85185185185185,0)" xlink:href="#ab"/><use transform="matrix(0.06172839506172839,0,0,0.06172839506172839,59.197530864197525,0)" xlink:href="#Z"/><use transform="matrix(0.06172839506172839,0,0,0.06172839506172839,70.30864197530863,0)" xlink:href="#S"/><use transform="matrix(0.06172839506172839,0,0,0.06172839506172839,76.48148148148147,0)" xlink:href="#ai"/><use transform="matrix(0.06172839506172839,0,0,0.06172839506172839,81.35802469135801,0)" xlink:href="#aa"/><use transform="matrix(0.06172839506172839,0,0,0.06172839506172839,93.7037037037037,0)" xlink:href="#O"/></g><path fill="#333" d="M137-138c1-29-70-34-71-4 15 46 118 7 119 86 1 83-164 76-172 9l43-7c4 19 20 25 44 25 33 8 57-30 24-41C81-84 22-81 20-136c-2-80 154-74 161-7" id="ao"/><path fill="#333" d="M185-48c-13 30-37 53-82 52C43 2 14-33 14-96s30-98 90-98c62 0 83 45 84 108H66c0 31 8 55 39 56 18 0 30-7 34-22zm-45-69c5-46-57-63-70-21-2 6-4 13-4 21h74" id="ap"/><path fill="#333" d="M135-150c-39-12-60 13-60 57V0H25l-1-190h47c2 13-1 29 3 40 6-28 27-53 61-41v41" id="aq"/><path fill="#333" d="M128 0H69L1-190h53L99-40l48-150h52" id="ar"/><path fill="#333" d="M25-224v-37h50v37H25zM25 0v-190h50V0H25" id="as"/><path fill="#333" d="M190-63c-7 42-38 67-86 67-59 0-84-38-90-98-12-110 154-137 174-36l-49 2c-2-19-15-32-35-32-30 0-35 28-38 64-6 74 65 87 74 30" id="at"/><g id="p"><use transform="matrix(0.04938271604938272,0,0,0.04938271604938272,0,0)" xlink:href="#ao"/><use transform="matrix(0.04938271604938272,0,0,0.04938271604938272,9.876543209876544,0)" xlink:href="#ap"/><use transform="matrix(0.04938271604938272,0,0,0.04938271604938272,19.75308641975309,0)" xlink:href="#aq"/><use transform="matrix(0.04938271604938272,0,0,0.04938271604938272,26.666666666666668,0)" xlink:href="#ar"/><use transform="matrix(0.04938271604938272,0,0,0.04938271604938272,36.543209876543216,0)" xlink:href="#as"/><use transform="matrix(0.04938271604938272,0,0,0.04938271604938272,41.48148148148149,0)" xlink:href="#at"/><use transform="matrix(0.04938271604938272,0,0,0.04938271604938272,51.35802469135803,0)" xlink:href="#ap"/></g><path fill="#333" d="M110-194c64 0 96 36 96 99 0 64-35 99-97 99-61 0-95-36-95-99 0-62 34-99 96-99zm-1 164c35 0 45-28 45-65 0-40-10-65-43-65-34 0-45 26-45 65 0 36 10 65 43 65" id="au"/><path fill="#333" d="M135-194c87-1 58 113 63 194h-50c-7-57 23-157-34-157-59 0-34 97-39 157H25l-1-190h47c2 12-1 28 3 38 12-26 28-41 61-42" id="av"/><path fill="#333" d="M115-3C79 11 28 4 28-45v-112H4v-33h27l15-45h31v45h36v33H77v99c-1 23 16 31 38 25v30" id="aw"/><path fill="#333" d="M25 0v-261h50V0H25" id="ax"/><g id="q"><use transform="matrix(0.04938271604938272,0,0,0.04938271604938272,0,0)" xlink:href="#at"/><use transform="matrix(0.04938271604938272,0,0,0.04938271604938272,9.876543209876544,0)" xlink:href="#au"/><use transform="matrix(0.04938271604938272,0,0,0.04938271604938272,20.69135802469136,0)" xlink:href="#av"/><use transform="matrix(0.04938271604938272,0,0,0.04938271604938272,31.506172839506174,0)" xlink:href="#aw"/><use transform="matrix(0.04938271604938272,0,0,0.04938271604938272,37.38271604938272,0)" xlink:href="#aq"/><use transform="matrix(0.04938271604938272,0,0,0.04938271604938272,44.296296296296305,0)" xlink:href="#au"/><use transform="matrix(0.04938271604938272,0,0,0.04938271604938272,55.111111111111114,0)" xlink:href="#ax"/></g><path fill="#333" d="M135-194c53 0 70 44 70 98 0 56-19 98-73 100-31 1-45-17-59-34 3 33 2 69 2 105H25l-1-265h48c2 10 0 23 3 31 11-24 29-35 60-35zM114-30c33 0 39-31 40-66 0-38-9-64-40-64-56 0-55 130 0 130" id="ay"/><g id="r"><use transform="matrix(0.04938271604938272,0,0,0.04938271604938272,0,0)" xlink:href="#ay"/><use transform="matrix(0.04938271604938272,0,0,0.04938271604938272,10.814814814814815,0)" xlink:href="#au"/><use transform="matrix(0.04938271604938272,0,0,0.04938271604938272,21.62962962962963,0)" xlink:href="#ax"/><use transform="matrix(0.04938271604938272,0,0,0.04938271604938272,26.567901234567902,0)" xlink:href="#as"/><use transform="matrix(0.04938271604938272,0,0,0.04938271604938272,31.506172839506174,0)" xlink:href="#at"/><use transform="matrix(0.04938271604938272,0,0,0.04938271604938272,41.38271604938272,0)" xlink:href="#as"/><use transform="matrix(0.04938271604938272,0,0,0.04938271604938272,46.320987654320994,0)" xlink:href="#ap"/><use transform="matrix(0.04938271604938272,0,0,0.04938271604938272,56.19753086419754,0)" xlink:href="#ao"/></g><path fill="#333" d="M67-125c0 53 21 87 73 88 37 1 54-22 65-47l45 17C233-25 199 4 140 4 58 4 20-42 15-125 8-235 124-281 211-232c18 10 29 29 36 50l-46 12c-8-25-30-41-62-41-52 0-71 34-72 86" id="az"/><path fill="#333" d="M85 4C-2 5 27-109 22-190h50c7 57-23 150 33 157 60-5 35-97 40-157h50l1 190h-47c-2-12 1-28-3-38-12 25-28 42-61 42" id="aA"/><path fill="#333" d="M88-194c31-1 46 15 58 34l-1-101h50l1 261h-48c-2-10 0-23-3-31C134-8 116 4 84 4 32 4 16-41 15-95c0-56 19-97 73-99zm17 164c33 0 40-30 41-66 1-37-9-64-41-64s-38 30-39 65c0 43 13 65 39 65" id="aB"/><path fill="#333" d="M136-208V0H84v-208H4v-40h212v40h-80" id="aC"/><path fill="#333" d="M133-34C117-15 103 5 69 4 32 3 11-16 11-54c-1-60 55-63 116-61 1-26-3-47-28-47-18 1-26 9-28 27l-52-2c7-38 36-58 82-57s74 22 75 68l1 82c-1 14 12 18 25 15v27c-30 8-71 5-69-32zm-48 3c29 0 43-24 42-57-32 0-66-3-65 30 0 17 8 27 23 27" id="aD"/><g id="s"><use transform="matrix(0.04938271604938272,0,0,0.04938271604938272,0,0)" xlink:href="#az"/><use transform="matrix(0.04938271604938272,0,0,0.04938271604938272,12.790123456790125,0)" xlink:href="#ax"/><use transform="matrix(0.04938271604938272,0,0,0.04938271604938272,17.7283950617284,0)" xlink:href="#au"/><use transform="matrix(0.04938271604938272,0,0,0.04938271604938272,28.54320987654322,0)" xlink:href="#aA"/><use transform="matrix(0.04938271604938272,0,0,0.04938271604938272,39.35802469135803,0)" xlink:href="#aB"/><use transform="matrix(0.04938271604938272,0,0,0.04938271604938272,50.17283950617285,0)" xlink:href="#aC"/><use transform="matrix(0.04938271604938272,0,0,0.04938271604938272,60.000000000000014,0)" xlink:href="#aq"/><use transform="matrix(0.04938271604938272,0,0,0.04938271604938272,66.9135802469136,0)" xlink:href="#aD"/><use transform="matrix(0.04938271604938272,0,0,0.04938271604938272,76.79012345679014,0)" xlink:href="#as"/><use transform="matrix(0.04938271604938272,0,0,0.04938271604938272,81.7283950617284,0)" xlink:href="#ax"/></g><path fill="#333" d="M195-6C206 82 75 100 31 46c-4-6-6-13-8-21l49-6c3 16 16 24 34 25 40 0 42-37 40-79-11 22-30 35-61 35-53 0-70-43-70-97 0-56 18-96 73-97 30 0 46 14 59 34l2-30h47zm-90-29c32 0 41-27 41-63 0-35-9-62-40-62-32 0-39 29-40 63 0 36 9 62 39 62" id="aE"/><g id="t"><use transform="matrix(0.04938271604938272,0,0,0.04938271604938272,0,0)" xlink:href="#ax"/><use transform="matrix(0.04938271604938272,0,0,0.04938271604938272,4.938271604938272,0)" xlink:href="#au"/><use transform="matrix(0.04938271604938272,0,0,0.04938271604938272,15.753086419753087,0)" xlink:href="#aE"/><use transform="matrix(0.04938271604938272,0,0,0.04938271604938272,26.567901234567902,0)" xlink:href="#ao"/></g><path fill="#333" d="M30 0v-248h33v221h125V0H30" id="aF"/><g id="u"><use transform="matrix(0.049382716049382706,0,0,0.049382716049382706,0,0)" xlink:href="#aF"/><use transform="matrix(0.049382716049382706,0,0,0.049382716049382706,9.87654320987654,0)" xlink:href="#N"/><use transform="matrix(0.049382716049382706,0,0,0.049382716049382706,19.75308641975308,0)" xlink:href="#R"/><use transform="matrix(0.049382716049382706,0,0,0.049382716049382706,34.51851851851851,0)" xlink:href="#ae"/><use transform="matrix(0.049382716049382706,0,0,0.049382716049382706,44.39506172839505,0)" xlink:href="#ad"/><use transform="matrix(0.049382716049382706,0,0,0.049382716049382706,54.271604938271594,0)" xlink:href="#N"/></g><g id="v"><use transform="matrix(0.049382716049382706,0,0,0.049382716049382706,0,0)" xlink:href="#Z"/><use transform="matrix(0.049382716049382706,0,0,0.049382716049382706,8.888888888888888,0)" xlink:href="#aa"/><use transform="matrix(0.049382716049382706,0,0,0.049382716049382706,18.76543209876543,0)" xlink:href="#ad"/><use transform="matrix(0.049382716049382706,0,0,0.049382716049382706,28.64197530864197,0)" xlink:href="#Q"/></g><path fill="#333" d="M30 0v-248h187v28H63v79h144v27H63v87h162V0H30" id="aG"/><path fill="#333" d="M212-179c-10-28-35-45-73-45-59 0-87 40-87 99 0 60 29 101 89 101 43 0 62-24 78-52l27 14C228-24 195 4 139 4 59 4 22-46 18-125c-6-104 99-153 187-111 19 9 31 26 39 46" id="aH"/><g id="w"><use transform="matrix(0.049382716049382706,0,0,0.049382716049382706,0,0)" xlink:href="#aG"/><use transform="matrix(0.049382716049382706,0,0,0.049382716049382706,11.85185185185185,0)" xlink:href="#aH"/><use transform="matrix(0.049382716049382706,0,0,0.049382716049382706,24.64197530864197,0)" xlink:href="#V"/></g><path fill="#333" d="M115-194c55 1 70 41 70 98S169 2 115 4C84 4 66-9 55-30l1 105H24l-1-265h31l2 30c10-21 28-34 59-34zm-8 174c40 0 45-34 45-75s-6-73-45-74c-42 0-51 32-51 76 0 43 10 73 51 73" id="aI"/><g id="x"><use transform="matrix(0.049382716049382706,0,0,0.049382716049382706,0,0)" xlink:href="#ak"/><use transform="matrix(0.049382716049382706,0,0,0.049382716049382706,5.876543209876542,0)" xlink:href="#Q"/><use transform="matrix(0.049382716049382706,0,0,0.049382716049382706,15.75308641975308,0)" xlink:href="#aI"/><use transform="matrix(0.049382716049382706,0,0,0.049382716049382706,25.629629629629626,0)" xlink:href="#aa"/></g><g id="y"><use transform="matrix(0.049382716049382706,0,0,0.049382716049382706,0,0)" xlink:href="#aG"/><use transform="matrix(0.049382716049382706,0,0,0.049382716049382706,11.85185185185185,0)" xlink:href="#aH"/><use transform="matrix(0.049382716049382706,0,0,0.049382716049382706,24.64197530864197,0)" xlink:href="#Y"/></g><g id="z"><use transform="matrix(0.04938271604938272,0,0,0.04938271604938272,0,0)" xlink:href="#aq"/><use transform="matrix(0.04938271604938272,0,0,0.04938271604938272,6.913580246913581,0)" xlink:href="#ap"/><use transform="matrix(0.04938271604938272,0,0,0.04938271604938272,16.790123456790127,0)" xlink:href="#aD"/><use transform="matrix(0.04938271604938272,0,0,0.04938271604938272,26.666666666666668,0)" xlink:href="#aB"/></g><path fill="#333" d="M24-248c120-7 223 5 221 122C244-46 201 0 124 0H24v-248zM76-40c74 7 117-18 117-86 0-67-45-88-117-82v168" id="aJ"/><path fill="#333" d="M147 0L96-86 75-71V0H25v-261h50v150l67-79h53l-66 74L201 0h-54" id="aK"/><g id="A"><use transform="matrix(0.04938271604938272,0,0,0.04938271604938272,0,0)" xlink:href="#aJ"/><use transform="matrix(0.04938271604938272,0,0,0.04938271604938272,12.790123456790125,0)" xlink:href="#au"/><use transform="matrix(0.04938271604938272,0,0,0.04938271604938272,23.60493827160494,0)" xlink:href="#at"/><use transform="matrix(0.04938271604938272,0,0,0.04938271604938272,33.48148148148148,0)" xlink:href="#aK"/><use transform="matrix(0.04938271604938272,0,0,0.04938271604938272,43.358024691358025,0)" xlink:href="#ap"/><use transform="matrix(0.04938271604938272,0,0,0.04938271604938272,53.23456790123457,0)" xlink:href="#aq"/></g><path fill="#333" d="M220-157c-53 9-28 100-34 157h-49v-107c1-27-5-49-29-50C55-147 81-57 75 0H25l-1-190h47c2 12-1 28 3 38 10-53 101-56 108 0 13-22 24-43 59-42 82 1 51 116 57 194h-49v-107c-1-25-5-48-29-50" id="aL"/><g id="B"><use transform="matrix(0.04938271604938272,0,0,0.04938271604938272,0,0)" xlink:href="#as"/><use transform="matrix(0.04938271604938272,0,0,0.04938271604938272,4.938271604938272,0)" xlink:href="#aL"/><use transform="matrix(0.04938271604938272,0,0,0.04938271604938272,20.74074074074074,0)" xlink:href="#aD"/><use transform="matrix(0.04938271604938272,0,0,0.04938271604938272,30.617283950617285,0)" xlink:href="#aE"/><use transform="matrix(0.04938271604938272,0,0,0.04938271604938272,41.4320987654321,0)" xlink:href="#ap"/><use transform="matrix(0.04938271604938272,0,0,0.04938271604938272,51.308641975308646,0)" xlink:href="#ao"/></g><g id="C"><use transform="matrix(0.049382716049382706,0,0,0.049382716049382706,0,0)" xlink:href="#aF"/><use transform="matrix(0.049382716049382706,0,0,0.049382716049382706,9.87654320987654,0)" xlink:href="#N"/><use transform="matrix(0.049382716049382706,0,0,0.049382716049382706,19.75308641975308,0)" xlink:href="#R"/><use transform="matrix(0.049382716049382706,0,0,0.049382716049382706,34.51851851851851,0)" xlink:href="#ae"/><use transform="matrix(0.049382716049382706,0,0,0.049382716049382706,44.39506172839505,0)" xlink:href="#ad"/><use transform="matrix(0.049382716049382706,0,0,0.049382716049382706,54.271604938271594,0)" xlink:href="#N"/></g><path fill="#333" d="M123 10C108 53 80 86 19 72V37c35 8 53-11 59-39L3-190h52l48 148c12-52 28-100 44-148h51" id="aM"/><g id="D"><use transform="matrix(0.04938271604938272,0,0,0.04938271604938272,0,0)" xlink:href="#aB"/><use transform="matrix(0.04938271604938272,0,0,0.04938271604938272,10.814814814814815,0)" xlink:href="#ap"/><use transform="matrix(0.04938271604938272,0,0,0.04938271604938272,20.69135802469136,0)" xlink:href="#ay"/><use transform="matrix(0.04938271604938272,0,0,0.04938271604938272,31.506172839506174,0)" xlink:href="#ax"/><use transform="matrix(0.04938271604938272,0,0,0.04938271604938272,36.44444444444445,0)" xlink:href="#au"/><use transform="matrix(0.04938271604938272,0,0,0.04938271604938272,47.25925925925927,0)" xlink:href="#aM"/></g><path fill="#333" d="M24 0v-248h52v208h133V0H24" id="aN"/><path fill="#333" d="M135-194c52 0 70 43 70 98 0 56-19 99-73 100-30 1-46-15-58-35L72 0H24l1-261h50v104c11-23 29-37 60-37zM114-30c31 0 40-27 40-66 0-37-7-63-39-63s-41 28-41 65c0 36 8 64 40 64" id="aO"/><g id="E"><use transform="matrix(0.04938271604938272,0,0,0.04938271604938272,0,0)" xlink:href="#aN"/><use transform="matrix(0.04938271604938272,0,0,0.04938271604938272,10.814814814814815,0)" xlink:href="#aD"/><use transform="matrix(0.04938271604938272,0,0,0.04938271604938272,20.69135802469136,0)" xlink:href="#aL"/><use transform="matrix(0.04938271604938272,0,0,0.04938271604938272,36.49382716049383,0)" xlink:href="#aO"/><use transform="matrix(0.04938271604938272,0,0,0.04938271604938272,47.308641975308646,0)" xlink:href="#aB"/><use transform="matrix(0.04938271604938272,0,0,0.04938271604938272,58.12345679012346,0)" xlink:href="#aD"/></g><path fill="#333" d="M121-226c-27-7-43 5-38 36h38v33H83V0H34v-157H6v-33h28c-9-59 32-81 87-68v32" id="aP"/><g id="F"><use transform="matrix(0.04938271604938272,0,0,0.04938271604938272,0,0)" xlink:href="#aP"/><use transform="matrix(0.04938271604938272,0,0,0.04938271604938272,5.8765432098765435,0)" xlink:href="#aA"/><use transform="matrix(0.04938271604938272,0,0,0.04938271604938272,16.691358024691358,0)" xlink:href="#av"/><use transform="matrix(0.04938271604938272,0,0,0.04938271604938272,27.50617283950617,0)" xlink:href="#at"/><use transform="matrix(0.04938271604938272,0,0,0.04938271604938272,37.382716049382715,0)" xlink:href="#aw"/><use transform="matrix(0.04938271604938272,0,0,0.04938271604938272,43.25925925925926,0)" xlink:href="#as"/><use transform="matrix(0.04938271604938272,0,0,0.04938271604938272,48.19753086419753,0)" xlink:href="#au"/><use transform="matrix(0.04938271604938272,0,0,0.04938271604938272,59.01234567901235,0)" xlink:href="#av"/><use transform="matrix(0.04938271604938272,0,0,0.04938271604938272,69.82716049382717,0)" xlink:href="#ao"/></g><g id="G"><use transform="matrix(0.049382716049382706,0,0,0.049382716049382706,0,0)" xlink:href="#aa"/><use transform="matrix(0.049382716049382706,0,0,0.049382716049382706,9.87654320987654,0)" xlink:href="#S"/><use transform="matrix(0.049382716049382706,0,0,0.049382716049382706,14.814814814814811,0)" xlink:href="#ag"/><use transform="matrix(0.049382716049382706,0,0,0.049382716049382706,24.691358024691354,0)" xlink:href="#Q"/><use transform="matrix(0.049382716049382706,0,0,0.049382716049382706,34.5679012345679,0)" xlink:href="#ak"/></g><g id="H"><use transform="matrix(0.049382716049382706,0,0,0.049382716049382706,0,0)" xlink:href="#ac"/><use transform="matrix(0.049382716049382706,0,0,0.049382716049382706,8.888888888888888,0)" xlink:href="#Q"/><use transform="matrix(0.049382716049382706,0,0,0.049382716049382706,18.76543209876543,0)" xlink:href="#ak"/><use transform="matrix(0.049382716049382706,0,0,0.049382716049382706,24.64197530864197,0)" xlink:href="#al"/><use transform="matrix(0.049382716049382706,0,0,0.049382716049382706,33.53086419753086,0)" xlink:href="#ai"/><use transform="matrix(0.049382716049382706,0,0,0.049382716049382706,37.432098765432094,0)" xlink:href="#Z"/><use transform="matrix(0.049382716049382706,0,0,0.049382716049382706,46.32098765432098,0)" xlink:href="#Q"/><use transform="matrix(0.049382716049382706,0,0,0.049382716049382706,56.19753086419752,0)" xlink:href="#ac"/></g><g id="I"><use transform="matrix(0.049382716049382706,0,0,0.049382716049382706,0,0)" xlink:href="#aa"/><use transform="matrix(0.049382716049382706,0,0,0.049382716049382706,9.87654320987654,0)" xlink:href="#aI"/><use transform="matrix(0.049382716049382706,0,0,0.049382716049382706,19.75308641975308,0)" xlink:href="#Q"/><use transform="matrix(0.049382716049382706,0,0,0.049382716049382706,29.629629629629623,0)" xlink:href="#ak"/><use transform="matrix(0.049382716049382706,0,0,0.049382716049382706,35.50617283950616,0)" xlink:href="#N"/><use transform="matrix(0.049382716049382706,0,0,0.049382716049382706,45.38271604938271,0)" xlink:href="#S"/><use transform="matrix(0.049382716049382706,0,0,0.049382716049382706,50.32098765432098,0)" xlink:href="#ai"/><use transform="matrix(0.049382716049382706,0,0,0.049382716049382706,54.222222222222214,0)" xlink:href="#aa"/><use transform="matrix(0.049382716049382706,0,0,0.049382716049382706,64.09876543209876,0)" xlink:href="#O"/><use transform="matrix(0.049382716049382706,0,0,0.049382716049382706,73.9753086419753,0)" xlink:href="#N"/><use transform="matrix(0.049382716049382706,0,0,0.049382716049382706,83.85185185185185,0)" xlink:href="#aj"/></g><g id="J"><use transform="matrix(0.049382716049382706,0,0,0.049382716049382706,0,0)" xlink:href="#N"/><use transform="matrix(0.049382716049382706,0,0,0.049382716049382706,9.87654320987654,0)" xlink:href="#aj"/><use transform="matrix(0.049382716049382706,0,0,0.049382716049382706,13.777777777777775,0)" xlink:href="#Q"/><use transform="matrix(0.049382716049382706,0,0,0.049382716049382706,23.654320987654316,0)" xlink:href="#ak"/><use transform="matrix(0.049382716049382706,0,0,0.049382716049382706,29.530864197530857,0)" xlink:href="#S"/><use transform="matrix(0.049382716049382706,0,0,0.049382716049382706,34.469135802469125,0)" xlink:href="#ac"/></g><g id="K"><use transform="matrix(0.049382716049382706,0,0,0.049382716049382706,0,0)" xlink:href="#aH"/><use transform="matrix(0.049382716049382706,0,0,0.049382716049382706,12.790123456790122,0)" xlink:href="#aj"/><use transform="matrix(0.049382716049382706,0,0,0.049382716049382706,16.691358024691354,0)" xlink:href="#aa"/><use transform="matrix(0.049382716049382706,0,0,0.049382716049382706,26.567901234567895,0)" xlink:href="#ab"/><use transform="matrix(0.049382716049382706,0,0,0.049382716049382706,36.444444444444436,0)" xlink:href="#ad"/><use transform="matrix(0.049382716049382706,0,0,0.049382716049382706,46.32098765432097,0)" xlink:href="#X"/><use transform="matrix(0.049382716049382706,0,0,0.049382716049382706,62.41975308641973,0)" xlink:href="#N"/><use transform="matrix(0.049382716049382706,0,0,0.049382716049382706,72.29629629629628,0)" xlink:href="#S"/><use transform="matrix(0.049382716049382706,0,0,0.049382716049382706,77.23456790123454,0)" xlink:href="#Z"/><use transform="matrix(0.049382716049382706,0,0,0.049382716049382706,86.12345679012343,0)" xlink:href="#ag"/></g><path d="M30-248c118-7 216 8 213 122C240-48 200 0 122 0H30v-248zM63-27c89 8 146-16 146-99s-60-101-146-95v194" id="aQ"/><path d="M100-194c63 0 86 42 84 106H49c0 40 14 67 53 68 26 1 43-12 49-29l28 8c-11 28-37 45-77 45C44 4 14-33 15-96c1-61 26-98 85-98zm52 81c6-60-76-77-97-28-3 7-6 17-6 28h103" id="aR"/><path d="M108 0H70L1-190h34L89-25l56-165h34" id="aS"/><path d="M24 0v-261h32V0H24" id="aT"/><path d="M100-194c62-1 85 37 85 99 1 63-27 99-86 99S16-35 15-95c0-66 28-99 85-99zM99-20c44 1 53-31 53-75 0-43-8-75-51-75s-53 32-53 75 10 74 51 75" id="aU"/><path d="M115-194c55 1 70 41 70 98S169 2 115 4C84 4 66-9 55-30l1 105H24l-1-265h31l2 30c10-21 28-34 59-34zm-8 174c40 0 45-34 45-75s-6-73-45-74c-42 0-51 32-51 76 0 43 10 73 51 73" id="aV"/><path d="M210-169c-67 3-38 105-44 169h-31v-121c0-29-5-50-35-48C34-165 62-65 56 0H25l-1-190h30c1 10-1 24 2 32 10-44 99-50 107 0 11-21 27-35 58-36 85-2 47 119 55 194h-31v-121c0-29-5-49-35-48" id="aW"/><path d="M117-194c89-4 53 116 60 194h-32v-121c0-31-8-49-39-48C34-167 62-67 57 0H25l-1-190h30c1 10-1 24 2 32 11-22 29-35 61-36" id="aX"/><path d="M59-47c-2 24 18 29 38 22v24C64 9 27 4 27-40v-127H5v-23h24l9-43h21v43h35v23H59v120" id="aY"/><g id="L"><use transform="matrix(0.05555555555555555,0,0,0.05555555555555555,0,0)" xlink:href="#aQ"/><use transform="matrix(0.05555555555555555,0,0,0.05555555555555555,14.388888888888888,0)" xlink:href="#aR"/><use transform="matrix(0.05555555555555555,0,0,0.05555555555555555,25.5,0)" xlink:href="#aS"/><use transform="matrix(0.05555555555555555,0,0,0.05555555555555555,35.5,0)" xlink:href="#aR"/><use transform="matrix(0.05555555555555555,0,0,0.05555555555555555,46.611111111111114,0)" xlink:href="#aT"/><use transform="matrix(0.05555555555555555,0,0,0.05555555555555555,51,0)" xlink:href="#aU"/><use transform="matrix(0.05555555555555555,0,0,0.05555555555555555,62.11111111111112,0)" xlink:href="#aV"/><use transform="matrix(0.05555555555555555,0,0,0.05555555555555555,73.22222222222223,0)" xlink:href="#aW"/><use transform="matrix(0.05555555555555555,0,0,0.05555555555555555,89.83333333333334,0)" xlink:href="#aR"/><use transform="matrix(0.05555555555555555,0,0,0.05555555555555555,100.94444444444446,0)" xlink:href="#aX"/><use transform="matrix(0.05555555555555555,0,0,0.05555555555555555,112.05555555555557,0)" xlink:href="#aY"/></g></defs></g></svg>