<svg xmlns="http://www.w3.org/2000/svg" xmlns:xlink="http://www.w3.org/1999/xlink" xmlns:lucid="lucid" width="2680" height="1440"><g transform="translate(740 60)" lucid:page-tab-id="0_0"><path d="M-720-40h2640v1400H-720z" fill="#fff"/><path d="M-700-40h20m10 0h20m10 0h20m10 0h20m10 0h20m10 0h20m10 0h20m10 0h20m10 0h20m10 0h20m10 0h20m10 0h20m10 0h20m10 0h20m10 0h20m10 0h20m10 0h20m10 0h20m10 0h20m10 0h20m10 0h20m10 0h20m10 0h20m10 0h20m10 0h20m10 0h20m10 0h20m10 0h20m10 0h20m10 0h20m10 0h20m10 0h20m10 0h20m10 0h20m10 0h20m10 0h20m10 0h20m10 0h20m10 0h20m10 0h20m10 0h20m10 0h20m10 0h20m10 0h20m10 0h20m10 0h20m10 0h20m10 0h20m10 0h20m10 0h20m10 0h20m10 0h20m10 0h20m10 0h20m10 0h20m10 0h20m10 0h20m10 0h20m10 0h20m10 0h20m10 0h20m10 0h20m10 0h20m10 0h20m10 0h20m10 0h20m10 0h20m10 0h20m10 0h20m10 0h20m10 0h20m10 0h20m10 0h20m10 0h20m10 0h20m10 0h20m10 0h20m10 0h20m10 0h20m10 0h20m10 0h20m10 0h20m10 0h20m10 0h20m10 0h20m10 0h20m10 0h20m10 0h10v9.93m0 9.93V-.28m0 9.93V29.5m0 9.93V59.3m0 9.92v19.86m0 9.93v19.87m0 9.92v19.85m0 9.93v19.86m0 9.93v19.86m0 9.93V238m0 9.94v19.86m0 9.93v19.86m0 9.92v19.86m0 9.92v19.86m0 9.93v19.85m0 9.93v19.86m0 9.93v19.85m0 9.93v19.86m0 9.94v19.86m0 9.93v19.86m0 9.92v19.85m0 9.93v19.86m0 9.93v19.85m0 9.93v19.86m0 9.92v19.86m0 9.93v19.86m0 9.94v19.86m0 9.93v19.85m0 9.93v19.87m0 9.93v19.86m0 9.93v19.85m0 9.93v19.85m0 9.93v19.86m0 9.93v19.86m0 9.94v19.86m0 9.92v19.86m0 9.93v19.87m0 9.93v19.86m0 9.93v19.84m0 9.93v19.86m0 9.93v19.86m0 9.93v19.86m0 9.93V1221m0 9.92v19.86m0 9.93v19.87m0 9.93v19.85m0 9.93v19.86m0 9.93v9.93h-10m-10 0h-20m-10 0h-20m-10 0h-20m-10 0h-20m-10 0h-20m-10 0h-20m-10 0h-20m-10 0h-20m-10 0h-20m-10 0h-20m-10 0h-20m-10 0h-20m-10 0h-20m-10 0h-20m-10 0h-20m-10 0h-20m-10 0h-20m-10 0h-20m-10 0h-20m-10 0h-20m-10 0h-20m-10 0h-20m-10 0h-20m-10 0h-20m-10 0h-20m-10 0h-20m-10 0h-20m-10 0h-20m-10 0h-20m-10 0h-20m-10 0h-20m-10 0h-20m-10 0h-20m-10 0h-20m-10 0h-20m-10 0h-20m-10 0h-20m-10 0h-20m-10 0h-20m-10 0h-20m-10 0h-20m-10 0h-20m-10 0h-20m-10 0h-20m-10 0h-20m-10 0h-20m-10 0h-20m-10 0h-20m-10 0h-20m-10 0h-20m-10 0h-20m-10 0h-20m-10 0h-20m-10 0h-20m-10 0h-20m-10 0h-20m-10 0h-20m-10 0h-20m-10 0h-20m-10 0h-20m-10 0H80m-10 0H50m-10 0H20m-10 0h-20m-10 0h-20m-10 0h-20m-10 0h-20m-10 0h-20m-10 0h-20m-10 0h-20m-10 0h-20m-10 0h-20m-10 0h-20m-10 0h-20m-10 0h-20m-10 0h-20m-10 0h-20m-10 0h-20m-10 0h-20m-10 0h-20m-10 0h-20m-10 0h-20m-10 0h-20m-10 0h-20m-10 0h-20m-10 0h-20m-10 0h-20m-10 0h-10v-9.93m0-9.93v-19.86m0-9.93v-19.85m0-9.93v-19.86m0-9.92v-19.86m0-9.93v-19.87m0-9.92v-19.85m0-9.93v-19.86m0-9.93v-19.86m0-9.93V1082m0-9.94v-19.86m0-9.93v-19.86m0-9.92v-19.86m0-9.92v-19.86m0-9.93v-19.85m0-9.93v-19.86m0-9.93v-19.85m0-9.93V843.7m0-9.94V813.9m0-9.93V784.1m0-9.92v-19.85m0-9.93v-19.86m0-9.93v-19.85m0-9.93v-19.86m0-9.92v-19.86m0-9.93V605.4m0-9.94V575.6m0-9.93v-19.85m0-9.93v-19.87m0-9.93v-19.86m0-9.93v-19.85m0-9.93v-19.85m0-9.93v-19.86m0-9.93V367.1m0-9.94V337.3m0-9.92v-19.86m0-9.93v-19.87m0-9.93v-19.86m0-9.93v-19.84m0-9.93v-19.86m0-9.93v-19.86m0-9.93V128.8m0-9.93V99m0-9.92V69.22m0-9.93V39.42m0-9.93V9.65m0-9.93v-19.86m0-9.93V-40h10" stroke="#000" stroke-width="2" fill="none"/><path d="M-140 20h1978.4v1280H-140z" stroke="#000" stroke-width="2" fill="#fff"/><path d="M-140 20h240v60h-240z" stroke="#000" stroke-opacity="0" stroke-width="2" fill="#fff" fill-opacity="0"/><use xlink:href="#a" transform="matrix(1,0,0,1,-135,25) translate(16.70370370370368 30.708333333333336)"/><path d="M-640 100h300v220h-300z" stroke="#000" stroke-width="2" fill="#fff"/><path d="M-460 170h80v80h-80v-80z" stroke="#fff" stroke-opacity="0" stroke-width="2" fill="#3f8624"/><path d="M-394.47 212.7c-.3-1.65-2.2-2.82-3.53-3.68-.4-.27-1.53-.7-1.64-1.07 0-.26 0-.53.1-.8l1.08-7.64.92-6.77c.25-2.03-.72-3.42-2.4-4.6-3.43-2.4-7.93-3.36-11.96-4-5.32-.85-9.97-1-15.34-.48-4.85.32-8.9 1.28-13.4 3.2-2.24 1.07-5.25 2.73-4.84 5.6 1.02 8.67 2.3 17.32 3.47 25.97.5 3.95 1.06 7.9 1.58 11.86.2 1.65 1.12 2.93 2.65 3.58 3.27 1.76 7.36 2.3 11.1 2.6 5.16.5 9.55.33 14.66-.63 3.06-.53 8.8-1.5 9.3-5.34.6-4.76 1.27-9.52 1.9-14.27l.24-1.44c1.74.42 6.7 1.32 6.1-2.1zm-27.1-27.23c6.45 0 13.76.75 19.48 3.9.93.48 2.97 1.55 2.36 2.88-.6 1.28-2.55 1.92-3.73 2.4-1.74.65-3.32 1.07-5.16 1.45-7.98 1.6-15.03 1.76-23.1.48-3.63-.38-6.65-1.28-9.92-2.9-.77-.47-2.05-1.22-1.7-2.28.27-.6.68-1.02 1.24-1.34 2.5-1.6 4.8-2.56 7.7-3.1 4.4-1.06 8.3-1.55 12.84-1.5zm16.77 44.97c-.2 1.23-2.25 1.87-3.22 2.2-2.15.74-4.04 1.16-6.3 1.43-4.94.64-9.24.64-14.25 0-3.1-.27-5.72-.96-8.53-2.35-.77-.32-1.23-1.02-1.28-1.82-1.07-8.5-2.25-16.93-3.42-25.37l-1.23-9.18c2.55 1.4 4.9 2.24 7.77 2.72 3.12.64 5.72.96 8.9 1.18 6.12.42 11.4.16 17.47-.96 3.23-.5 5.9-1.4 8.75-2.95l-2.25 16.72c-5.72-1.87-10.42-3.74-15.8-6.36-.25-.1-.45-.2-.66-.3-.3-.22-.2-.12-.35-.44-.27-.64-.32-1.07-.88-1.6-.5-.37-1.08-.53-1.7-.48-1.32.05-2.34 1.23-2.24 2.56.1 1.28 1.28 2.3 2.6 2.2.37-.06.67-.17 1.08-.33.4-.1.4-.1.82.12 5.47 2.67 10.22 4.65 16 6.57.82.25.82 0 .82.68-.05.54-.1 1.02-.2 1.55l-.67 5.07zm-16.46-25.26c0 .32-.4.26-.5.1-.16-.2.5-.48.5-.1zm21 7.47l.32-2.35c1.07.64 2.86 1.55 3.37 2.73-1.07.42-2.7-.1-3.68-.38z" stroke="#fff" stroke-opacity="0" stroke-width="2" fill="#fff"/><use xlink:href="#b" transform="matrix(1,0,0,1,-490,259) translate(59 14.4)"/><use xlink:href="#c" transform="matrix(1,0,0,1,-490,259) translate(1.1749999999999972 36)"/><use xlink:href="#d" transform="matrix(1,0,0,1,-490,259) translate(93.875 36)"/><path d="M-620 165h80v80h-80v-80z" stroke="#fff" stroke-opacity="0" stroke-width="2" fill="#3b48cc"/><path d="M-566.4 208.2l-7.07 7.02c1.35-.37 2.43-.8 3.67-1.5.72.44 1.12 1.13 1.27 1.93 0 1.97-4.14 4.1-10.27 4.95-2.03.27-3.7.38-5.73.38h-1.05c-8.64-.16-14.95-2.88-14.95-5.33.1-.8.54-1.44 1.27-1.92 3.34 1.86 8.78 2.98 14.73 2.98h.1l.62-2.12h-.73c-5.88 0-11.32-1.17-14.2-2.98-1.15-.75-1.8-1.6-1.8-2.3v-4.95c3.26 2.5 9.76 3.78 16 3.78.83 0 1.67 0 2.5-.05l.62-2.13c-1.1.05-2.08.1-3.13.1-9.14 0-16-2.82-16-5.32.1-.86.54-1.5 1.27-1.92 2.94 1.66 7.47 2.67 12.6 2.94l.06-2.13c-5.04-.26-9.6-1.33-12.12-2.98-1.16-.7-1.77-1.54-1.8-2.3v-4.9c3.25 2.5 9.75 3.8 16 3.8h.2l1.17-2.14h-1.38c-9.14 0-16-2.77-16-5.33 0-2.5 6.86-5.33 16-5.33 3.23 0 5.98.32 9.14 1.07h5.9c-3.24-1.98-8.76-3.2-15.03-3.2-8.78 0-18.14 2.6-18.14 7.45v8.58c.07 1.28.62 2.35 1.63 3.15-1 .85-1.56 1.9-1.63 3.2v8.52c.07 1.33.62 2.4 1.63 3.25-1 .8-1.56 1.87-1.63 3.2v8.74c.3 4.68 9.47 7.18 18.14 7.18s17.85-2.5 18.14-7.25V215.6c-.03-1.28-.6-2.4-1.62-3.2 1-.8 1.56-1.92 1.63-3.2zm-2.13 15.97c0 2.5-6.86 5.33-16 5.33s-16-2.77-16-5.33v-4.9c3.26 2.45 9.76 3.78 16 3.78s12.73-1.33 16-3.78z" stroke="#fff" stroke-opacity="0" stroke-width="2" fill="#fff"/><path d="M-596 194.35c0 .74-.6 1.34-1.33 1.34-.74 0-1.34-.6-1.34-1.35 0-.73.6-1.33 1.34-1.33.73 0 1.33.6 1.33 1.33zM-596 209.3c0 .72-.6 1.32-1.33 1.32-.74 0-1.34-.6-1.34-1.33 0-.75.6-1.35 1.34-1.35.73 0 1.33.6 1.33 1.34zM-596 224.22c0 .74-.6 1.33-1.33 1.33-.74 0-1.34-.6-1.34-1.33 0-.73.6-1.33 1.34-1.33.73 0 1.33.6 1.33 1.32zM-581.88 219.9c-.18 0-.34-.02-.53-.13-.44-.26-.62-.77-.5-1.24l6-19.96h-6.04c-.6.03-1.07-.44-1.07-1.06 0-.17 0-.35.12-.5l6.4-12.8c.18-.37.52-.6.95-.6h13.87c.6-.02 1.07.45 1.1 1.03.03.14 0 .25-.03.4l-2.74 8.17h6c.57.03 1.06.5 1.06 1.08 0 .3-.1.5-.3.73l-23.47 24.55c-.2.25-.48.36-.83.36zm.67-23.44h5.74c.35 0 .64.15.86.4.18.3.26.62.16.95l-5.14 17.07 18.7-19.5h-4.98c-.6 0-1.1-.43-1.13-1 0-.16 0-.3.07-.4l2.72-8.22h-11.74z" stroke="#fff" stroke-opacity="0" stroke-width="2" fill="#fff"/><use xlink:href="#e" transform="matrix(1,0,0,1,-650,254) translate(24.074999999999996 14.4)"/><use xlink:href="#f" transform="matrix(1,0,0,1,-650,254) translate(26.15 36)"/><use xlink:href="#g" transform="matrix(1,0,0,1,-650,254) translate(31.549999999999997 57.6)"/><path d="M240 80h1485.2v1200H240z" fill="#fff"/><path d="M259.8 80h19.8m9.9 0h19.8m9.9 0H339m9.9 0h19.82m9.9 0h19.8m9.9 0h19.8m9.9 0h19.8m9.9 0h19.8m9.9 0h19.82m9.9 0h19.8m9.9 0h19.8m9.9 0h19.8m9.9 0h19.8m9.9 0h19.82m9.9 0h19.8m9.9 0h19.8m9.9 0h19.8m9.9 0h19.8m9.9 0h19.82m9.9 0h19.8m9.9 0h19.8m9.9 0h19.8m9.9 0h19.8m9.9 0h19.82m9.9 0h19.8m9.9 0h19.8m9.9 0h19.8m9.9 0h19.8m9.9 0h19.82m9.9 0h19.8m9.9 0h19.8m9.9 0h19.8m9.9 0h19.8m9.9 0h19.82m9.9 0h19.8m9.9 0h19.8m9.9 0h19.8m9.9 0h19.8m9.9 0h19.82m9.9 0h19.8m9.9 0h19.8m9.9 0h19.8m9.9 0h19.8m9.9 0h19.82m9.9 0h19.8m9.9 0h19.8m9.9 0h19.8m9.9 0h19.8m9.9 0h19.82m9.9 0h9.9v10m0 10v20m0 10v20m0 10v20m0 10v20m0 10v20m0 10v20m0 10v20m0 10v20m0 10v20m0 10v20m0 10v20m0 10v20m0 10v20m0 10v20m0 10v20m0 10v20m0 10v20m0 10v20m0 10v20m0 10v20m0 10v20m0 10v20m0 10v20m0 10v20m0 10v20m0 10v20m0 10v20m0 10v20m0 10v20m0 10v20m0 10v20m0 10v20m0 10v20m0 10v20m0 10v20m0 10v20m0 10v20m0 10v20m0 10v20m0 10v10h-9.9m-9.9 0h-19.8m-9.9 0h-19.8m-9.9 0h-19.8m-9.9 0h-19.82m-9.9 0h-19.8m-9.9 0h-19.8m-9.9 0h-19.8m-9.9 0h-19.8m-9.9 0h-19.82m-9.9 0h-19.8m-9.9 0h-19.8m-9.9 0h-19.8m-9.9 0h-19.8m-9.9 0h-19.82m-9.9 0h-19.8m-9.9 0h-19.8m-9.9 0h-19.8m-9.9 0h-19.8m-9.9 0h-19.82m-9.9 0h-19.8m-9.9 0h-19.8m-9.9 0h-19.8m-9.9 0h-19.8m-9.9 0h-19.82m-9.9 0h-19.8m-9.9 0H943m-9.9 0h-19.8m-9.9 0h-19.8m-9.9 0h-19.82m-9.9 0h-19.8m-9.9 0h-19.8m-9.9 0h-19.8m-9.9 0h-19.8m-9.9 0h-19.82m-9.9 0h-19.8m-9.9 0h-19.8m-9.9 0h-19.8m-9.9 0h-19.8m-9.9 0h-19.82m-9.9 0h-19.8m-9.9 0h-19.8m-9.9 0h-19.8m-9.9 0h-19.8m-9.9 0H408.3m-9.9 0h-19.8m-9.9 0h-19.8m-9.9 0h-19.8m-9.9 0h-19.8m-9.9 0H259.8m-9.9 0H240v-10m0-10v-20m0-10v-20m0-10v-20m0-10v-20m0-10v-20m0-10v-20m0-10v-20m0-10v-20m0-10v-20m0-10v-20m0-10v-20m0-10v-20m0-10v-20m0-10v-20m0-10v-20m0-10v-20m0-10v-20m0-10v-20m0-10v-20m0-10v-20m0-10v-20m0-10v-20m0-10v-20m0-10v-20m0-10v-20m0-10v-20m0-10v-20m0-10v-20m0-10v-20m0-10v-20m0-10v-20m0-10v-20m0-10v-20m0-10v-20m0-10v-20m0-10v-20m0-10v-20m0-10v-20m0-10v-20m0-10V80h9.9" stroke="#000" stroke-width="2" fill="none"/><path d="M240 80h120v60H240z" stroke="#000" stroke-opacity="0" stroke-width="2" fill="#fff" fill-opacity="0"/><use xlink:href="#h" transform="matrix(1,0,0,1,245,85) translate(27.703703703703702 30.708333333333336)"/><path d="M780 120h400v160H780z" fill="#fff"/><path d="M800.5 120h20.53m10.25 0h20.5m10.27 0h20.5m10.27 0h20.5m10.27 0h20.5m10.26 0h20.5m10.27 0h20.5m10.27 0h20.5m10.27 0h20.5m10.27 0h20.5m10.27 0h20.52m10.25 0h20.52m10.24 0H1180v10.67m0 10.66v21.34m0 10.66v21.34m0 10.66v21.34m0 10.66v21.34m0 10.66V280h-10.26m-10.25 0h-20.53m-10.25 0h-20.5m-10.27 0h-20.5m-10.27 0h-20.5m-10.27 0h-20.5m-10.26 0h-20.5m-10.27 0h-20.5m-10.27 0h-20.5m-10.27 0h-20.5m-10.27 0h-20.5m-10.27 0h-20.52m-10.25 0H800.5m-10.24 0H780v-10.67m0-10.66v-21.34m0-10.66v-21.34m0-10.66v-21.34m0-10.66v-21.34m0-10.66V120h10.26" stroke="#000" stroke-width="2" fill="none"/><path d="M520 165h120v80H520z" stroke="#000" stroke-width="2" fill="#fff"/><use xlink:href="#i" transform="matrix(1,0,0,1,525,170) translate(10.549999999999997 38.4625)"/><use xlink:href="#j" transform="matrix(1,0,0,1,525,170) translate(62.45 38.4625)"/><path d="M300 167.5h120v75H300z" stroke="#000" stroke-width="2" fill="#fff"/><use xlink:href="#k" transform="matrix(1,0,0,1,305,172.5) translate(8.099999999999994 36.74375)"/><use xlink:href="#l" transform="matrix(1,0,0,1,305,172.5) translate(51 36.74375)"/><path d="M440 660h80v80h-80v-80z" stroke="#fff" stroke-opacity="0" stroke-width="2" fill="#3b48cc"/><path d="M491.7 690.1c0-3.07-6.08-4.5-11.75-4.5s-11.74 1.43-11.74 4.5c0 .18.04.3.06.47v19.24c-.05 3.24 6.04 4.6 11.74 4.6s11.73-1.42 11.73-4.5v-19.8zm-11.73-2.38c6.2 0 9.6 1.7 9.6 2.4 0 .68-3.36 2.38-9.6 2.38-6.25 0-9.6-1.67-9.6-2.4 0-.68 3.37-2.38 9.6-2.38zm9.6 22.18c0 .7-3.36 2.36-9.6 2.36-6.23 0-9.6-1.67-9.6-2.36v-3.37c2.24 1.24 6.03 1.8 9.6 1.8 3.58 0 7.32-.56 9.6-1.77zm0-6.08c0 .7-3.36 2.4-9.6 2.4-6.25 0-9.6-1.7-9.6-2.4h.03v-4.06c2.26 1.2 6.02 1.78 9.6 1.78 3.57 0 7.3-.57 9.6-1.75zm0-6.8c0 .7-3.36 2.42-9.6 2.42-6.25 0-9.6-1.73-9.6-2.42h.03v-4.14c2.28 1.2 6 1.75 9.6 1.75 3.6 0 7.38-.57 9.6-1.8zM456.97 724.55H464v2.13h-9.6c-.6 0-1.07-.48-1.07-1.07V716h2.13v7.02l8-8 1.5 1.5zM506.67 716v9.6c0 .6-.48 1.08-1.07 1.08H496v-2.14h7.03l-7.88-7.9 1.5-1.5 7.9 7.88v-7zM506.67 674.4v9.6h-2.13v-7.03l-7.88 7.88-1.5-1.5 7.85-7.88h-7v-2.13h9.6c.6 0 1.07.48 1.07 1.07zM464.96 683.47l-1.5 1.5-8-8V684h-2.13v-9.6c0-.6.48-1.08 1.07-1.08h9.6v2.13h-7.03zM463.64 709.56c-6.52-2.34-10.25-5.94-10.25-9.83 0-3.9 3.72-7.46 10.24-9.82l.72 2c-5.53 2.02-8.84 4.93-8.84 7.83 0 2.9 3.3 5.82 8.84 7.82zM495.77 709.8l-.7-2.04c5.93-2 9.47-5 9.47-8.03 0-3.03-3.54-6.03-9.46-8.04l.7-2.03c6.9 2.34 10.9 6.02 10.9 10.06 0 4.05-4 7.7-10.9 10.06z" stroke="#fff" stroke-opacity="0" stroke-width="2" fill="#fff"/><use xlink:href="#m" transform="matrix(1,0,0,1,410,749) translate(19.549999999999997 14.4)"/><use xlink:href="#n" transform="matrix(1,0,0,1,410,749) translate(49.5 14.4)"/><path d="M1380 165h80v80h-80v-80z" stroke="#fff" stroke-opacity="0" stroke-width="2" fill="#3f8624"/><path d="M1445.53 207.7c-.3-1.65-2.2-2.82-3.53-3.68-.4-.27-1.53-.7-1.64-1.07 0-.26 0-.53.1-.8l1.08-7.64.92-6.77c.25-2.03-.72-3.42-2.4-4.6-3.43-2.4-7.93-3.36-11.96-4-5.32-.85-9.97-1-15.34-.48-4.85.32-8.9 1.28-13.4 3.2-2.24 1.07-5.25 2.73-4.84 5.6 1.02 8.67 2.3 17.32 3.47 25.97.5 3.95 1.06 7.9 1.58 11.86.2 1.65 1.12 2.93 2.65 3.58 3.27 1.76 7.36 2.3 11.1 2.6 5.16.5 9.55.33 14.66-.63 3.06-.53 8.8-1.5 9.3-5.34.6-4.76 1.27-9.52 1.9-14.27l.24-1.44c1.74.42 6.7 1.32 6.1-2.1zm-27.1-27.23c6.45 0 13.76.75 19.48 3.9.93.48 2.97 1.55 2.36 2.88-.6 1.28-2.55 1.92-3.73 2.4-1.74.65-3.32 1.07-5.16 1.45-7.98 1.6-15.03 1.76-23.1.48-3.63-.38-6.65-1.28-9.92-2.9-.77-.47-2.05-1.22-1.7-2.28.27-.6.68-1.02 1.24-1.34 2.5-1.6 4.8-2.56 7.7-3.1 4.4-1.06 8.3-1.55 12.84-1.5zm16.77 44.97c-.2 1.23-2.25 1.87-3.22 2.2-2.15.74-4.04 1.16-6.3 1.43-4.94.64-9.24.64-14.25 0-3.1-.27-5.72-.96-8.53-2.35-.77-.32-1.23-1.02-1.28-1.82-1.07-8.5-2.25-16.93-3.42-25.37l-1.23-9.18c2.55 1.4 4.9 2.24 7.77 2.72 3.12.64 5.72.96 8.9 1.18 6.12.42 11.4.16 17.47-.96 3.23-.5 5.9-1.4 8.75-2.95l-2.25 16.72c-5.72-1.87-10.42-3.74-15.8-6.36-.25-.1-.45-.2-.66-.3-.3-.22-.2-.12-.35-.44-.27-.64-.32-1.07-.88-1.6-.5-.37-1.08-.53-1.7-.48-1.32.05-2.34 1.23-2.24 2.56.1 1.28 1.28 2.3 2.6 2.2.37-.06.67-.17 1.08-.33.4-.1.4-.1.82.12 5.47 2.67 10.22 4.65 16 6.57.82.25.82 0 .82.68-.05.54-.1 1.02-.2 1.55l-.67 5.07zm-16.46-25.26c0 .32-.4.26-.5.1-.16-.2.5-.48.5-.1zm21 7.47l.32-2.35c1.07.64 2.86 1.55 3.37 2.73-1.07.42-2.7-.1-3.68-.38z" stroke="#fff" stroke-opacity="0" stroke-width="2" fill="#fff"/><use xlink:href="#o" transform="matrix(1,0,0,1,1350,254) translate(15.625 14.4)"/><use xlink:href="#p" transform="matrix(1,0,0,1,1350,254) translate(77.525 14.4)"/><use xlink:href="#q" transform="matrix(1,0,0,1,1350,254) translate(87.525 14.4)"/><use xlink:href="#r" transform="matrix(1,0,0,1,1350,254) translate(42.5 36)"/><path d="M1380 380h80v80h-80v-80z" stroke="#fff" stroke-opacity="0" stroke-width="2" fill="#3f8624"/><path d="M1445.53 422.7c-.3-1.65-2.2-2.82-3.53-3.68-.4-.27-1.53-.7-1.64-1.07 0-.26 0-.53.1-.8l1.08-7.64.92-6.77c.25-2.03-.72-3.42-2.4-4.6-3.43-2.4-7.93-3.36-11.96-4-5.32-.85-9.97-1-15.34-.48-4.85.32-8.9 1.28-13.4 3.2-2.24 1.07-5.25 2.73-4.84 5.6 1.02 8.67 2.3 17.32 3.47 25.97.5 3.95 1.06 7.9 1.58 11.86.2 1.65 1.12 2.93 2.65 3.58 3.27 1.76 7.36 2.3 11.1 2.6 5.16.5 9.55.33 14.66-.63 3.06-.53 8.8-1.5 9.3-5.34.6-4.76 1.27-9.52 1.9-14.27l.24-1.44c1.74.42 6.7 1.32 6.1-2.1zm-27.1-27.23c6.45 0 13.76.75 19.48 3.9.93.48 2.97 1.55 2.36 2.88-.6 1.28-2.55 1.92-3.73 2.4-1.74.65-3.32 1.07-5.16 1.45-7.98 1.6-15.03 1.76-23.1.48-3.63-.38-6.65-1.28-9.92-2.9-.77-.47-2.05-1.22-1.7-2.28.27-.6.68-1.02 1.24-1.34 2.5-1.6 4.8-2.56 7.7-3.1 4.4-1.06 8.3-1.55 12.84-1.5zm16.77 44.97c-.2 1.23-2.25 1.87-3.22 2.2-2.15.74-4.04 1.16-6.3 1.43-4.94.64-9.24.64-14.25 0-3.1-.27-5.72-.96-8.53-2.35-.77-.32-1.23-1.02-1.28-1.82-1.07-8.5-2.25-16.93-3.42-25.37l-1.23-9.18c2.55 1.4 4.9 2.24 7.77 2.72 3.12.64 5.72.96 8.9 1.18 6.12.42 11.4.16 17.47-.96 3.23-.5 5.9-1.4 8.75-2.95l-2.25 16.72c-5.72-1.87-10.42-3.74-15.8-6.36-.25-.1-.45-.2-.66-.3-.3-.22-.2-.12-.35-.44-.27-.64-.32-1.07-.88-1.6-.5-.37-1.08-.53-1.7-.48-1.32.05-2.34 1.23-2.24 2.56.1 1.28 1.28 2.3 2.6 2.2.37-.06.67-.17 1.08-.33.4-.1.4-.1.82.12 5.47 2.67 10.22 4.65 16 6.57.82.25.82 0 .82.68-.05.54-.1 1.02-.2 1.55l-.67 5.07zm-16.46-25.26c0 .32-.4.26-.5.1-.16-.2.5-.48.5-.1zm21 7.47l.32-2.35c1.07.64 2.86 1.55 3.37 2.73-1.07.42-2.7-.1-3.68-.38z" stroke="#fff" stroke-opacity="0" stroke-width="2" fill="#fff"/><use xlink:href="#s" transform="matrix(1,0,0,1,1350,469) translate(16.549999999999997 14.4)"/><use xlink:href="#r" transform="matrix(1,0,0,1,1350,469) translate(68.45 14.4)"/><path d="M1160 550h80v80h-80v-80z" stroke="#fff" stroke-opacity="0" stroke-width="2" fill="#3f8624"/><path d="M1225.53 592.7c-.3-1.65-2.2-2.82-3.53-3.68-.4-.27-1.53-.7-1.64-1.07 0-.26 0-.53.1-.8l1.08-7.64.92-6.77c.25-2.03-.72-3.42-2.4-4.6-3.43-2.4-7.93-3.36-11.96-4-5.32-.85-9.97-1-15.34-.48-4.85.32-8.9 1.28-13.4 3.2-2.24 1.07-5.25 2.73-4.84 5.6 1.02 8.67 2.3 17.32 3.47 25.97.5 3.95 1.06 7.9 1.58 11.86.2 1.65 1.12 2.93 2.65 3.58 3.27 1.76 7.36 2.3 11.1 2.6 5.16.5 9.55.33 14.66-.63 3.06-.53 8.8-1.5 9.3-5.34.6-4.76 1.27-9.52 1.9-14.27l.24-1.44c1.74.42 6.7 1.32 6.1-2.1zm-27.1-27.23c6.45 0 13.76.75 19.48 3.9.93.48 2.97 1.55 2.36 2.88-.6 1.28-2.55 1.92-3.73 2.4-1.74.65-3.32 1.07-5.16 1.45-7.98 1.6-15.03 1.76-23.1.48-3.63-.38-6.65-1.28-9.92-2.9-.77-.47-2.05-1.22-1.7-2.28.27-.6.68-1.02 1.24-1.34 2.5-1.6 4.8-2.56 7.7-3.1 4.4-1.06 8.3-1.55 12.84-1.5zm16.77 44.97c-.2 1.23-2.25 1.87-3.22 2.2-2.15.74-4.04 1.16-6.3 1.43-4.94.64-9.24.64-14.25 0-3.1-.27-5.72-.96-8.53-2.35-.77-.32-1.23-1.02-1.28-1.82-1.07-8.5-2.25-16.93-3.42-25.37l-1.23-9.18c2.55 1.4 4.9 2.24 7.77 2.72 3.12.64 5.72.96 8.9 1.18 6.12.42 11.4.16 17.47-.96 3.23-.5 5.9-1.4 8.75-2.95l-2.25 16.72c-5.72-1.87-10.42-3.74-15.8-6.36-.25-.1-.45-.2-.66-.3-.3-.22-.2-.12-.35-.44-.27-.64-.32-1.07-.88-1.6-.5-.37-1.08-.53-1.7-.48-1.32.05-2.34 1.23-2.24 2.56.1 1.28 1.28 2.3 2.6 2.2.37-.06.67-.17 1.08-.33.4-.1.4-.1.82.12 5.47 2.67 10.22 4.65 16 6.57.82.25.82 0 .82.68-.05.54-.1 1.02-.2 1.55l-.67 5.07zm-16.46-25.26c0 .32-.4.26-.5.1-.16-.2.5-.48.5-.1zm21 7.47l.32-2.35c1.07.64 2.86 1.55 3.37 2.73-1.07.42-2.7-.1-3.68-.38z" stroke="#fff" stroke-opacity="0" stroke-width="2" fill="#fff"/><use xlink:href="#t" transform="matrix(1,0,0,1,1130,639) translate(14.024999999999999 14.4)"/><use xlink:href="#r" transform="matrix(1,0,0,1,1130,639) translate(70.975 14.4)"/><path d="M1160 360h80v80h-80v-80z" stroke="#fff" stroke-opacity="0" stroke-width="2" fill="#d86613"/><path d="M1199.76 428.74c-.2 0-.4-.06-.53-.18l-24.28-13.97c-.4-.24-.58-.6-.58-1v-28.35c0-.4.2-.74.58-.97l22.33-12.9c.44-.33 1.12-.16 1.46.3.15.23.2.46.2.7v12.3c0 .34-.2.7-.54.92l-11.2 6.38v14.9l12.6 7.25 11-6.4c.35-.22.74-.22 1.08 0l10.56 6.1c.38.18.58.53.58 1 0 .4-.2.74-.58.9l-22.14 12.83c-.15.12-.34.18-.54.18zm-23.2-15.88l23.8 13.75 20.42-11.84-8.5-4.9-11.35 6.57c-.4.17-.78.17-1.17 0l-14.15-8.17c-.38-.23-.58-.57-.58-.98V391.4c0-.4.2-.74.6-.97l11.13-6.38v-9.78L1176.5 386z" stroke="#fff" stroke-opacity="0" stroke-width="2" fill="#fff"/><path d="M1224.48 412.27c-.23 0-.4-.04-.57-.17l-10.57-6.1c-.37-.2-.56-.53-.56-.98v-12.9l-11.17-6.43c-.37-.2-.57-.58-.57-1v-12.28c0-.4.2-.77.57-.94.32-.2.7-.2 1.06 0l22.4 12.86c.38.2.57.57.57.98v25.76c0 .45-.2.78-.56.98-.2.12-.37.2-.6.2zm-9.55-7.95l8.54 4.92v-23.22l-20.27-11.7v9.7l11.2 6.5c.36.2.58.54.56 1z" stroke="#fff" stroke-opacity="0" stroke-width="2" fill="#fff"/><use xlink:href="#u" transform="matrix(1,0,0,1,1130,449) translate(44.025 14.4)"/><path d="M328.12 669h-9.58c-.48 0-.93-.3-1.12-.74L304 639.48h-5.42c-.68 0-1.25-.56-1.25-1.25v-8.3c0-.7.57-1.25 1.25-1.25h11.95c.5 0 .93.28 1.12.72l13.4 28.78h3.07c.67 0 1.25.57 1.25 1.3v8.26c0 .68-.58 1.25-1.25 1.25zm-8.8-2.55h7.52v-5.73h-2.6c-.48 0-.93-.28-1.12-.72l-13.36-28.82h-9.9v5.76h4.93c.5 0 .95.28 1.15.73z" stroke="#fff" stroke-opacity="0" fill="#d86613"/><path d="M302.12 669H291.9c-.7 0-1.26-.6-1.26-1.3 0-.18.04-.33.13-.5l10.7-22.4c.2-.46.63-.73 1.13-.73.5 0 .9.25 1.13.7l5.12 10.6c.16.34.16.7 0 1.06l-5.6 11.83c-.2.45-.64.73-1.13.73zm-8.22-2.53h7.4l5.06-10.56-3.78-7.67z" stroke="#fff" stroke-opacity="0" fill="#d86613"/><path d="M310.4 680.8c-16.34 0-29.6-13.26-29.6-29.6 0-16.34 13.26-29.6 29.6-29.6 16.34 0 29.6 13.26 29.6 29.6 0 16.34-13.26 29.6-29.6 29.6zm0-56.65c-14.98 0-27.05 12.07-27.05 27.05s12.07 27.05 27.05 27.05 27.05-12.07 27.05-27.05-12.07-27.05-27.05-27.05z" stroke="#fff" stroke-opacity="0" fill="#d86613"/><use xlink:href="#v" transform="matrix(1,0,0,1,250.79999999999995,689.8) translate(32.075 14.4)"/><path d="M707.96 838.03h-9.7c-.5 0-.95-.3-1.15-.74l-13.6-29.18h-5.48c-.7 0-1.27-.57-1.27-1.26v-8.42c0-.7.58-1.27 1.27-1.27h12.1c.53 0 .95.3 1.15.74l13.57 29.18h3.12c.68 0 1.27.57 1.27 1.3v8.38c0 .7-.6 1.27-1.27 1.27zm-8.93-2.58h7.63v-5.8h-2.63c-.5 0-.94-.28-1.14-.73l-13.55-29.2H679.3v5.83h5.02c.52 0 .97.28 1.17.73z" stroke="#fff" stroke-opacity="0" fill="#d86613"/><path d="M681.6 838.03h-10.36c-.7 0-1.27-.6-1.27-1.3 0-.2.04-.35.13-.52l10.84-22.7c.22-.45.65-.73 1.15-.73.5 0 .92.26 1.14.7l5.2 10.74c.16.37.16.75 0 1.1l-5.68 12c-.22.45-.65.73-1.15.73zm-8.32-2.55h7.5l5.12-10.7-3.83-7.8z" stroke="#fff" stroke-opacity="0" fill="#d86613"/><path d="M690 850c-16.56 0-30-13.44-30-30 0-16.56 13.44-30 30-30 16.56 0 30 13.44 30 30 0 16.56-13.44 30-30 30zm0-57.42c-15.18 0-27.42 12.24-27.42 27.42 0 15.18 12.24 27.42 27.42 27.42 15.18 0 27.42-12.24 27.42-27.42 0-15.18-12.24-27.42-27.42-27.42z" stroke="#fff" stroke-opacity="0" fill="#d86613"/><use xlink:href="#w" transform="matrix(1,0,0,1,630,859) translate(14.024999999999999 14.4)"/><use xlink:href="#x" transform="matrix(1,0,0,1,630,859) translate(76.975 14.4)"/><path d="M1055.95 996.03h-11.33c-.57 0-1.1-.33-1.32-.86l-15.88-34.03h-6.4c-.8 0-1.48-.66-1.48-1.47v-9.82c0-.8.68-1.48 1.48-1.48h14.13c.6 0 1.1.33 1.33.86l15.83 34.03h3.65c.8 0 1.48.66 1.48 1.52v9.77c0 .8-.68 1.48-1.48 1.48zm-10.42-3h8.9v-6.77h-3.06c-.57 0-1.1-.33-1.33-.86l-15.8-34.07h-11.7v6.8h5.83c.6 0 1.14.34 1.36.87z" stroke="#fff" stroke-opacity="0" fill="#d86613"/><path d="M1025.2 996.03h-12.1c-.8 0-1.46-.68-1.46-1.5 0-.24.04-.42.15-.62l12.63-26.48c.26-.53.76-.85 1.34-.85.6 0 1.1.3 1.35.83l6.05 12.52c.2.4.2.85 0 1.26l-6.62 14c-.26.53-.76.85-1.34.85zm-9.7-2.98h8.76l5.96-12.5-4.47-9.06z" stroke="#fff" stroke-opacity="0" fill="#d86613"/><path d="M1035 1010c-19.32 0-35-15.68-35-35s15.68-35 35-35 35 15.68 35 35-15.68 35-35 35zm0-67c-17.7 0-32 14.3-32 32s14.3 32 32 32 32-14.3 32-32-14.3-32-32-32z" stroke="#fff" stroke-opacity="0" fill="#d86613"/><use xlink:href="#y" transform="matrix(1,0,0,1,970,1019) translate(6.099999999999994 14.4)"/><use xlink:href="#z" transform="matrix(1,0,0,1,970,1019) translate(53.05 14.4)"/><use xlink:href="#A" transform="matrix(1,0,0,1,970,1019) translate(77 14.4)"/><path d="M943.95 614.03H931c-.65 0-1.26-.38-1.52-.98l-18.14-38.9h-7.32c-.9 0-1.7-.75-1.7-1.68v-11.22c0-.92.8-1.68 1.7-1.68h16.15c.7 0 1.26.38 1.52.98l18.1 38.9h4.15c.9 0 1.68.75 1.68 1.73v11.17c0 .92-.78 1.68-1.68 1.68zm-11.9-3.43h10.16v-7.73h-3.5c-.64 0-1.25-.38-1.5-.98l-18.07-38.96h-13.38v7.8h6.67c.7 0 1.3.37 1.56.97z" stroke="#fff" stroke-opacity="0" fill="#d86613"/><path d="M908.8 614.03H895c-.9 0-1.68-.77-1.68-1.7 0-.28.05-.48.17-.72l14.45-30.26c.3-.6.87-.97 1.53-.97.67 0 1.24.33 1.54.94l6.9 14.32c.23.47.23.97 0 1.45l-7.55 16c-.3.6-.87.96-1.54.96zm-11.1-3.4h10.02l6.8-14.27-5.1-10.37z" stroke="#fff" stroke-opacity="0" fill="#d86613"/><path d="M920 630c-22.08 0-40-17.92-40-40s17.92-40 40-40 40 17.92 40 40-17.92 40-40 40zm0-76.56c-20.24 0-36.56 16.32-36.56 36.56 0 20.24 16.32 36.56 36.56 36.56 20.24 0 36.56-16.32 36.56-36.56 0-20.24-16.32-36.56-36.56-36.56z" stroke="#fff" stroke-opacity="0" fill="#d86613"/><use xlink:href="#B" transform="matrix(1,0,0,1,850,639) translate(46.025 14.4)"/><path d="M980 490h60v60h-60v-60z" stroke="#fff" stroke-opacity="0" stroke-width="2" fill="#cc2264"/><path d="M1023.66 530.74V530.74zM1013.16 514.8l-.08.15c.03-.05.06-.1.07-.16z" stroke="#fff" stroke-opacity="0" stroke-width="2" fill="#fff"/><path d="M1006.23 512.02c-.72 0-7-.05-7 2.33 0 .14.02.3.08.44l.08.15 4.35 9.6v4.96c0 .53.2.82.65.82h.2c1.07-.27 1.9-.7 2.75-1.4l.54-.4c.24-.14.36-.38.38-.67v-3.27l4.83-9.6c.04-.05.05-.1.07-.16.05-.14.08-.3.08-.44 0-2.4-6.3-2.36-7-2.36zm0 1.47c2.8 0 4.63.5 5.24.85-.6.35-2.4.84-5.24.84-2.86 0-4.64-.5-5.24-.85.6-.35 2.4-.86 5.23-.86zm.57 10.4v3.64l-.3.2c-.45.26-.86.44-1.32.68v-4.03c0-.12-.02-.2-.06-.32l-3.4-7.8c1.55.35 2.9.5 4.5.5 1.56 0 2.87-.13 4.4-.46z" stroke="#fff" stroke-opacity="0" stroke-width="2" fill="#fff"/><path d="M1020.8 534.14c-3.27 2.38-6.73 3.5-10.76 3.45-8.7 0-16.12-5.65-17.9-14 1.68-.1 3-1.2 3.37-2.8h4.08v-1.5h-4.07c-.32-1.65-1.65-2.8-3.32-2.92 2.43-9.85 12.4-15.87 22.25-13.46 2.3.58 4.13 1.42 6.07 2.76l.9-1.26c-2.3-1.6-4.53-2.57-7.27-3.15-10.8-2.26-21.4 4.68-23.68 15.5-.8.34-1.36.92-1.73 1.72-.83 1.8-.07 3.94 1.73 4.75 1.97 9.4 10 15.95 19.6 15.95 4.35 0 8.08-1.2 11.65-3.76zM989.98 520c0-1 .77-1.9 1.77-2h.27c1.1 0 2 .87 2 2 0 1.1-.9 1.98-2 1.98-1.1.04-2-.88-2-1.95V520z" stroke="#fff" stroke-opacity="0" stroke-width="2" fill="#fff"/><path d="M1028 523.6c1.73 0 3.17-1.15 3.53-2.87.4-1.92-.84-3.84-2.8-4.26-1.92-.4-3.84.83-4.25 2.78h-4.16v-9.88h2.17c.18 1.5 1.24 2.66 2.73 3.02 1.94.46 3.87-.75 4.33-2.7.45-1.92-.76-3.85-2.7-4.32-1.93-.44-3.86.77-4.32 2.7l-2.94-.04c-.07-.03-.13-.03-.2-.03-.36.04-.63.37-.6.72v10.5h-6.15v1.48h6.16v10.47c0 .45.35.8.8.8h2.5c.3 1.45 1.37 2.54 2.83 2.84 1.95.4 3.85-.88 4.25-2.83.38-1.95-.88-3.85-2.83-4.23-1.95-.38-3.85.86-4.24 2.8h-1.74l-.04-9.84h4.16c.34 1.72 1.78 2.9 3.52 2.9zm0-5.6c1.1 0 2 .9 2 2 0 1.12-.9 2-2 2s-2-.88-2-2c0-1.1.9-2 2-2zm-2-11.14c1.1.03 1.98.92 1.98 2 0 1.1-.9 2-2 2s-1.98-.9-1.98-2v-.02c0-1.1.9-1.98 2-1.98zm-.4 22.33c1.1 0 2 .88 2 2 .02 1.1-.9 1.98-2 2-1 0-1.84-.73-1.98-1.76v-.24c0-.15.02-.27.06-.4.2-.93.97-1.58 1.9-1.6z" stroke="#fff" stroke-opacity="0" stroke-width="2" fill="#fff"/><use xlink:href="#C" transform="matrix(1,0,0,1,950,559) translate(41.525 14.4)"/><path d="M980 660h60v60h-60v-60z" stroke="#fff" stroke-opacity="0" stroke-width="2" fill="#cc2264"/><path d="M1022.8 685.2v-4.8c0-.44-.36-.8-.8-.8h-11.2v-1.68c1.6-.32 2.78-1.52 3.1-3.12.47-2.16-.94-4.28-3.1-4.72-2.17-.44-4.27.96-4.73 3.12-.42 2.16.95 4.28 3.12 4.72v1.68H998c-.46 0-.78.36-.78.8v3.2h-6.43c-.44 0-.8.36-.8.8v4c0 .44.36.8.8.8h6.42v1.6h-6.43c-.44 0-.8.36-.8.8v4c0 .44.36.8.8.8h6.42v3.2c0 .44.32.8.78.8h11.2v1.68c-1.62.32-2.8 1.52-3.13 3.12-.42 2.16.95 4.28 3.12 4.72 2.15.44 4.28-.96 4.7-3.12.47-2.16-.94-4.28-3.1-4.72v-1.68h11.2c.44 0 .8-.36.8-.8v-4h-1.6v3.2h-22.4v-2.4h6.4c.45 0 .8-.36.8-.8v-4c0-.44-.35-.8-.8-.8h-6.4v-1.6h6.4c.45 0 .8-.36.8-.8v-4c0-.44-.35-.8-.8-.8h-6.4v-2.4h22.4v4zm-10.4 20.8c0 1.32-1.08 2.4-2.4 2.4-1.34 0-2.4-1.08-2.4-2.4 0-1.32 1.06-2.4 2.4-2.4 1.32 0 2.4 1.08 2.4 2.4zm-8-13.6v2.4h-12.8v-2.4zm0-7.2v2.4h-12.8v-2.4zm3.2-11.2c0-1.32 1.06-2.4 2.4-2.4 1.32 0 2.4 1.08 2.4 2.4 0 1.32-1.08 2.4-2.4 2.4-1.34 0-2.4-1.08-2.4-2.4z" stroke="#fff" stroke-opacity="0" stroke-width="2" fill="#fff"/><path d="M1029.2 686.8h-16c-.45 0-.8.36-.8.8v5.6c0 .44.35.8.8.8h16c.45 0 .8-.36.8-.8v-5.6c0-.44-.35-.8-.8-.8zm-.8 5.6H1014v-4h14.4z" stroke="#fff" stroke-opacity="0" stroke-width="2" fill="#fff"/><use xlink:href="#D" transform="matrix(1,0,0,1,950,729) translate(21.5 14.4)"/><use xlink:href="#E" transform="matrix(1,0,0,1,950,729) translate(66.5 14.4)"/><use xlink:href="#F" transform="matrix(1,0,0,1,950,729) translate(15.549999999999997 36)"/><path d="M916 205h123.6" stroke="#000" stroke-width="2" fill="none"/><path d="M900.74 205l14.26-4.64v9.28z" stroke="#000" stroke-width="2"/><path d="M1040.6 206h-1.03v-2h1.02z"/><path d="M1135.85 205h225.65" stroke="#000" stroke-width="2" fill="none"/><path d="M1135.88 206h-1.03v-2h1.03z"/><path d="M1376.76 205l-14.26 4.64v-9.28z" stroke="#000" stroke-width="2"/><path d="M1420 246v115.5" stroke="#000" stroke-width="2" fill="none"/><path d="M1421 246.03h-2V245h2z"/><path d="M1420 376.76l-4.64-14.26h9.28z" stroke="#000" stroke-width="2"/><path d="M1200 341.5V320h140v100h21.5" stroke="#000" stroke-width="2" fill="none"/><path d="M1200 356.76l-4.64-14.26h9.28zM1376.76 420l-14.26 4.64v-9.28z" stroke="#000" stroke-width="2"/><path d="M980 310h60v60h-60v-60z" stroke="#fff" stroke-opacity="0" stroke-width="2" fill="#cc2264"/><path d="M1023.66 350.74V350.74zM1013.16 334.8l-.08.15c.03-.05.06-.1.07-.16z" stroke="#fff" stroke-opacity="0" stroke-width="2" fill="#fff"/><path d="M1006.23 332.02c-.72 0-7-.05-7 2.33 0 .14.02.3.08.44l.08.15 4.35 9.6v4.96c0 .53.2.82.65.82h.2c1.07-.27 1.9-.7 2.75-1.4l.54-.4c.24-.14.36-.38.38-.67v-3.27l4.83-9.6c.04-.05.05-.1.07-.16.05-.14.08-.3.08-.44 0-2.4-6.3-2.36-7-2.36zm0 1.47c2.8 0 4.63.5 5.24.85-.6.35-2.4.84-5.24.84-2.86 0-4.64-.5-5.24-.85.6-.35 2.4-.86 5.23-.86zm.57 10.4v3.64l-.3.2c-.45.26-.86.44-1.32.68v-4.03c0-.12-.02-.2-.06-.32l-3.4-7.8c1.55.35 2.9.5 4.5.5 1.56 0 2.87-.13 4.4-.46z" stroke="#fff" stroke-opacity="0" stroke-width="2" fill="#fff"/><path d="M1020.8 354.14c-3.27 2.38-6.73 3.5-10.76 3.45-8.7 0-16.12-5.65-17.9-14 1.68-.1 3-1.2 3.37-2.8h4.08v-1.5h-4.07c-.32-1.65-1.65-2.8-3.32-2.92 2.43-9.85 12.4-15.87 22.25-13.46 2.3.58 4.13 1.42 6.07 2.76l.9-1.26c-2.3-1.6-4.53-2.57-7.27-3.15-10.8-2.26-21.4 4.68-23.68 15.5-.8.34-1.36.92-1.73 1.72-.83 1.8-.07 3.94 1.73 4.75 1.97 9.4 10 15.95 19.6 15.95 4.35 0 8.08-1.2 11.65-3.76zM989.98 340c0-1 .77-1.9 1.77-2h.27c1.1 0 2 .87 2 2 0 1.1-.9 1.98-2 1.98-1.1.04-2-.88-2-1.95V340z" stroke="#fff" stroke-opacity="0" stroke-width="2" fill="#fff"/><path d="M1028 343.6c1.73 0 3.17-1.15 3.53-2.87.4-1.92-.84-3.84-2.8-4.26-1.92-.4-3.84.83-4.25 2.78h-4.16v-9.88h2.17c.18 1.5 1.24 2.66 2.73 3.02 1.94.46 3.87-.75 4.33-2.7.45-1.92-.76-3.85-2.7-4.32-1.93-.44-3.86.77-4.32 2.7l-2.94-.04c-.07-.03-.13-.03-.2-.03-.36.04-.63.37-.6.72v10.5h-6.15v1.48h6.16v10.47c0 .45.35.8.8.8h2.5c.3 1.45 1.37 2.54 2.83 2.84 1.95.4 3.85-.88 4.25-2.83.38-1.95-.88-3.85-2.83-4.23-1.95-.38-3.85.86-4.24 2.8h-1.74l-.04-9.84h4.16c.34 1.72 1.78 2.9 3.52 2.9zm0-5.6c1.1 0 2 .9 2 2 0 1.12-.9 2-2 2s-2-.88-2-2c0-1.1.9-2 2-2zm-2-11.14c1.1.03 1.98.92 1.98 2 0 1.1-.9 2-2 2s-1.98-.9-1.98-2v-.02c0-1.1.9-1.98 2-1.98zm-.4 22.33c1.1 0 2 .88 2 2 .02 1.1-.9 1.98-2 2-1 0-1.84-.73-1.98-1.76v-.24c0-.15.02-.27.06-.4.2-.93.97-1.58 1.9-1.6z" stroke="#fff" stroke-opacity="0" stroke-width="2" fill="#fff"/><use xlink:href="#C" transform="matrix(1,0,0,1,950,379) translate(41.525 14.4)"/><path d="M811.03 219.52l-99.56 125.96" stroke="#000" stroke-width="2" fill="none"/><path d="M815.28 221.6l-7.27-5.74 12.5-8.32z"/><path d="M815.74 223.24l-9.43-7.45 16.2-10.8zm-6.03-7.3l5.12 4.03 3.67-9.9z"/><path d="M702 357.46l5.22-14.07 7.27 5.74z" stroke="#000" stroke-width="2"/><path d="M400 280h120v80H400z" stroke="#000" stroke-width="2" fill="#fff"/><use xlink:href="#G" transform="matrix(1,0,0,1,405,285) translate(11.049999999999997 38.4625)"/><use xlink:href="#H" transform="matrix(1,0,0,1,405,285) translate(48.05 38.4625)"/><path d="M537.04 329.23l106.92 61.54" stroke="#000" stroke-width="2" fill="none"/><path d="M523.8 321.6l14.68 3.1-4.62 8.05zM657.2 398.4l-14.68-3.1 4.62-8.05z" stroke="#000" stroke-width="2"/><path d="M659.5 205H804" stroke="#000" stroke-width="2" fill="none"/><path d="M644.24 205l14.26-4.64v9.28zM819.26 205L805 209.64v-9.28z" stroke="#000" stroke-width="2"/><path d="M439.5 205h61" stroke="#000" stroke-width="2" fill="none"/><path d="M424.24 205l14.26-4.64v9.28zM515.76 205l-14.26 4.64v-9.28z" stroke="#000" stroke-width="2"/><path d="M822.5 167.5h75v75h-75v-75z" stroke="#fff" stroke-opacity="0" stroke-width="2" fill="#d86613"/><path d="M859.78 231.94c-.18 0-.37-.05-.5-.16l-22.76-13.1c-.37-.22-.55-.54-.55-.92v-26.58c0-.38.18-.7.55-.92l20.93-12.08c.4-.32 1.05-.16 1.37.27.14.22.18.43.18.65v11.54c0 .32-.18.64-.5.86l-10.5 5.98v13.97l11.82 6.8 10.3-6c.33-.2.7-.2 1.02 0l9.9 5.72c.36.17.54.5.54.92 0 .37-.18.7-.55.85l-20.75 12.03c-.14.1-.32.16-.5.16zm-21.76-14.88l22.3 12.9 19.16-11.12-7.98-4.6-10.63 6.16c-.36.16-.73.16-1.1 0l-13.26-7.66c-.36-.2-.54-.53-.54-.9v-14.9c0-.37.18-.7.55-.9l10.45-6v-9.16l-18.97 11z" stroke="#fff" stroke-opacity="0" stroke-width="2" fill="#fff"/><path d="M882.95 216.5c-.2 0-.37-.04-.53-.15l-9.92-5.72c-.35-.2-.53-.5-.53-.92v-12.1l-10.47-6c-.35-.2-.53-.55-.53-.94v-11.5c0-.4.18-.74.53-.9.3-.2.67-.2 1 0l21 12.06c.35.2.53.54.53.92v24.15c0 .4-.18.72-.53.9-.18.12-.35.2-.55.2zm-8.95-7.45l8 4.6V191.9l-19-11v9.1l10.5 6.12c.34.2.54.5.52.92z" stroke="#fff" stroke-opacity="0" stroke-width="2" fill="#fff"/><use xlink:href="#I" transform="matrix(1,0,0,1,792.5,251.5) translate(27.574999999999996 14.4)"/><use xlink:href="#J" transform="matrix(1,0,0,1,792.5,251.5) translate(67.525 14.4)"/><path d="M358.5 651.2H390V700h31.5" stroke="#000" stroke-width="2" fill="none"/><path d="M343.24 651.2l14.26-4.64v9.28zM436.76 700l-14.26 4.64v-9.28z" stroke="#000" stroke-width="2"/><path d="M762.5 560h60v60h-60v-60z" stroke="#fff" stroke-opacity="0" stroke-width="2" fill="#cc2264"/><path d="M806.16 600.74V600.74zM795.66 584.8l-.08.15c.03-.05.06-.1.07-.16z" stroke="#fff" stroke-opacity="0" stroke-width="2" fill="#fff"/><path d="M788.73 582.02c-.72 0-7-.05-7 2.33 0 .14.02.3.08.44l.08.15 4.35 9.6v4.96c0 .53.2.82.65.82h.2c1.07-.27 1.9-.7 2.75-1.4l.54-.4c.24-.14.36-.38.38-.67v-3.27l4.83-9.6c.04-.05.05-.1.07-.16.05-.14.08-.3.08-.44 0-2.4-6.3-2.36-7-2.36zm0 1.47c2.8 0 4.63.5 5.24.85-.6.35-2.4.84-5.24.84-2.86 0-4.64-.5-5.24-.85.6-.35 2.4-.86 5.23-.86zm.57 10.4v3.64l-.3.2c-.45.26-.86.44-1.32.68v-4.03c0-.12-.02-.2-.06-.32l-3.4-7.8c1.55.35 2.9.5 4.5.5 1.56 0 2.87-.13 4.4-.46z" stroke="#fff" stroke-opacity="0" stroke-width="2" fill="#fff"/><path d="M803.3 604.14c-3.27 2.38-6.73 3.5-10.76 3.45-8.7 0-16.12-5.65-17.9-14 1.68-.1 3-1.2 3.37-2.8h4.08v-1.5H778c-.32-1.65-1.65-2.8-3.32-2.92 2.43-9.85 12.4-15.87 22.25-13.46 2.3.58 4.13 1.42 6.07 2.76l.9-1.26c-2.3-1.6-4.53-2.57-7.27-3.15-10.8-2.26-21.4 4.68-23.68 15.5-.8.34-1.36.92-1.73 1.72-.83 1.8-.07 3.94 1.73 4.75 1.97 9.4 10 15.95 19.6 15.95 4.35 0 8.08-1.2 11.65-3.76zM772.48 590c0-1 .77-1.9 1.77-2h.27c1.1 0 2 .87 2 2 0 1.1-.9 1.98-2 1.98-1.1.04-2-.88-2-1.95V590z" stroke="#fff" stroke-opacity="0" stroke-width="2" fill="#fff"/><path d="M810.5 593.6c1.73 0 3.17-1.15 3.53-2.87.4-1.92-.84-3.84-2.8-4.26-1.92-.4-3.84.83-4.25 2.78h-4.16v-9.88H805c.18 1.5 1.24 2.66 2.73 3.02 1.94.46 3.87-.75 4.33-2.7.45-1.92-.76-3.85-2.7-4.32-1.93-.44-3.86.77-4.32 2.7l-2.94-.04c-.07-.03-.13-.03-.2-.03-.36.04-.63.37-.6.72v10.5h-6.15v1.48h6.16v10.47c0 .45.35.8.8.8h2.5c.3 1.45 1.37 2.54 2.83 2.84 1.95.4 3.85-.88 4.25-2.83.38-1.95-.88-3.85-2.83-4.23-1.95-.38-3.85.86-4.24 2.8h-1.74l-.04-9.84h4.16c.34 1.72 1.78 2.9 3.52 2.9zm0-5.6c1.1 0 2 .9 2 2 0 1.12-.9 2-2 2s-2-.88-2-2c0-1.1.9-2 2-2zm-2-11.14c1.1.03 1.98.92 1.98 2 0 1.1-.9 2-2 2s-1.98-.9-1.98-2v-.02c0-1.1.9-1.98 2-1.98zm-.4 22.33c1.1 0 2 .88 2 2 .02 1.1-.9 1.98-2 2-1 0-1.84-.73-1.98-1.76v-.24c0-.15.02-.27.06-.4.2-.93.97-1.58 1.9-1.6z" stroke="#fff" stroke-opacity="0" stroke-width="2" fill="#fff"/><use xlink:href="#C" transform="matrix(1,0,0,1,732.5,629) translate(41.525 14.4)"/><path d="M950 790h120v80H950z" stroke="#000" stroke-width="2" fill="#fff"/><use xlink:href="#K" transform="matrix(1,0,0,1,955,795) translate(20 27.525)"/><use xlink:href="#L" transform="matrix(1,0,0,1,955,795) translate(27 49.125)"/><path d="M810 800h60v60h-60v-60z" stroke="#fff" stroke-opacity="0" stroke-width="2" fill="#cc2264"/><path d="M853.66 840.74V840.74zM843.16 824.8l-.08.15c.03-.05.06-.1.07-.16z" stroke="#fff" stroke-opacity="0" stroke-width="2" fill="#fff"/><path d="M836.23 822.02c-.72 0-7-.05-7 2.33 0 .14.02.3.08.44l.08.15 4.35 9.6v4.96c0 .53.2.82.65.82h.2c1.07-.27 1.9-.7 2.75-1.4l.54-.4c.24-.14.36-.38.38-.67v-3.27l4.83-9.6c.04-.05.05-.1.07-.16.05-.14.08-.3.08-.44 0-2.4-6.3-2.36-7-2.36zm0 1.47c2.8 0 4.63.5 5.24.85-.6.35-2.4.84-5.24.84-2.86 0-4.64-.5-5.24-.85.6-.35 2.4-.86 5.23-.86zm.57 10.4v3.64l-.3.2c-.45.26-.86.44-1.32.68v-4.03c0-.12-.02-.2-.06-.32l-3.4-7.8c1.55.35 2.9.5 4.5.5 1.56 0 2.87-.13 4.4-.46z" stroke="#fff" stroke-opacity="0" stroke-width="2" fill="#fff"/><path d="M850.8 844.14c-3.27 2.38-6.73 3.5-10.76 3.45-8.7 0-16.12-5.65-17.9-14 1.68-.1 3-1.2 3.37-2.8h4.08v-1.5h-4.07c-.32-1.65-1.65-2.8-3.32-2.92 2.43-9.85 12.4-15.87 22.25-13.46 2.3.58 4.13 1.42 6.07 2.76l.9-1.26c-2.3-1.6-4.53-2.57-7.27-3.15-10.8-2.26-21.4 4.68-23.68 15.5-.8.34-1.36.92-1.73 1.72-.83 1.8-.07 3.94 1.73 4.75 1.97 9.4 10 15.95 19.6 15.95 4.35 0 8.08-1.2 11.65-3.76zM819.98 830c0-1 .77-1.9 1.77-2h.27c1.1 0 2 .87 2 2 0 1.1-.9 1.98-2 1.98-1.1.04-2-.88-2-1.95V830z" stroke="#fff" stroke-opacity="0" stroke-width="2" fill="#fff"/><path d="M858 833.6c1.73 0 3.17-1.15 3.53-2.87.4-1.92-.84-3.84-2.8-4.26-1.92-.4-3.84.83-4.25 2.78h-4.16v-9.88h2.17c.18 1.5 1.24 2.66 2.73 3.02 1.94.46 3.87-.75 4.33-2.7.45-1.92-.76-3.85-2.7-4.32-1.93-.44-3.86.77-4.32 2.7l-2.94-.04c-.07-.03-.13-.03-.2-.03-.36.04-.63.37-.6.72v10.5h-6.15v1.48h6.16v10.47c0 .45.35.8.8.8h2.5c.3 1.45 1.37 2.54 2.83 2.84 1.95.4 3.85-.88 4.25-2.83.38-1.95-.88-3.85-2.83-4.23-1.95-.38-3.85.86-4.24 2.8h-1.74l-.04-9.84h4.16c.34 1.72 1.78 2.9 3.52 2.9zm0-5.6c1.1 0 2 .9 2 2 0 1.12-.9 2-2 2s-2-.88-2-2c0-1.1.9-2 2-2zm-2-11.14c1.1.03 1.98.92 1.98 2 0 1.1-.9 2-2 2s-1.98-.9-1.98-2v-.02c0-1.1.9-1.98 2-1.98zm-.4 22.33c1.1 0 2 .88 2 2 .02 1.1-.9 1.98-2 2-1 0-1.84-.73-1.98-1.76v-.24c0-.15.02-.27.06-.4.2-.93.97-1.58 1.9-1.6z" stroke="#fff" stroke-opacity="0" stroke-width="2" fill="#fff"/><use xlink:href="#C" transform="matrix(1,0,0,1,780,869) translate(41.525 14.4)"/><path d="M1241 400h39v110h-80v21.5" stroke="#000" stroke-width="2" fill="none"/><path d="M1241.03 401H1240v-2h1.03z"/><path d="M1200 546.76l-4.64-14.26h9.28z" stroke="#000" stroke-width="2"/><path d="M1071 975h429V420h-21.5" stroke="#000" stroke-width="2" fill="none"/><path d="M1071.03 976h-1.1l.07-1-.07-1h1.1z"/><path d="M1463.24 420l14.26-4.64v9.28z" stroke="#000" stroke-width="2"/><path d="M740.97 399.76l221.08-55.27" stroke="#000" stroke-width="2" fill="none"/><path d="M741.24 400.72l-1.24.3v-2.05l.75-.2z"/><path d="M976.86 340.78l-12.72 7.96-2.24-9z" stroke="#000" stroke-width="2"/><path d="M1040.9 340.45l102.55 51.28" stroke="#000" stroke-width="2" fill="none"/><path d="M1041.36 339.56l-.9 1.8-.46-.24v-2.24z"/><path d="M1157.1 398.55l-14.83-2.23 4.15-8.3z" stroke="#000" stroke-width="2"/><path d="M740.25 400.97l36.6 141.12" stroke="#000" stroke-width="2" fill="none"/><path d="M741.23 400.74l-1.23.32v-4.16l.2-.05z"/><path d="M780.7 556.87l-8.08-12.65 8.97-2.33z" stroke="#000" stroke-width="2"/><path d="M823.5 590h38" stroke="#000" stroke-width="2" fill="none"/><path d="M823.53 591h-1.03v-2h1.03z"/><path d="M876.76 590l-14.26 4.64v-9.28z" stroke="#000" stroke-width="2"/><path d="M721 820.1l70.6 7.86" stroke="#000" stroke-width="2" fill="none"/><path d="M721.13 819.12l-.22 2-.98-.12.08-1-.04-1z"/><path d="M806.78 829.64l-14.7 3.03 1.04-9.2z" stroke="#000" stroke-width="2"/><path d="M871.6 830.75l116.1 130.43M871.62 830.77l-.7-.77" stroke="#000" stroke-width="2" fill="none"/><path d="M997.85 972.58L984.9 965l6.93-6.16z"/><path d="M1000 975l-16.8-9.82 9-8zm-13.4-10.16l9.1 5.33-4.24-9.66z"/><path d="M740.9 400.45l222.55 111.28" stroke="#000" stroke-width="2" fill="none"/><path d="M741.36 399.56l-.9 1.8-.46-.24v-2.24z"/><path d="M977.1 518.55l-14.83-2.23 4.15-8.3z" stroke="#000" stroke-width="2"/><path d="M1041 520h39v100h-70v21.5" stroke="#000" stroke-width="2" fill="none"/><path d="M1041.03 521H1040v-2h1.03z"/><path d="M1010 656.76l-4.64-14.26h9.28z" stroke="#000" stroke-width="2"/><path d="M1041 690h70v140h-21.5" stroke="#000" stroke-width="2" fill="none"/><path d="M1041.03 691H1040v-2h1.03z"/><path d="M1074.24 830l14.26-4.64v9.28z" stroke="#000" stroke-width="2"/><path d="M888.5 830H948" stroke="#000" stroke-width="2" fill="none"/><path d="M873.24 830l14.26-4.64v9.28z" stroke="#000" stroke-width="2"/><path d="M949 831h-1.03v-2H949z"/><path d="M-640 100h180v60h-180z" stroke="#000" stroke-opacity="0" stroke-width="2" fill="#fff" fill-opacity="0"/><use xlink:href="#M" transform="matrix(1,0,0,1,-635,105) translate(0.07407407407406197 30.708333333333336)"/><path d="M-320 180h125v-25l45 50-45 50v-25h-125z" stroke="#000" stroke-width="2" fill="#fff"/><use xlink:href="#N" transform="matrix(1,0,0,1,-315,160) translate(35.574999999999996 36.9)"/><use xlink:href="#O" transform="matrix(1,0,0,1,-315,160) translate(30.549999999999997 58.5)"/><path d="M-120 440H60v560h-180z" stroke="#000" stroke-width="2" fill="#fff"/><path d="M-120 440H40v60h-160z" stroke="#000" stroke-opacity="0" stroke-width="2" fill="#fff" fill-opacity="0"/><use xlink:href="#P" transform="matrix(1,0,0,1,-115,445) translate(17.33333333333333 30.708333333333336)"/><path d="M80 705h95v-25l45 50-45 50v-25H80z" stroke="#000" stroke-width="2" fill="#fff"/><use xlink:href="#Q" transform="matrix(1,0,0,1,85,685) translate(6.599999999999994 48.15)"/><use xlink:href="#p" transform="matrix(1,0,0,1,85,685) translate(51.49999999999999 48.15)"/><use xlink:href="#R" transform="matrix(1,0,0,1,85,685) translate(61.49999999999999 48.15)"/><path d="M-7.82 572.18h-64.36v-64.36h64.36zm-61.02-3.34h57.68v-57.68h-57.68z" stroke="#fff" stroke-opacity="0" fill="#d86613"/><path d="M-62.98 500h3.33v9.48h-3.33V500zM-52.53 500h3.33v9.48h-3.33V500zM-42.07 500h3.34v9.48h-3.34V500zM-31.6 500h3.33v9.48h-3.33V500zM-21.13 500h3.33v9.48h-3.33V500zM-62.98 570.52h3.33V580h-3.33v-9.48zM-52.53 570.52h3.33V580h-3.33v-9.48zM-42.07 570.52h3.34V580h-3.34v-9.48zM-31.6 570.52h3.33V580h-3.33v-9.48zM-21.13 570.52h3.33V580h-3.33v-9.48zM-9.48 517.42H0v3.33h-9.48v-3.33zM-9.48 527.87H0v3.33h-9.48v-3.33zM-9.48 538.33H0v3.34h-9.48v-3.34zM-9.48 548.8H0v3.33h-9.48v-3.33zM-9.48 559.25H0v3.33h-9.48v-3.33zM-80 517.42h9.48v3.33H-80v-3.33zM-80 527.87h9.48v3.33H-80v-3.33zM-80 538.33h9.48v3.34H-80v-3.34zM-80 548.8h9.48v3.33H-80v-3.33zM-80 559.25h9.48v3.33H-80v-3.33z" stroke="#fff" stroke-opacity="0" fill="#d86613"/><use xlink:href="#S" transform="matrix(1,0,0,1,-110,589) translate(19.549999999999997 14.4)"/><use xlink:href="#T" transform="matrix(1,0,0,1,-110,589) translate(77.5 14.4)"/><path d="M-110 630H50v350h-160z" fill="#fff"/><path d="M-88.67 630h21.34m10.66 0h21.34m10.66 0h21.34m10.66 0h21.34m10.66 0H50v9.72m0 9.72v19.45m0 9.7v19.46m0 9.72v19.44m0 9.72v19.45m0 9.7v19.46m0 9.72v19.44m0 9.72v19.45m0 9.7v19.46m0 9.72v19.44m0 9.72v19.45m0 9.7v19.46m0 9.72V980H39.33m-10.66 0H7.33m-10.66 0h-21.34m-10.66 0h-21.34m-10.66 0h-21.34m-10.66 0H-110v-9.72m0-9.72V941.1m0-9.7v-19.46m0-9.72v-19.44m0-9.72V853.6m0-9.7v-19.46m0-9.72v-19.44m0-9.72V766.1m0-9.7v-19.46m0-9.72v-19.44m0-9.72V678.6m0-9.7v-19.46m0-9.72V630h10.67" stroke="#000" stroke-width="2" fill="none"/><path d="M-70 765h60v60h-60v-60z" stroke="#fff" stroke-opacity="0" stroke-width="2" fill="#d86613"/><path d="M-40.18 816.55c-.14 0-.3-.04-.4-.13l-18.2-10.48c-.3-.17-.44-.43-.44-.73v-21.26c0-.3.14-.56.43-.73l16.76-9.66c.33-.25.84-.12 1.1.22.1.17.14.35.14.52v9.23c0 .27-.14.53-.4.7l-8.4 4.8v11.16l9.46 5.44 8.25-4.8c.26-.17.55-.17.8 0l7.93 4.58c.3.13.43.4.43.73 0 .32-.14.57-.43.7l-16.6 9.62c-.12.1-.26.13-.4.13zm-17.4-11.9l17.84 10.3 15.33-8.88-6.4-3.67-8.5 4.92c-.3.13-.6.13-.88 0l-10.62-6.12c-.3-.18-.43-.44-.43-.74v-11.9c0-.3.14-.56.43-.74l8.36-4.8v-7.32l-15.18 8.8z" stroke="#fff" stroke-opacity="0" stroke-width="2" fill="#fff"/><path d="M-21.64 804.2c-.17 0-.3-.03-.43-.12L-30 799.5c-.28-.15-.42-.4-.42-.74v-9.67l-8.38-4.83c-.28-.15-.42-.43-.42-.74v-9.2c0-.32.14-.6.42-.72.24-.14.54-.14.8 0l16.8 9.66c.28.15.42.43.42.73v19.3c0 .35-.14.6-.42.75-.15.1-.28.15-.44.15zm-7.16-5.96l6.4 3.7V784.5l-15.2-8.77V783l8.4 4.9c.27.15.44.4.42.73z" stroke="#fff" stroke-opacity="0" stroke-width="2" fill="#fff"/><use xlink:href="#U" transform="matrix(1,0,0,1,-100,834) translate(15.599999999999994 14.4)"/><use xlink:href="#T" transform="matrix(1,0,0,1,-100,834) translate(61.449999999999996 14.4)"/><path d="M280 960h380v280H280z" stroke="#000" stroke-width="2" fill="#fff"/><path d="M280 960h140v60H280z" stroke="#000" stroke-opacity="0" stroke-width="2" fill="#fff" fill-opacity="0"/><use xlink:href="#V" transform="matrix(1,0,0,1,285,965) translate(11.774999999999999 30.025)"/><path d="M300 1020h160v120H300z" stroke="#000" stroke-width="2" fill="#fff"/><use xlink:href="#W" transform="matrix(1,0,0,1,305,1025) translate(28.674999999999997 38.4625)"/><use xlink:href="#X" transform="matrix(1,0,0,1,305,1025) translate(34.474999999999994 60.0625)"/><use xlink:href="#Y" transform="matrix(1,0,0,1,305,1025) translate(47.525 81.66250000000001)"/><path d="M300 1160h160v60H300z" stroke="#000" stroke-width="2" fill="#fff"/><use xlink:href="#Z" transform="matrix(1,0,0,1,305,1165) translate(5.625 30.025)"/><use xlink:href="#aa" transform="matrix(1,0,0,1,305,1165) translate(64.525 30.025)"/><path d="M480 1020h160v120H480z" stroke="#000" stroke-width="2" fill="#fff"/><use xlink:href="#ab" transform="matrix(1,0,0,1,485,1025) translate(24.074999999999996 38.4625)"/><use xlink:href="#ac" transform="matrix(1,0,0,1,485,1025) translate(18.074999999999996 60.0625)"/><use xlink:href="#ad" transform="matrix(1,0,0,1,485,1025) translate(60.025 60.0625)"/><use xlink:href="#ae" transform="matrix(1,0,0,1,485,1025) translate(88.975 60.0625)"/><use xlink:href="#af" transform="matrix(1,0,0,1,485,1025) translate(53.525 81.66250000000001)"/><path d="M-720-40h280v60h-280z" stroke="#000" stroke-opacity="0" stroke-width="2" fill="#fff" fill-opacity="0"/><use xlink:href="#ag" transform="matrix(1,0,0,1,-715,-35) translate(34.55555555555554 30.708333333333336)"/><use xlink:href="#ah" transform="matrix(1,0,0,1,-715,-35) translate(102.55555555555556 30.708333333333336)"/><path d="M660 360h80v80h-80v-80z" stroke="#fff" stroke-opacity="0" stroke-width="2" fill="#d86613"/><path d="M699.76 428.74c-.2 0-.4-.06-.53-.18l-24.28-13.97c-.4-.24-.58-.6-.58-1v-28.35c0-.4.2-.74.58-.97l22.33-12.9c.44-.33 1.12-.16 1.46.3.15.23.2.46.2.7v12.3c0 .34-.2.7-.54.92l-11.2 6.38v14.9l12.6 7.25 11-6.4c.35-.22.74-.22 1.08 0l10.56 6.1c.38.18.58.53.58 1 0 .4-.2.74-.58.9l-22.14 12.83c-.15.12-.34.18-.54.18zm-23.2-15.88l23.8 13.75 20.42-11.84-8.5-4.9-11.35 6.57c-.4.17-.78.17-1.17 0l-14.15-8.17c-.38-.23-.58-.57-.58-.98V391.4c0-.4.2-.74.6-.97l11.13-6.38v-9.78L676.5 386z" stroke="#fff" stroke-opacity="0" stroke-width="2" fill="#fff"/><path d="M724.48 412.27c-.23 0-.4-.04-.57-.17l-10.57-6.1c-.37-.2-.56-.53-.56-.98v-12.9l-11.17-6.43c-.37-.2-.57-.58-.57-1v-12.28c0-.4.2-.77.57-.94.32-.2.7-.2 1.06 0l22.4 12.86c.38.2.57.57.57.98v25.76c0 .45-.2.78-.56.98-.2.12-.37.2-.6.2zm-9.55-7.95l8.54 4.92v-23.22l-20.27-11.7v9.7l11.2 6.5c.36.2.58.54.56 1z" stroke="#fff" stroke-opacity="0" stroke-width="2" fill="#fff"/><use xlink:href="#ai" transform="matrix(1,0,0,1,630,449) translate(36.05 14.4)"/><path d="M560 460h80v80h-80v-80z" stroke="#fff" stroke-opacity="0" fill="#693cc5"/><path d="M611.74 525.6c-.24 0-.43-.1-.62-.2-.3-.2-.45-.5-.45-.86v-49.08c0-.36.2-.72.5-.92.33-.2.73-.2 1.07-.05l13.88 6.8c.37.15.6.5.6.92v37.7c0 .52-.28.93-.75 1.08l-13.86 4.6h-.36zm1.08-48.4v45.85l11.72-3.9V482.9zM588.26 525.6h-.34l-13.87-4.6c-.45-.15-.73-.6-.72-1.07v-37.7c0-.42.23-.78.6-.93l13.86-6.8c.35-.17.73-.17 1.07.04.32.2.5.56.5.92v49.08c0 .35-.16.66-.45.87-.2.16-.4.2-.66.2zm-12.8-6.4l11.74 3.9v-45.9l-11.74 5.74z" stroke="#fff" stroke-opacity="0" fill="#fff"/><path d="M610.67 489.33h-3.2v-2.13h3.2zm-6.4 0h-3.2v-2.13h3.2zm-6.4 0h-3.2v-2.13h3.2zm-6.4 0h-3.2v-2.13h3.2zM610.67 512.8h-3.2v-2.13h3.2zm-6.4 0h-3.2v-2.13h3.2zm-6.4 0h-3.2v-2.13h3.2zm-6.4 0h-3.2v-2.13h3.2zM595.32 503.67l-4-3.42c-.46-.38-.5-1.06-.13-1.5.03-.05.06-.1.1-.13l4-3.42 1.4 1.62-3.06 2.65 3.05 2.6zM604.7 503.67l-1.4-1.62 3.05-2.58-3.05-2.6 1.38-1.67 4 3.4c.46.4.5 1.07.13 1.52-.03.04-.06.08-.1.1z" stroke="#fff" stroke-opacity="0" fill="#fff"/><path d="M596.86 505.9l4.24-12.52 2.02.7-4.23 12.52-2.04-.7z" stroke="#fff" stroke-opacity="0" stroke-width=".32" fill="#fff"/><use xlink:href="#aj" transform="matrix(1,0,0,1,530,549) translate(17.525 14.4)"/><use xlink:href="#ak" transform="matrix(1,0,0,1,530,549) translate(51.525 14.4)"/><path d="M613.08 446.92l46.2-46.2" stroke="#000" stroke-width="2" fill="none"/><path d="M615.65 450.9l-13.36 6.8 6.8-13.35z"/><path d="M617.33 451.17L600 460l8.83-17.33zm-12.75 4.25l9.4-4.78-4.62-4.6zM660 401.4l-.02.03-1.4-1.4 1.42-1.44z"/><path d="M480 641.5V500h61.5" stroke="#000" stroke-width="2" fill="none"/><path d="M480 656.76l-4.64-14.26h9.28zM556.76 500l-14.26 4.64v-9.28z" stroke="#000" stroke-width="2"/><path d="M690 789V500h-31.5" stroke="#000" stroke-width="2" fill="none"/><path d="M691 790.08l-1-.08-1 .04v-1.07h2z"/><path d="M643.24 500l14.26-4.64v9.28z" stroke="#000" stroke-width="2"/><path d="M-70 870h60v60h-60v-60z" stroke="#fff" stroke-opacity="0" stroke-width="2" fill="#d86613"/><path d="M-40.18 921.55c-.14 0-.3-.04-.4-.13l-18.2-10.48c-.3-.17-.44-.43-.44-.73v-21.26c0-.3.14-.56.43-.73l16.76-9.66c.33-.25.84-.12 1.1.22.1.17.14.35.14.52v9.23c0 .27-.14.53-.4.7l-8.4 4.8v11.16l9.46 5.44 8.25-4.8c.26-.17.55-.17.8 0l7.93 4.58c.3.13.43.4.43.73 0 .32-.14.57-.43.7l-16.6 9.62c-.12.1-.26.13-.4.13zm-17.4-11.9l17.84 10.3 15.33-8.88-6.4-3.67-8.5 4.92c-.3.13-.6.13-.88 0l-10.62-6.12c-.3-.18-.43-.44-.43-.74v-11.9c0-.3.14-.56.43-.74l8.36-4.8v-7.32l-15.18 8.8z" stroke="#fff" stroke-opacity="0" stroke-width="2" fill="#fff"/><path d="M-21.64 909.2c-.17 0-.3-.03-.43-.12L-30 904.5c-.28-.15-.42-.4-.42-.74v-9.67l-8.38-4.83c-.28-.15-.42-.43-.42-.74v-9.2c0-.32.14-.6.42-.72.24-.14.54-.14.8 0l16.8 9.66c.28.15.42.43.42.73v19.3c0 .35-.14.6-.42.75-.15.1-.28.15-.44.15zm-7.16-5.96l6.4 3.7V889.5l-15.2-8.77V888l8.4 4.9c.27.15.44.4.42.73z" stroke="#fff" stroke-opacity="0" stroke-width="2" fill="#fff"/><use xlink:href="#U" transform="matrix(1,0,0,1,-100,939) translate(15.599999999999994 14.4)"/><use xlink:href="#T" transform="matrix(1,0,0,1,-100,939) translate(61.449999999999996 14.4)"/><path d="M-70 660h60v60h-60v-60z" stroke="#fff" stroke-opacity="0" stroke-width="2" fill="#d86613"/><path d="M-40.18 711.55c-.14 0-.3-.04-.4-.13l-18.2-10.48c-.3-.17-.44-.43-.44-.73v-21.26c0-.3.14-.56.43-.73l16.76-9.66c.33-.25.84-.12 1.1.22.1.17.14.35.14.52v9.23c0 .27-.14.53-.4.7l-8.4 4.8v11.16l9.46 5.44 8.25-4.8c.26-.17.55-.17.8 0l7.93 4.58c.3.13.43.4.43.73 0 .32-.14.57-.43.7l-16.6 9.62c-.12.1-.26.13-.4.13zm-17.4-11.9l17.84 10.3 15.33-8.88-6.4-3.67-8.5 4.92c-.3.13-.6.13-.88 0l-10.62-6.12c-.3-.18-.43-.44-.43-.74v-11.9c0-.3.14-.56.43-.74l8.36-4.8v-7.32l-15.18 8.8z" stroke="#fff" stroke-opacity="0" stroke-width="2" fill="#fff"/><path d="M-21.64 699.2c-.17 0-.3-.03-.43-.12L-30 694.5c-.28-.15-.42-.4-.42-.74v-9.67l-8.38-4.83c-.28-.15-.42-.43-.42-.74v-9.2c0-.32.14-.6.42-.72.24-.14.54-.14.8 0l16.8 9.66c.28.15.42.43.42.73v19.3c0 .35-.14.6-.42.75-.15.1-.28.15-.44.15zm-7.16-5.96l6.4 3.7V679.5l-15.2-8.77V678l8.4 4.9c.27.15.44.4.42.73z" stroke="#fff" stroke-opacity="0" stroke-width="2" fill="#fff"/><use xlink:href="#U" transform="matrix(1,0,0,1,-100,729) translate(15.599999999999994 14.4)"/><use xlink:href="#T" transform="matrix(1,0,0,1,-100,729) translate(61.449999999999996 14.4)"/><path d="M780 120h170v40H780z" stroke="#000" stroke-opacity="0" stroke-width="2" fill="#fff" fill-opacity="0"/><use xlink:href="#al" transform="matrix(1,0,0,1,785,125) translate(30.14999999999999 18.15)"/><path d="M1083.66 224.86h8.92v6.9h-8.92v-6.9zM1040.6 162.92h94.25v61.94h-94.26v-61.94z" fill="#29aae1"/><path d="M1044.85 166.7h86.04v55.38h-86.05V166.7z" fill="#fff" fill-opacity=".98"/><path d="M1044.26 232.18h85.94l-4.26 14.82H1040l4.26-14.82z" fill="#29aae1"/><path d="M1043.76 231.68h87.93L1139 247h-87.9l-7.34-15.32z" fill="#29aae1"/><path d="M1073.57 243.04h31.28v3.1h-31.28v-3.1zM1056.34 234.12h2.27v1.94h-2.26v-1.94zM1060.4 234.2h2.37v1.94h-2.37v-1.94zM1065.64 237.74h2.38v1.93h-2.38v-1.93zM1064.85 233.95h2.28v2.02h-2.28v-2.02zM1068.8 234.12h2.4v1.94h-2.4v-1.94zM1072.67 233.95h2.38v2.02h-2.38v-2.02zM1096.93 234.3h2.38v2h-2.37v-2zM1100.5 234.3h2.37v2h-2.37v-2zM1103.86 234.3h2.38v2h-2.38v-2zM1107.92 234.3h2.28v2h-2.28v-2zM1111.6 234.3h2.26v2h-2.27v-2zM1107.23 237.57h2.28v1.94h-2.27v-1.93zM1115.74 234.3h2.38v2h-2.38v-2zM1070.1 237.65h2.28v1.94h-2.28v-1.95zM1074.56 237.65h2.27v1.94h-2.27v-1.95zM1103.57 237.5h1.98v1.92h-1.98v-1.93zM1099.5 237.5h2.38v1.92h-2.37v-1.93zM1077.03 234.04h2.38v2.02h-2.37v-2.02zM1081.5 234.12h2.26v2.02h-2.27v-2.02zM1085.55 234.04h2.27v2.02h-2.27v-2.02zM1090 234.04h2.28v2.02H1090v-2.02zM1093.67 234.12h2.27v2.02h-2.27v-2.02zM1078.52 237.57h2.37v1.94h-2.38v-1.93zM1082.97 237.57h2.28v1.94h-2.28v-1.93zM1087.03 237.65h2.38v1.94h-2.37v-1.95zM1091.1 237.65h2.27v1.94h-2.28v-1.95zM1095.25 237.5h2.28v1.92h-2.28v-1.93z" fill="#fff"/><path d="M1040.1 247l98.9-.34-7.02-14.98-87.62.17-4.26 15.15z" fill="none"/><path d="M1083.17 224.86h9.7v.93h-9.7v-.94zM1083.57 230.58h9.2v1.1h-9.2v-1.1z" fill="#fff"/><g><use xlink:href="#am" transform="matrix(1,0,0,1,1010,247.0805515239478) translate(47.075 18.6)"/></g><defs><path d="M24 0v-248h195v40H76v63h132v40H76v65h150V0H24" id="an"/><path d="M175 0L67-191c6 58 2 128 3 191H24v-248h59L193-55c-6-58-2-129-3-193h46V0h-61" id="ao"/><path d="M147 0H94L2-248h55l64 206c17-72 42-137 63-206h54" id="ap"/><path d="M24 0v-248h52V0H24" id="aq"/><path d="M240-174c0 40-23 61-54 70L253 0h-59l-57-94H76V0H24v-248c93 4 217-23 216 74zM76-134c48-2 112 12 112-38 0-48-66-32-112-35v73" id="ar"/><path d="M140-251c80 0 125 45 125 126S219 4 139 4C58 4 15-44 15-125s44-126 125-126zm-1 214c52 0 73-35 73-88 0-50-21-86-72-86-52 0-73 35-73 86s22 88 72 88" id="as"/><path d="M230 0l2-204L168 0h-37L68-204 70 0H24v-248h70l56 185 57-185h69V0h-46" id="at"/><path d="M136-208V0H84v-208H4v-40h212v40h-80" id="au"/><g id="a"><use transform="matrix(0.07407407407407408,0,0,0.07407407407407408,0,0)" xlink:href="#an"/><use transform="matrix(0.07407407407407408,0,0,0.07407407407407408,17.77777777777778,0)" xlink:href="#ao"/><use transform="matrix(0.07407407407407408,0,0,0.07407407407407408,36.96296296296296,0)" xlink:href="#ap"/><use transform="matrix(0.07407407407407408,0,0,0.07407407407407408,54.74074074074074,0)" xlink:href="#aq"/><use transform="matrix(0.07407407407407408,0,0,0.07407407407407408,62.14814814814816,0)" xlink:href="#ar"/><use transform="matrix(0.07407407407407408,0,0,0.07407407407407408,81.33333333333334,0)" xlink:href="#as"/><use transform="matrix(0.07407407407407408,0,0,0.07407407407407408,102.07407407407409,0)" xlink:href="#ao"/><use transform="matrix(0.07407407407407408,0,0,0.07407407407407408,121.25925925925928,0)" xlink:href="#at"/><use transform="matrix(0.07407407407407408,0,0,0.07407407407407408,143.40740740740745,0)" xlink:href="#an"/><use transform="matrix(0.07407407407407408,0,0,0.07407407407407408,161.18518518518522,0)" xlink:href="#ao"/><use transform="matrix(0.07407407407407408,0,0,0.07407407407407408,180.37037037037038,0)" xlink:href="#au"/></g><path d="M185-189c-5-48-123-54-124 2 14 75 158 14 163 119 3 78-121 87-175 55-17-10-28-26-33-46l33-7c5 56 141 63 141-1 0-78-155-14-162-118-5-82 145-84 179-34 5 7 8 16 11 25" id="av"/><path d="M126-127c33 6 58 20 58 59 0 88-139 92-164 29-3-8-5-16-6-25l32-3c6 27 21 44 54 44 32 0 52-15 52-46 0-38-36-46-79-43v-28c39 1 72-4 72-42 0-27-17-43-46-43-28 0-47 15-49 41l-32-3c6-42 35-63 81-64 48-1 79 21 79 65 0 36-21 52-52 59" id="aw"/><g id="b"><use transform="matrix(0.05,0,0,0.05,0,0)" xlink:href="#av"/><use transform="matrix(0.05,0,0,0.05,12,0)" xlink:href="#aw"/></g><path d="M87 75C49 33 22-17 22-94c0-76 28-126 65-167h31c-38 41-64 92-64 168S80 34 118 75H87" id="ax"/><path d="M127-220V0H93v-220H8v-28h204v28h-85" id="ay"/><path d="M100-194c63 0 86 42 84 106H49c0 40 14 67 53 68 26 1 43-12 49-29l28 8c-11 28-37 45-77 45C44 4 14-33 15-96c1-61 26-98 85-98zm52 81c6-60-76-77-97-28-3 7-6 17-6 28h103" id="az"/><path d="M114-163C36-179 61-72 57 0H25l-1-190h30c1 12-1 29 2 39 6-27 23-49 58-41v29" id="aA"/><path d="M141-36C126-15 110 5 73 4 37 3 15-17 15-53c-1-64 63-63 125-63 3-35-9-54-41-54-24 1-41 7-42 31l-33-3c5-37 33-52 76-52 45 0 72 20 72 64v82c-1 20 7 32 28 27v20c-31 9-61-2-59-35zM48-53c0 20 12 33 32 33 41-3 63-29 60-74-43 2-92-5-92 41" id="aB"/><path d="M101-234c-31-9-42 10-38 44h38v23H63V0H32v-167H5v-23h27c-7-52 17-82 69-68v24" id="aC"/><path d="M100-194c62-1 85 37 85 99 1 63-27 99-86 99S16-35 15-95c0-66 28-99 85-99zM99-20c44 1 53-31 53-75 0-43-8-75-51-75s-53 32-53 75 10 74 51 75" id="aD"/><path d="M210-169c-67 3-38 105-44 169h-31v-121c0-29-5-50-35-48C34-165 62-65 56 0H25l-1-190h30c1 10-1 24 2 32 10-44 99-50 107 0 11-21 27-35 58-36 85-2 47 119 55 194h-31v-121c0-29-5-49-35-48" id="aE"/><path d="M33-154v-36h34v36H33zM33 0v-36h34V0H33" id="aF"/><g id="c"><use transform="matrix(0.05,0,0,0.05,0,0)" xlink:href="#ax"/><use transform="matrix(0.05,0,0,0.05,5.95,0)" xlink:href="#ay"/><use transform="matrix(0.05,0,0,0.05,14.9,0)" xlink:href="#az"/><use transform="matrix(0.05,0,0,0.05,24.900000000000002,0)" xlink:href="#aA"/><use transform="matrix(0.05,0,0,0.05,30.85,0)" xlink:href="#aA"/><use transform="matrix(0.05,0,0,0.05,36.800000000000004,0)" xlink:href="#aB"/><use transform="matrix(0.05,0,0,0.05,46.800000000000004,0)" xlink:href="#aC"/><use transform="matrix(0.05,0,0,0.05,51.800000000000004,0)" xlink:href="#aD"/><use transform="matrix(0.05,0,0,0.05,61.800000000000004,0)" xlink:href="#aA"/><use transform="matrix(0.05,0,0,0.05,67.75,0)" xlink:href="#aE"/><use transform="matrix(0.05,0,0,0.05,82.7,0)" xlink:href="#aF"/></g><path d="M135-143c-3-34-86-38-87 0 15 53 115 12 119 90S17 21 10-45l28-5c4 36 97 45 98 0-10-56-113-15-118-90-4-57 82-63 122-42 12 7 21 19 24 35" id="aG"/><path d="M59-47c-2 24 18 29 38 22v24C64 9 27 4 27-40v-127H5v-23h24l9-43h21v43h35v23H59v120" id="aH"/><path d="M33-261c38 41 65 92 65 168S71 34 33 75H2C39 34 66-17 66-93S39-220 2-261h31" id="aI"/><g id="d"><use transform="matrix(0.05,0,0,0.05,0,0)" xlink:href="#aG"/><use transform="matrix(0.05,0,0,0.05,9,0)" xlink:href="#aH"/><use transform="matrix(0.05,0,0,0.05,14,0)" xlink:href="#aB"/><use transform="matrix(0.05,0,0,0.05,24,0)" xlink:href="#aH"/><use transform="matrix(0.05,0,0,0.05,29,0)" xlink:href="#az"/><use transform="matrix(0.05,0,0,0.05,39,0)" xlink:href="#aI"/></g><path d="M30-248c118-7 216 8 213 122C240-48 200 0 122 0H30v-248zM63-27c89 8 146-16 146-99s-60-101-146-95v194" id="aJ"/><path d="M179-190L93 31C79 59 56 82 12 73V49c39 6 53-20 64-50L1-190h34L92-34l54-156h33" id="aK"/><path d="M117-194c89-4 53 116 60 194h-32v-121c0-31-8-49-39-48C34-167 62-67 57 0H25l-1-190h30c1 10-1 24 2 32 11-22 29-35 61-36" id="aL"/><path d="M160-131c35 5 61 23 61 61C221 17 115-2 30 0v-248c76 3 177-17 177 60 0 33-19 50-47 57zm-97-11c50-1 110 9 110-42 0-47-63-36-110-37v79zm0 115c55-2 124 14 124-45 0-56-70-42-124-44v89" id="aM"/><g id="e"><use transform="matrix(0.05,0,0,0.05,0,0)" xlink:href="#aJ"/><use transform="matrix(0.05,0,0,0.05,12.950000000000001,0)" xlink:href="#aK"/><use transform="matrix(0.05,0,0,0.05,21.950000000000003,0)" xlink:href="#aL"/><use transform="matrix(0.05,0,0,0.05,31.950000000000003,0)" xlink:href="#aB"/><use transform="matrix(0.05,0,0,0.05,41.95,0)" xlink:href="#aE"/><use transform="matrix(0.05,0,0,0.05,56.900000000000006,0)" xlink:href="#aD"/><use transform="matrix(0.05,0,0,0.05,66.9,0)" xlink:href="#aJ"/><use transform="matrix(0.05,0,0,0.05,79.85000000000001,0)" xlink:href="#aM"/></g><g id="f"><use transform="matrix(0.05,0,0,0.05,0,0)" xlink:href="#ax"/><use transform="matrix(0.05,0,0,0.05,5.95,0)" xlink:href="#ay"/><use transform="matrix(0.05,0,0,0.05,14.9,0)" xlink:href="#az"/><use transform="matrix(0.05,0,0,0.05,24.900000000000002,0)" xlink:href="#aA"/><use transform="matrix(0.05,0,0,0.05,30.85,0)" xlink:href="#aA"/><use transform="matrix(0.05,0,0,0.05,36.800000000000004,0)" xlink:href="#aB"/><use transform="matrix(0.05,0,0,0.05,46.800000000000004,0)" xlink:href="#aC"/><use transform="matrix(0.05,0,0,0.05,51.800000000000004,0)" xlink:href="#aD"/><use transform="matrix(0.05,0,0,0.05,61.800000000000004,0)" xlink:href="#aA"/><use transform="matrix(0.05,0,0,0.05,67.75,0)" xlink:href="#aE"/><use transform="matrix(0.05,0,0,0.05,82.7,0)" xlink:href="#aF"/></g><path d="M24 0v-261h32V0H24" id="aN"/><path d="M96-169c-40 0-48 33-48 73s9 75 48 75c24 0 41-14 43-38l32 2c-6 37-31 61-74 61-59 0-76-41-82-99-10-93 101-131 147-64 4 7 5 14 7 22l-32 3c-4-21-16-35-41-35" id="aO"/><path d="M143 0L79-87 56-68V0H24v-261h32v163l83-92h37l-77 82L181 0h-38" id="aP"/><g id="g"><use transform="matrix(0.05,0,0,0.05,0,0)" xlink:href="#aG"/><use transform="matrix(0.05,0,0,0.05,9,0)" xlink:href="#aH"/><use transform="matrix(0.05,0,0,0.05,14,0)" xlink:href="#aB"/><use transform="matrix(0.05,0,0,0.05,24,0)" xlink:href="#aH"/><use transform="matrix(0.05,0,0,0.05,29,0)" xlink:href="#az"/><use transform="matrix(0.05,0,0,0.05,39,0)" xlink:href="#aN"/><use transform="matrix(0.05,0,0,0.05,42.95,0)" xlink:href="#aD"/><use transform="matrix(0.05,0,0,0.05,52.95,0)" xlink:href="#aO"/><use transform="matrix(0.05,0,0,0.05,61.95,0)" xlink:href="#aP"/><use transform="matrix(0.05,0,0,0.05,70.95,0)" xlink:href="#aI"/></g><path d="M24-248c120-7 223 5 221 122C244-46 201 0 124 0H24v-248zM76-40c74 7 117-18 117-86 0-67-45-88-117-82v168" id="aQ"/><g id="h"><use transform="matrix(0.07407407407407408,0,0,0.07407407407407408,0,0)" xlink:href="#au"/><use transform="matrix(0.07407407407407408,0,0,0.07407407407407408,16.222222222222225,0)" xlink:href="#aQ"/><use transform="matrix(0.07407407407407408,0,0,0.07407407407407408,35.40740740740741,0)" xlink:href="#ar"/></g><path d="M212-179c-10-28-35-45-73-45-59 0-87 40-87 99 0 60 29 101 89 101 43 0 62-24 78-52l27 14C228-24 195 4 139 4 59 4 22-46 18-125c-6-104 99-153 187-111 19 9 31 26 39 46" id="aR"/><path d="M84 4C-5 8 30-112 23-190h32v120c0 31 7 50 39 49 72-2 45-101 50-169h31l1 190h-30c-1-10 1-25-2-33-11 22-28 36-60 37" id="aS"/><path d="M85-194c31 0 48 13 60 33l-1-100h32l1 261h-30c-2-10 0-23-3-31C134-8 116 4 85 4 32 4 16-35 15-94c0-66 23-100 70-100zm9 24c-40 0-46 34-46 75 0 40 6 74 45 74 42 0 51-32 51-76 0-42-9-74-50-73" id="aT"/><g id="i"><use transform="matrix(0.05,0,0,0.05,0,0)" xlink:href="#aR"/><use transform="matrix(0.05,0,0,0.05,12.950000000000001,0)" xlink:href="#aN"/><use transform="matrix(0.05,0,0,0.05,16.900000000000002,0)" xlink:href="#aD"/><use transform="matrix(0.05,0,0,0.05,26.900000000000002,0)" xlink:href="#aS"/><use transform="matrix(0.05,0,0,0.05,36.900000000000006,0)" xlink:href="#aT"/></g><path d="M205 0l-28-72H64L36 0H1l101-248h38L239 0h-34zm-38-99l-47-123c-12 45-31 82-46 123h93" id="aU"/><path d="M106-169C34-169 62-67 57 0H25v-261h32l-1 103c12-21 28-36 61-36 89 0 53 116 60 194h-32v-121c2-32-8-49-39-48" id="aV"/><g id="j"><use transform="matrix(0.05,0,0,0.05,0,0)" xlink:href="#aU"/><use transform="matrix(0.05,0,0,0.05,12,0)" xlink:href="#aS"/><use transform="matrix(0.05,0,0,0.05,22,0)" xlink:href="#aH"/><use transform="matrix(0.05,0,0,0.05,27,0)" xlink:href="#aV"/></g><path d="M232-93c-1 65-40 97-104 97C67 4 28-28 28-90v-158h33c8 89-33 224 67 224 102 0 64-133 71-224h33v155" id="aW"/><g id="k"><use transform="matrix(0.05,0,0,0.05,0,0)" xlink:href="#aW"/><use transform="matrix(0.05,0,0,0.05,12.950000000000001,0)" xlink:href="#aG"/><use transform="matrix(0.05,0,0,0.05,21.950000000000003,0)" xlink:href="#az"/><use transform="matrix(0.05,0,0,0.05,31.950000000000003,0)" xlink:href="#aA"/></g><path d="M24-231v-30h32v30H24zM24 0v-190h32V0H24" id="aX"/><g id="l"><use transform="matrix(0.05,0,0,0.05,0,0)" xlink:href="#aU"/><use transform="matrix(0.05,0,0,0.05,12,0)" xlink:href="#aT"/><use transform="matrix(0.05,0,0,0.05,22,0)" xlink:href="#aE"/><use transform="matrix(0.05,0,0,0.05,36.95,0)" xlink:href="#aX"/><use transform="matrix(0.05,0,0,0.05,40.900000000000006,0)" xlink:href="#aL"/></g><g id="m"><use transform="matrix(0.05,0,0,0.05,0,0)" xlink:href="#aJ"/><use transform="matrix(0.05,0,0,0.05,12.950000000000001,0)" xlink:href="#aM"/></g><path d="M30-248c87 1 191-15 191 75 0 78-77 80-158 76V0H30v-248zm33 125c57 0 124 11 124-50 0-59-68-47-124-48v98" id="aY"/><path d="M177-190C167-65 218 103 67 71c-23-6-38-20-44-43l32-5c15 47 100 32 89-28v-30C133-14 115 1 83 1 29 1 15-40 15-95c0-56 16-97 71-98 29-1 48 16 59 35 1-10 0-23 2-32h30zM94-22c36 0 50-32 50-73 0-42-14-75-50-75-39 0-46 34-46 75s6 73 46 73" id="aZ"/><g id="n"><use transform="matrix(0.05,0,0,0.05,0,0)" xlink:href="#aY"/><use transform="matrix(0.05,0,0,0.05,12,0)" xlink:href="#aD"/><use transform="matrix(0.05,0,0,0.05,22,0)" xlink:href="#aG"/><use transform="matrix(0.05,0,0,0.05,31,0)" xlink:href="#aH"/><use transform="matrix(0.05,0,0,0.05,36,0)" xlink:href="#aZ"/><use transform="matrix(0.05,0,0,0.05,46,0)" xlink:href="#aA"/><use transform="matrix(0.05,0,0,0.05,51.95,0)" xlink:href="#az"/><use transform="matrix(0.05,0,0,0.05,61.95,0)" xlink:href="#aG"/></g><path d="M115-194c55 1 70 41 70 98S169 2 115 4C84 4 66-9 55-30l1 105H24l-1-265h31l2 30c10-21 28-34 59-34zm-8 174c40 0 45-34 45-75s-6-73-45-74c-42 0-51 32-51 76 0 43 10 73 51 73" id="ba"/><g id="o"><use transform="matrix(0.05,0,0,0.05,0,0)" xlink:href="#aW"/><use transform="matrix(0.05,0,0,0.05,12.950000000000001,0)" xlink:href="#ba"/><use transform="matrix(0.05,0,0,0.05,22.950000000000003,0)" xlink:href="#aN"/><use transform="matrix(0.05,0,0,0.05,26.900000000000002,0)" xlink:href="#aD"/><use transform="matrix(0.05,0,0,0.05,36.900000000000006,0)" xlink:href="#aB"/><use transform="matrix(0.05,0,0,0.05,46.900000000000006,0)" xlink:href="#aT"/></g><path d="M0 4l72-265h28L28 4H0" id="bb"/><use transform="matrix(0.05,0,0,0.05,0,0)" xlink:href="#bb" id="p"/><g id="q"><use transform="matrix(0.05,0,0,0.05,0,0)" xlink:href="#aJ"/><use transform="matrix(0.05,0,0,0.05,12.950000000000001,0)" xlink:href="#aX"/><use transform="matrix(0.05,0,0,0.05,16.900000000000002,0)" xlink:href="#aA"/><use transform="matrix(0.05,0,0,0.05,22.85,0)" xlink:href="#aH"/><use transform="matrix(0.05,0,0,0.05,27.85,0)" xlink:href="#aK"/></g><g id="r"><use transform="matrix(0.05,0,0,0.05,0,0)" xlink:href="#aM"/><use transform="matrix(0.05,0,0,0.05,12,0)" xlink:href="#aS"/><use transform="matrix(0.05,0,0,0.05,22,0)" xlink:href="#aO"/><use transform="matrix(0.05,0,0,0.05,31,0)" xlink:href="#aP"/><use transform="matrix(0.05,0,0,0.05,40,0)" xlink:href="#az"/><use transform="matrix(0.05,0,0,0.05,50,0)" xlink:href="#aH"/></g><g id="s"><use transform="matrix(0.05,0,0,0.05,0,0)" xlink:href="#aR"/><use transform="matrix(0.05,0,0,0.05,12.950000000000001,0)" xlink:href="#aN"/><use transform="matrix(0.05,0,0,0.05,16.900000000000002,0)" xlink:href="#az"/><use transform="matrix(0.05,0,0,0.05,26.900000000000002,0)" xlink:href="#aB"/><use transform="matrix(0.05,0,0,0.05,36.900000000000006,0)" xlink:href="#aL"/></g><path d="M30 0v-248h187v28H63v79h144v27H63v87h162V0H30" id="bc"/><path d="M141 0L90-78 38 0H4l68-98-65-92h35l48 74 47-74h35l-64 92 68 98h-35" id="bd"/><g id="t"><use transform="matrix(0.05,0,0,0.05,0,0)" xlink:href="#bc"/><use transform="matrix(0.05,0,0,0.05,12,0)" xlink:href="#bd"/><use transform="matrix(0.05,0,0,0.05,21,0)" xlink:href="#ba"/><use transform="matrix(0.05,0,0,0.05,31,0)" xlink:href="#aD"/><use transform="matrix(0.05,0,0,0.05,41,0)" xlink:href="#aA"/><use transform="matrix(0.05,0,0,0.05,46.95,0)" xlink:href="#aH"/></g><g id="u"><use transform="matrix(0.05,0,0,0.05,0,0)" xlink:href="#bc"/><use transform="matrix(0.05,0,0,0.05,12,0)" xlink:href="#bd"/><use transform="matrix(0.05,0,0,0.05,21,0)" xlink:href="#ba"/><use transform="matrix(0.05,0,0,0.05,31,0)" xlink:href="#aD"/><use transform="matrix(0.05,0,0,0.05,41,0)" xlink:href="#aA"/><use transform="matrix(0.05,0,0,0.05,46.95,0)" xlink:href="#aH"/></g><path d="M63-220v92h138v28H63V0H30v-248h175v28H63" id="be"/><path d="M206 0h-36l-40-164L89 0H53L-1-190h32L70-26l43-164h34l41 164 42-164h31" id="bf"/><g id="v"><use transform="matrix(0.05,0,0,0.05,0,0)" xlink:href="#be"/><use transform="matrix(0.05,0,0,0.05,10.950000000000001,0)" xlink:href="#aN"/><use transform="matrix(0.05,0,0,0.05,14.9,0)" xlink:href="#aK"/><use transform="matrix(0.05,0,0,0.05,23.900000000000002,0)" xlink:href="#bf"/><use transform="matrix(0.05,0,0,0.05,36.85,0)" xlink:href="#aB"/><use transform="matrix(0.05,0,0,0.05,46.85,0)" xlink:href="#aK"/></g><g id="w"><use transform="matrix(0.05,0,0,0.05,0,0)" xlink:href="#aW"/><use transform="matrix(0.05,0,0,0.05,12.950000000000001,0)" xlink:href="#ba"/><use transform="matrix(0.05,0,0,0.05,22.950000000000003,0)" xlink:href="#aT"/><use transform="matrix(0.05,0,0,0.05,32.95,0)" xlink:href="#aB"/><use transform="matrix(0.05,0,0,0.05,42.95,0)" xlink:href="#aH"/><use transform="matrix(0.05,0,0,0.05,47.95,0)" xlink:href="#az"/></g><path d="M33 0v-248h34V0H33" id="bg"/><g id="x"><use transform="matrix(0.05,0,0,0.05,0,0)" xlink:href="#aU"/><use transform="matrix(0.05,0,0,0.05,12,0)" xlink:href="#aY"/><use transform="matrix(0.05,0,0,0.05,24,0)" xlink:href="#bg"/></g><g id="y"><use transform="matrix(0.05,0,0,0.05,0,0)" xlink:href="#aR"/><use transform="matrix(0.05,0,0,0.05,12.950000000000001,0)" xlink:href="#aD"/><use transform="matrix(0.05,0,0,0.05,22.950000000000003,0)" xlink:href="#ba"/><use transform="matrix(0.05,0,0,0.05,32.95,0)" xlink:href="#aK"/></g><g id="z"><use transform="matrix(0.05,0,0,0.05,0,0)" xlink:href="#ay"/><use transform="matrix(0.05,0,0,0.05,8.950000000000001,0)" xlink:href="#aD"/></g><g id="A"><use transform="matrix(0.05,0,0,0.05,0,0)" xlink:href="#aR"/><use transform="matrix(0.05,0,0,0.05,12.950000000000001,0)" xlink:href="#aN"/><use transform="matrix(0.05,0,0,0.05,16.900000000000002,0)" xlink:href="#az"/><use transform="matrix(0.05,0,0,0.05,26.900000000000002,0)" xlink:href="#aB"/><use transform="matrix(0.05,0,0,0.05,36.900000000000006,0)" xlink:href="#aL"/></g><g id="B"><use transform="matrix(0.05,0,0,0.05,0,0)" xlink:href="#aY"/><use transform="matrix(0.05,0,0,0.05,12,0)" xlink:href="#aS"/><use transform="matrix(0.05,0,0,0.05,22,0)" xlink:href="#aA"/><use transform="matrix(0.05,0,0,0.05,27.950000000000003,0)" xlink:href="#aZ"/><use transform="matrix(0.05,0,0,0.05,37.95,0)" xlink:href="#az"/></g><path d="M190 0L58-211 59 0H30v-248h39L202-35l-2-213h31V0h-41" id="bh"/><g id="C"><use transform="matrix(0.05,0,0,0.05,0,0)" xlink:href="#av"/><use transform="matrix(0.05,0,0,0.05,12,0)" xlink:href="#bh"/><use transform="matrix(0.05,0,0,0.05,24.950000000000003,0)" xlink:href="#av"/></g><g id="D"><use transform="matrix(0.05,0,0,0.05,0,0)" xlink:href="#aM"/><use transform="matrix(0.05,0,0,0.05,12,0)" xlink:href="#aB"/><use transform="matrix(0.05,0,0,0.05,22,0)" xlink:href="#aO"/><use transform="matrix(0.05,0,0,0.05,31,0)" xlink:href="#aP"/></g><g id="E"><use transform="matrix(0.05,0,0,0.05,0,0)" xlink:href="#bc"/><use transform="matrix(0.05,0,0,0.05,12,0)" xlink:href="#aL"/><use transform="matrix(0.05,0,0,0.05,22,0)" xlink:href="#aT"/></g><g id="F"><use transform="matrix(0.05,0,0,0.05,0,0)" xlink:href="#aY"/><use transform="matrix(0.05,0,0,0.05,12,0)" xlink:href="#aA"/><use transform="matrix(0.05,0,0,0.05,17.95,0)" xlink:href="#aD"/><use transform="matrix(0.05,0,0,0.05,27.950000000000003,0)" xlink:href="#aO"/><use transform="matrix(0.05,0,0,0.05,36.95,0)" xlink:href="#az"/><use transform="matrix(0.05,0,0,0.05,46.95,0)" xlink:href="#aG"/><use transform="matrix(0.05,0,0,0.05,55.95,0)" xlink:href="#aG"/><use transform="matrix(0.05,0,0,0.05,64.95,0)" xlink:href="#aX"/><use transform="matrix(0.05,0,0,0.05,68.9,0)" xlink:href="#aL"/><use transform="matrix(0.05,0,0,0.05,78.9,0)" xlink:href="#aZ"/></g><g id="G"><use transform="matrix(0.05,0,0,0.05,0,0)" xlink:href="#aU"/><use transform="matrix(0.05,0,0,0.05,12,0)" xlink:href="#aT"/><use transform="matrix(0.05,0,0,0.05,22,0)" xlink:href="#aT"/></g><g id="H"><use transform="matrix(0.05,0,0,0.05,0,0)" xlink:href="#av"/><use transform="matrix(0.05,0,0,0.05,12,0)" xlink:href="#az"/><use transform="matrix(0.05,0,0,0.05,22,0)" xlink:href="#aA"/><use transform="matrix(0.05,0,0,0.05,27.950000000000003,0)" xlink:href="#aX"/><use transform="matrix(0.05,0,0,0.05,31.899999999999995,0)" xlink:href="#az"/><use transform="matrix(0.05,0,0,0.05,41.9,0)" xlink:href="#aG"/></g><g id="I"><use transform="matrix(0.05,0,0,0.05,0,0)" xlink:href="#aY"/><use transform="matrix(0.05,0,0,0.05,12,0)" xlink:href="#aN"/><use transform="matrix(0.05,0,0,0.05,15.949999999999998,0)" xlink:href="#aB"/><use transform="matrix(0.05,0,0,0.05,25.950000000000003,0)" xlink:href="#aK"/></g><path d="M240 0l2-218c-23 76-54 145-80 218h-23L58-218 59 0H30v-248h44l77 211c21-75 51-140 76-211h43V0h-30" id="bi"/><path d="M137 0h-34L2-248h35l83 218 83-218h36" id="bj"/><g id="J"><use transform="matrix(0.05,0,0,0.05,0,0)" xlink:href="#bi"/><use transform="matrix(0.05,0,0,0.05,14.950000000000001,0)" xlink:href="#bj"/><use transform="matrix(0.05,0,0,0.05,26.950000000000003,0)" xlink:href="#aR"/></g><g id="K"><use transform="matrix(0.05,0,0,0.05,0,0)" xlink:href="#aM"/><use transform="matrix(0.05,0,0,0.05,12,0)" xlink:href="#aB"/><use transform="matrix(0.05,0,0,0.05,22,0)" xlink:href="#aO"/><use transform="matrix(0.05,0,0,0.05,31,0)" xlink:href="#aP"/><use transform="matrix(0.05,0,0,0.05,40,0)" xlink:href="#az"/><use transform="matrix(0.05,0,0,0.05,50,0)" xlink:href="#aL"/><use transform="matrix(0.05,0,0,0.05,60,0)" xlink:href="#aT"/></g><g id="L"><use transform="matrix(0.05,0,0,0.05,0,0)" xlink:href="#aO"/><use transform="matrix(0.05,0,0,0.05,9,0)" xlink:href="#aV"/><use transform="matrix(0.05,0,0,0.05,19,0)" xlink:href="#az"/><use transform="matrix(0.05,0,0,0.05,29,0)" xlink:href="#aO"/><use transform="matrix(0.05,0,0,0.05,38,0)" xlink:href="#aP"/><use transform="matrix(0.05,0,0,0.05,47,0)" xlink:href="#aG"/></g><path d="M199 0l-22-63H83L61 0H9l90-248h61L250 0h-51zm-33-102l-36-108c-10 38-24 72-36 108h72" id="bk"/><path d="M76-208v77h127v40H76V0H24v-248h183v40H76" id="bl"/><g id="M"><use transform="matrix(0.07407407407407408,0,0,0.07407407407407408,0,0)" xlink:href="#au"/><use transform="matrix(0.07407407407407408,0,0,0.07407407407407408,16.222222222222225,0)" xlink:href="#an"/><use transform="matrix(0.07407407407407408,0,0,0.07407407407407408,34,0)" xlink:href="#ar"/><use transform="matrix(0.07407407407407408,0,0,0.07407407407407408,53.18518518518519,0)" xlink:href="#ar"/><use transform="matrix(0.07407407407407408,0,0,0.07407407407407408,72.37037037037038,0)" xlink:href="#bk"/><use transform="matrix(0.07407407407407408,0,0,0.07407407407407408,91.55555555555557,0)" xlink:href="#bl"/><use transform="matrix(0.07407407407407408,0,0,0.07407407407407408,107.77777777777779,0)" xlink:href="#as"/><use transform="matrix(0.07407407407407408,0,0,0.07407407407407408,128.51851851851853,0)" xlink:href="#ar"/><use transform="matrix(0.07407407407407408,0,0,0.07407407407407408,147.70370370370372,0)" xlink:href="#at"/></g><path d="M108 0H70L1-190h34L89-25l56-165h34" id="bm"/><g id="N"><use transform="matrix(0.05,0,0,0.05,0,0)" xlink:href="#aY"/><use transform="matrix(0.05,0,0,0.05,12,0)" xlink:href="#aA"/><use transform="matrix(0.05,0,0,0.05,17.95,0)" xlink:href="#aD"/><use transform="matrix(0.05,0,0,0.05,27.950000000000003,0)" xlink:href="#bm"/><use transform="matrix(0.05,0,0,0.05,36.95,0)" xlink:href="#aX"/><use transform="matrix(0.05,0,0,0.05,40.900000000000006,0)" xlink:href="#aG"/><use transform="matrix(0.05,0,0,0.05,49.900000000000006,0)" xlink:href="#aX"/><use transform="matrix(0.05,0,0,0.05,53.85,0)" xlink:href="#aD"/><use transform="matrix(0.05,0,0,0.05,63.85,0)" xlink:href="#aL"/></g><path d="M233-177c-1 41-23 64-60 70L243 0h-38l-65-103H63V0H30v-248c88 3 205-21 203 71zM63-129c60-2 137 13 137-47 0-61-80-42-137-45v92" id="bn"/><g id="O"><use transform="matrix(0.05,0,0,0.05,0,0)" xlink:href="#bn"/><use transform="matrix(0.05,0,0,0.05,12.950000000000001,0)" xlink:href="#az"/><use transform="matrix(0.05,0,0,0.05,22.950000000000003,0)" xlink:href="#aG"/><use transform="matrix(0.05,0,0,0.05,31.950000000000003,0)" xlink:href="#aD"/><use transform="matrix(0.05,0,0,0.05,41.95,0)" xlink:href="#aS"/><use transform="matrix(0.05,0,0,0.05,51.95,0)" xlink:href="#aA"/><use transform="matrix(0.05,0,0,0.05,57.900000000000006,0)" xlink:href="#aO"/><use transform="matrix(0.05,0,0,0.05,66.9,0)" xlink:href="#az"/><use transform="matrix(0.05,0,0,0.05,76.9,0)" xlink:href="#aG"/></g><path d="M176-78C186 10 51 31 16-35c-5-9-9-19-11-32l52-8c4 21 12 37 35 38 23 0 32-16 32-40v-130H75v-41h101v170" id="bo"/><path d="M195 0l-88-114-31 24V0H24v-248h52v113l112-113h60L142-143 257 0h-62" id="bp"/><path d="M169-182c-1-43-94-46-97-3 18 66 151 10 154 114 3 95-165 93-204 36-6-8-10-19-12-30l50-8c3 46 112 56 116 5-17-69-150-10-154-114-4-87 153-88 188-35 5 8 8 18 10 28" id="bq"/><g id="P"><use transform="matrix(0.07407407407407408,0,0,0.07407407407407408,0,0)" xlink:href="#bo"/><use transform="matrix(0.07407407407407408,0,0,0.07407407407407408,14.814814814814817,0)" xlink:href="#an"/><use transform="matrix(0.07407407407407408,0,0,0.07407407407407408,32.592592592592595,0)" xlink:href="#ao"/><use transform="matrix(0.07407407407407408,0,0,0.07407407407407408,51.777777777777786,0)" xlink:href="#bp"/><use transform="matrix(0.07407407407407408,0,0,0.07407407407407408,70.96296296296298,0)" xlink:href="#aq"/><use transform="matrix(0.07407407407407408,0,0,0.07407407407407408,78.37037037037038,0)" xlink:href="#ao"/><use transform="matrix(0.07407407407407408,0,0,0.07407407407407408,97.55555555555557,0)" xlink:href="#bq"/></g><g id="Q"><use transform="matrix(0.05,0,0,0.05,0,0)" xlink:href="#aM"/><use transform="matrix(0.05,0,0,0.05,12,0)" xlink:href="#aS"/><use transform="matrix(0.05,0,0,0.05,22,0)" xlink:href="#aX"/><use transform="matrix(0.05,0,0,0.05,25.950000000000003,0)" xlink:href="#aN"/><use transform="matrix(0.05,0,0,0.05,29.899999999999995,0)" xlink:href="#aT"/></g><g id="R"><use transform="matrix(0.05,0,0,0.05,0,0)" xlink:href="#aJ"/><use transform="matrix(0.05,0,0,0.05,12.950000000000001,0)" xlink:href="#az"/><use transform="matrix(0.05,0,0,0.05,22.950000000000003,0)" xlink:href="#ba"/><use transform="matrix(0.05,0,0,0.05,32.95,0)" xlink:href="#aN"/><use transform="matrix(0.05,0,0,0.05,36.900000000000006,0)" xlink:href="#aD"/><use transform="matrix(0.05,0,0,0.05,46.900000000000006,0)" xlink:href="#aK"/></g><g id="S"><use transform="matrix(0.05,0,0,0.05,0,0)" xlink:href="#aY"/><use transform="matrix(0.05,0,0,0.05,12,0)" xlink:href="#aB"/><use transform="matrix(0.05,0,0,0.05,22,0)" xlink:href="#aA"/><use transform="matrix(0.05,0,0,0.05,27.950000000000003,0)" xlink:href="#az"/><use transform="matrix(0.05,0,0,0.05,37.95,0)" xlink:href="#aL"/><use transform="matrix(0.05,0,0,0.05,47.95,0)" xlink:href="#aH"/></g><g id="T"><use transform="matrix(0.05,0,0,0.05,0,0)" xlink:href="#bh"/><use transform="matrix(0.05,0,0,0.05,12.950000000000001,0)" xlink:href="#aD"/><use transform="matrix(0.05,0,0,0.05,22.950000000000003,0)" xlink:href="#aT"/><use transform="matrix(0.05,0,0,0.05,32.95,0)" xlink:href="#az"/></g><g id="U"><use transform="matrix(0.05,0,0,0.05,0,0)" xlink:href="#aR"/><use transform="matrix(0.05,0,0,0.05,12.950000000000001,0)" xlink:href="#aV"/><use transform="matrix(0.05,0,0,0.05,22.950000000000003,0)" xlink:href="#aX"/><use transform="matrix(0.05,0,0,0.05,26.900000000000002,0)" xlink:href="#aN"/><use transform="matrix(0.05,0,0,0.05,30.85,0)" xlink:href="#aT"/></g><path d="M140-251c81 0 123 46 123 126C263-46 219 4 140 4 59 4 17-45 17-125s42-126 123-126zm0 227c63 0 89-41 89-101s-29-99-89-99c-61 0-89 39-89 99S79-25 140-24" id="br"/><path d="M143 4C61 4 22-44 18-125c-5-107 100-154 193-111 17 8 29 25 37 43l-32 9c-13-25-37-40-76-40-61 0-88 39-88 99 0 61 29 100 91 101 35 0 62-11 79-27v-45h-74v-28h105v86C228-13 192 4 143 4" id="bs"/><g id="V"><use transform="matrix(0.05,0,0,0.05,0,0)" xlink:href="#bn"/><use transform="matrix(0.05,0,0,0.05,12.950000000000001,0)" xlink:href="#bc"/><use transform="matrix(0.05,0,0,0.05,24.950000000000003,0)" xlink:href="#aY"/><use transform="matrix(0.05,0,0,0.05,36.95,0)" xlink:href="#br"/><use transform="matrix(0.05,0,0,0.05,50.95,0)" xlink:href="#bn"/><use transform="matrix(0.05,0,0,0.05,63.550000000000004,0)" xlink:href="#ay"/><use transform="matrix(0.05,0,0,0.05,74.5,0)" xlink:href="#bg"/><use transform="matrix(0.05,0,0,0.05,79.5,0)" xlink:href="#bh"/><use transform="matrix(0.05,0,0,0.05,92.45,0)" xlink:href="#bs"/></g><path d="M110-194c64 0 96 36 96 99 0 64-35 99-97 99-61 0-95-36-95-99 0-62 34-99 96-99zm-1 164c35 0 45-28 45-65 0-40-10-65-43-65-34 0-45 26-45 65 0 36 10 65 43 65" id="bt"/><path d="M135-194c87-1 58 113 63 194h-50c-7-57 23-157-34-157-59 0-34 97-39 157H25l-1-190h47c2 12-1 28 3 38 12-26 28-41 61-42" id="bu"/><path d="M25-224v-37h50v37H25zM25 0v-190h50V0H25" id="bv"/><path d="M115-3C79 11 28 4 28-45v-112H4v-33h27l15-45h31v45h36v33H77v99c-1 23 16 31 38 25v30" id="bw"/><path d="M135-150c-39-12-60 13-60 57V0H25l-1-190h47c2 13-1 29 3 40 6-28 27-53 61-41v41" id="bx"/><path d="M195-6C206 82 75 100 31 46c-4-6-6-13-8-21l49-6c3 16 16 24 34 25 40 0 42-37 40-79-11 22-30 35-61 35-53 0-70-43-70-97 0-56 18-96 73-97 30 0 46 14 59 34l2-30h47zm-90-29c32 0 41-27 41-63 0-35-9-62-40-62-32 0-39 29-40 63 0 36 9 62 39 62" id="by"/><g id="W"><use transform="matrix(0.05,0,0,0.05,0,0)" xlink:href="#at"/><use transform="matrix(0.05,0,0,0.05,14.950000000000001,0)" xlink:href="#bt"/><use transform="matrix(0.05,0,0,0.05,25.900000000000002,0)" xlink:href="#bu"/><use transform="matrix(0.05,0,0,0.05,36.85,0)" xlink:href="#bv"/><use transform="matrix(0.05,0,0,0.05,41.85,0)" xlink:href="#bw"/><use transform="matrix(0.05,0,0,0.05,47.800000000000004,0)" xlink:href="#bt"/><use transform="matrix(0.05,0,0,0.05,58.75,0)" xlink:href="#bx"/><use transform="matrix(0.05,0,0,0.05,65.75,0)" xlink:href="#bv"/><use transform="matrix(0.05,0,0,0.05,70.75,0)" xlink:href="#bu"/><use transform="matrix(0.05,0,0,0.05,81.7,0)" xlink:href="#by"/></g><g id="X"><use transform="matrix(0.05,0,0,0.05,0,0)" xlink:href="#aR"/><use transform="matrix(0.05,0,0,0.05,12.950000000000001,0)" xlink:href="#aN"/><use transform="matrix(0.05,0,0,0.05,16.900000000000002,0)" xlink:href="#aD"/><use transform="matrix(0.05,0,0,0.05,26.900000000000002,0)" xlink:href="#aS"/><use transform="matrix(0.05,0,0,0.05,36.900000000000006,0)" xlink:href="#aT"/><use transform="matrix(0.05,0,0,0.05,46.900000000000006,0)" xlink:href="#ay"/><use transform="matrix(0.05,0,0,0.05,57.20000000000002,0)" xlink:href="#aA"/><use transform="matrix(0.05,0,0,0.05,63.15000000000001,0)" xlink:href="#aB"/><use transform="matrix(0.05,0,0,0.05,73.15,0)" xlink:href="#aX"/><use transform="matrix(0.05,0,0,0.05,77.10000000000001,0)" xlink:href="#aN"/></g><g id="Y"><use transform="matrix(0.05,0,0,0.05,0,0)" xlink:href="#av"/><use transform="matrix(0.05,0,0,0.05,12,0)" xlink:href="#ba"/><use transform="matrix(0.05,0,0,0.05,22,0)" xlink:href="#aN"/><use transform="matrix(0.05,0,0,0.05,25.950000000000003,0)" xlink:href="#aS"/><use transform="matrix(0.05,0,0,0.05,35.95,0)" xlink:href="#aL"/><use transform="matrix(0.05,0,0,0.05,45.95,0)" xlink:href="#aP"/></g><path d="M238-95c0 69-44 99-111 99C63 4 22-25 22-93v-155h51v151c-1 38 19 59 55 60 90 1 49-130 58-211h52v153" id="bz"/><path d="M137-138c1-29-70-34-71-4 15 46 118 7 119 86 1 83-164 76-172 9l43-7c4 19 20 25 44 25 33 8 57-30 24-41C81-84 22-81 20-136c-2-80 154-74 161-7" id="bA"/><path d="M133-34C117-15 103 5 69 4 32 3 11-16 11-54c-1-60 55-63 116-61 1-26-3-47-28-47-18 1-26 9-28 27l-52-2c7-38 36-58 82-57s74 22 75 68l1 82c-1 14 12 18 25 15v27c-30 8-71 5-69-32zm-48 3c29 0 43-24 42-57-32 0-66-3-65 30 0 17 8 27 23 27" id="bB"/><path d="M185-48c-13 30-37 53-82 52C43 2 14-33 14-96s30-98 90-98c62 0 83 45 84 108H66c0 31 8 55 39 56 18 0 30-7 34-22zm-45-69c5-46-57-63-70-21-2 6-4 13-4 21h74" id="bC"/><g id="Z"><use transform="matrix(0.05,0,0,0.05,0,0)" xlink:href="#bz"/><use transform="matrix(0.05,0,0,0.05,12.950000000000001,0)" xlink:href="#bA"/><use transform="matrix(0.05,0,0,0.05,22.950000000000003,0)" xlink:href="#bB"/><use transform="matrix(0.05,0,0,0.05,32.95,0)" xlink:href="#by"/><use transform="matrix(0.05,0,0,0.05,43.900000000000006,0)" xlink:href="#bC"/></g><path d="M25 0v-261h50V0H25" id="bD"/><path d="M123 10C108 53 80 86 19 72V37c35 8 53-11 59-39L3-190h52l48 148c12-52 28-100 44-148h51" id="bE"/><path d="M190-63c-7 42-38 67-86 67-59 0-84-38-90-98-12-110 154-137 174-36l-49 2c-2-19-15-32-35-32-30 0-35 28-38 64-6 74 65 87 74 30" id="bF"/><g id="aa"><use transform="matrix(0.05,0,0,0.05,0,0)" xlink:href="#bk"/><use transform="matrix(0.05,0,0,0.05,12.950000000000001,0)" xlink:href="#bu"/><use transform="matrix(0.05,0,0,0.05,23.900000000000002,0)" xlink:href="#bB"/><use transform="matrix(0.05,0,0,0.05,33.900000000000006,0)" xlink:href="#bD"/><use transform="matrix(0.05,0,0,0.05,38.900000000000006,0)" xlink:href="#bE"/><use transform="matrix(0.05,0,0,0.05,48.900000000000006,0)" xlink:href="#bw"/><use transform="matrix(0.05,0,0,0.05,54.85,0)" xlink:href="#bv"/><use transform="matrix(0.05,0,0,0.05,59.85,0)" xlink:href="#bF"/><use transform="matrix(0.05,0,0,0.05,69.85000000000001,0)" xlink:href="#bA"/></g><path d="M24-248c93 1 206-16 204 79-1 75-69 88-152 82V0H24v-248zm52 121c47 0 100 7 100-41 0-47-54-39-100-39v80" id="bG"/><path d="M128 0H69L1-190h53L99-40l48-150h52" id="bH"/><g id="ab"><use transform="matrix(0.05,0,0,0.05,0,0)" xlink:href="#bG"/><use transform="matrix(0.05,0,0,0.05,12,0)" xlink:href="#bx"/><use transform="matrix(0.05,0,0,0.05,19,0)" xlink:href="#bt"/><use transform="matrix(0.05,0,0,0.05,29.950000000000003,0)" xlink:href="#bH"/><use transform="matrix(0.05,0,0,0.05,39.95,0)" xlink:href="#bC"/><use transform="matrix(0.05,0,0,0.05,49.95,0)" xlink:href="#bu"/><use transform="matrix(0.05,0,0,0.05,60.900000000000006,0)" xlink:href="#bB"/><use transform="matrix(0.05,0,0,0.05,70.9,0)" xlink:href="#bu"/><use transform="matrix(0.05,0,0,0.05,81.85000000000001,0)" xlink:href="#bF"/><use transform="matrix(0.05,0,0,0.05,91.85000000000001,0)" xlink:href="#bC"/></g><path d="M266 0h-40l-56-210L115 0H75L2-248h35L96-30l15-64 43-154h32l59 218 59-218h35" id="bI"/><g id="ac"><use transform="matrix(0.05,0,0,0.05,0,0)" xlink:href="#bI"/><use transform="matrix(0.05,0,0,0.05,16.95,0)" xlink:href="#aV"/><use transform="matrix(0.05,0,0,0.05,26.950000000000003,0)" xlink:href="#aD"/></g><g id="ad"><use transform="matrix(0.05,0,0,0.05,0,0)" xlink:href="#aT"/><use transform="matrix(0.05,0,0,0.05,10,0)" xlink:href="#aX"/><use transform="matrix(0.05,0,0,0.05,13.949999999999998,0)" xlink:href="#aT"/></g><path d="M68-38c1 34 0 65-14 84H32c9-13 17-26 17-46H33v-38h35" id="bJ"/><g id="ae"><use transform="matrix(0.05,0,0,0.05,0,0)" xlink:href="#bf"/><use transform="matrix(0.05,0,0,0.05,12.950000000000001,0)" xlink:href="#aV"/><use transform="matrix(0.05,0,0,0.05,22.950000000000003,0)" xlink:href="#aB"/><use transform="matrix(0.05,0,0,0.05,32.95,0)" xlink:href="#aH"/><use transform="matrix(0.05,0,0,0.05,37.95,0)" xlink:href="#bJ"/></g><g id="af"><use transform="matrix(0.05,0,0,0.05,0,0)" xlink:href="#bf"/><use transform="matrix(0.05,0,0,0.05,12.950000000000001,0)" xlink:href="#aV"/><use transform="matrix(0.05,0,0,0.05,22.950000000000003,0)" xlink:href="#az"/><use transform="matrix(0.05,0,0,0.05,32.95,0)" xlink:href="#aL"/></g><path d="M275 0h-61l-44-196L126 0H64L0-248h53L97-49l45-199h58l43 199 44-199h52" id="bK"/><g id="ag"><use transform="matrix(0.07407407407407408,0,0,0.07407407407407408,0,0)" xlink:href="#bk"/><use transform="matrix(0.07407407407407408,0,0,0.07407407407407408,17.703703703703706,0)" xlink:href="#bK"/><use transform="matrix(0.07407407407407408,0,0,0.07407407407407408,42.814814814814824,0)" xlink:href="#bq"/></g><path d="M67-125c0 53 21 87 73 88 37 1 54-22 65-47l45 17C233-25 199 4 140 4 58 4 20-42 15-125 8-235 124-281 211-232c18 10 29 29 36 50l-46 12c-8-25-30-41-62-41-52 0-71 34-72 86" id="bL"/><g id="ah"><use transform="matrix(0.07407407407407408,0,0,0.07407407407407408,0,0)" xlink:href="#bk"/><use transform="matrix(0.07407407407407408,0,0,0.07407407407407408,19.185185185185187,0)" xlink:href="#bL"/><use transform="matrix(0.07407407407407408,0,0,0.07407407407407408,38.370370370370374,0)" xlink:href="#bL"/><use transform="matrix(0.07407407407407408,0,0,0.07407407407407408,57.55555555555556,0)" xlink:href="#as"/><use transform="matrix(0.07407407407407408,0,0,0.07407407407407408,78.2962962962963,0)" xlink:href="#bz"/><use transform="matrix(0.07407407407407408,0,0,0.07407407407407408,97.4814814814815,0)" xlink:href="#ao"/><use transform="matrix(0.07407407407407408,0,0,0.07407407407407408,116.66666666666669,0)" xlink:href="#au"/></g><path d="M140-251c81 0 123 46 123 126C263-53 228-8 163 1c7 30 30 48 69 40v23c-55 16-95-15-103-61C56-3 17-48 17-125c0-80 42-126 123-126zm0 227c63 0 89-41 89-101s-29-99-89-99c-61 0-89 39-89 99S79-25 140-24" id="bM"/><g id="ai"><use transform="matrix(0.05,0,0,0.05,0,0)" xlink:href="#bs"/><use transform="matrix(0.05,0,0,0.05,14,0)" xlink:href="#aA"/><use transform="matrix(0.05,0,0,0.05,19.95,0)" xlink:href="#aB"/><use transform="matrix(0.05,0,0,0.05,29.950000000000003,0)" xlink:href="#ba"/><use transform="matrix(0.05,0,0,0.05,39.95,0)" xlink:href="#aV"/><use transform="matrix(0.05,0,0,0.05,49.95,0)" xlink:href="#bM"/><use transform="matrix(0.05,0,0,0.05,63.95,0)" xlink:href="#aN"/></g><g id="aj"><use transform="matrix(0.05,0,0,0.05,0,0)" xlink:href="#aU"/><use transform="matrix(0.05,0,0,0.05,12,0)" xlink:href="#aY"/><use transform="matrix(0.05,0,0,0.05,24,0)" xlink:href="#bg"/></g><g id="ak"><use transform="matrix(0.05,0,0,0.05,0,0)" xlink:href="#bs"/><use transform="matrix(0.05,0,0,0.05,14,0)" xlink:href="#aB"/><use transform="matrix(0.05,0,0,0.05,24,0)" xlink:href="#aH"/><use transform="matrix(0.05,0,0,0.05,29,0)" xlink:href="#az"/><use transform="matrix(0.05,0,0,0.05,39,0)" xlink:href="#bf"/><use transform="matrix(0.05,0,0,0.05,51.95,0)" xlink:href="#aB"/><use transform="matrix(0.05,0,0,0.05,61.95,0)" xlink:href="#aK"/></g><g id="al"><use transform="matrix(0.05,0,0,0.05,0,0)" xlink:href="#be"/><use transform="matrix(0.05,0,0,0.05,10.950000000000001,0)" xlink:href="#bn"/><use transform="matrix(0.05,0,0,0.05,23.900000000000002,0)" xlink:href="#br"/><use transform="matrix(0.05,0,0,0.05,37.900000000000006,0)" xlink:href="#bh"/><use transform="matrix(0.05,0,0,0.05,50.85000000000001,0)" xlink:href="#ay"/><use transform="matrix(0.05,0,0,0.05,61.80000000000001,0)" xlink:href="#bc"/><use transform="matrix(0.05,0,0,0.05,73.80000000000001,0)" xlink:href="#bh"/><use transform="matrix(0.05,0,0,0.05,86.75000000000001,0)" xlink:href="#aJ"/></g><g id="am"><use transform="matrix(0.05,0,0,0.05,0,0)" xlink:href="#aM"/><use transform="matrix(0.05,0,0,0.05,12,0)" xlink:href="#aA"/><use transform="matrix(0.05,0,0,0.05,17.95,0)" xlink:href="#aD"/><use transform="matrix(0.05,0,0,0.05,27.950000000000003,0)" xlink:href="#bf"/><use transform="matrix(0.05,0,0,0.05,40.9,0)" xlink:href="#aG"/><use transform="matrix(0.05,0,0,0.05,49.9,0)" xlink:href="#az"/><use transform="matrix(0.05,0,0,0.05,59.900000000000006,0)" xlink:href="#aA"/></g></defs></g></svg>